<svg width="463" height="425" viewBox="0 0 463 425" fill="none" xmlns="http://www.w3.org/2000/svg">
<g style="mix-blend-mode:luminosity">
<path d="M67.6359 229.755L74.79 225.129C74.79 225.129 78.2554 206.699 75.6832 190.401C72.0607 167.486 56.4375 159.58 50.7638 161.86C45.0902 164.14 43.7586 170.931 54.0059 184.164C60.0517 191.979 67.8261 208.492 67.6359 229.755Z" fill="#D268CC"/>
<g opacity="0.3">
<path d="M67.6359 229.755L74.79 225.129C74.79 225.129 78.2554 206.699 75.6832 190.401C72.0607 167.486 56.4375 159.58 50.7638 161.86C45.0902 164.14 43.7586 170.931 54.0059 184.164C60.0517 191.979 67.8261 208.492 67.6359 229.755Z" fill="white"/>
</g>
<path d="M70.2412 220.652C70.2412 220.652 70.1915 220.652 70.1667 220.652C69.8855 220.61 69.687 220.354 69.7284 220.074C72.6975 198.621 64.0547 175.111 54.3533 165.644C54.1548 165.446 54.1465 165.123 54.3533 164.917C54.5518 164.719 54.8743 164.71 55.0811 164.917C64.9645 174.565 73.7644 198.447 70.7539 220.222C70.7209 220.478 70.4975 220.66 70.2494 220.66L70.2412 220.652Z" fill="white"/>
<path d="M49.6225 241.394C48.5473 242.006 45.4955 239.651 44.6436 239.081C43.1962 238.107 42.0218 236.735 41.2361 235.174C40.3263 233.365 40.0947 231.424 40.3842 229.416C40.5331 228.376 40.8225 227.368 41.112 226.352C41.3932 225.36 41.6827 224.369 41.9639 223.378C42.2451 222.403 42.5263 221.387 42.4022 220.379C42.1459 218.347 40.3346 216.926 38.697 215.695C36.8775 214.349 34.9918 212.556 35 210.111C35 208.219 35.9842 206.468 37.1587 204.989C38.3331 203.511 39.7226 202.197 40.7812 200.636C41.5421 199.513 42.1376 198.191 42.0135 196.836C41.9391 195.994 41.5834 195.201 41.1865 194.457C40.318 192.863 39.1767 191.401 38.5812 189.691C37.9857 187.981 38.0684 185.849 39.4083 184.627C40.5083 183.619 42.1376 183.479 43.6263 183.578C44.9992 183.669 46.3473 184.288 47.5466 184.957C51.4338 187.113 53.6586 191.715 57.7856 193.383C59.3736 194.028 61.1187 194.168 62.7811 194.606C64.4435 195.044 66.1307 195.886 66.8998 197.423C68.4134 200.446 65.6014 204.172 66.6683 207.377C67.6111 210.219 70.3735 211.301 71.9201 213.861C72.5983 214.977 72.7555 216.274 72.6479 217.579C72.466 219.784 72.1352 221.403 71.0765 223.857C70.1998 225.881 67.6442 229.763 67.6442 229.763C67.6442 229.763 49.7962 241.303 49.6308 241.394H49.6225Z" fill="#D268CC"/>
<g opacity="0.65">
<path d="M49.6225 241.394C48.5473 242.006 45.4955 239.651 44.6436 239.081C43.1962 238.107 42.0218 236.735 41.2361 235.174C40.3263 233.365 40.0947 231.424 40.3842 229.416C40.5331 228.376 40.8225 227.368 41.112 226.352C41.3932 225.36 41.6827 224.369 41.9639 223.378C42.2451 222.403 42.5263 221.387 42.4022 220.379C42.1459 218.347 40.3346 216.926 38.697 215.695C36.8775 214.349 34.9918 212.556 35 210.111C35 208.219 35.9842 206.468 37.1587 204.989C38.3331 203.511 39.7226 202.197 40.7812 200.636C41.5421 199.513 42.1376 198.191 42.0135 196.836C41.9391 195.994 41.5834 195.201 41.1865 194.457C40.318 192.863 39.1767 191.401 38.5812 189.691C37.9857 187.981 38.0684 185.849 39.4083 184.627C40.5083 183.619 42.1376 183.479 43.6263 183.578C44.9992 183.669 46.3473 184.288 47.5466 184.957C51.4338 187.113 53.6586 191.715 57.7856 193.383C59.3736 194.028 61.1187 194.168 62.7811 194.606C64.4435 195.044 66.1307 195.886 66.8998 197.423C68.4134 200.446 65.6014 204.172 66.6683 207.377C67.6111 210.219 70.3735 211.301 71.9201 213.861C72.5983 214.977 72.7555 216.274 72.6479 217.579C72.466 219.784 72.1352 221.403 71.0765 223.857C70.1998 225.881 67.6442 229.763 67.6442 229.763C67.6442 229.763 49.7962 241.303 49.6308 241.394H49.6225Z" fill="white"/>
</g>
<path d="M60.0104 235.298H59.9939C59.721 235.29 59.5142 235.058 59.5225 234.794C60.3247 215.588 51.2601 194.391 44.6767 188.237C44.4782 188.055 44.4699 187.749 44.6519 187.551C44.8338 187.353 45.1399 187.345 45.3384 187.526C52.0541 193.813 61.3007 215.365 60.4901 234.835C60.4819 235.1 60.2668 235.298 60.0022 235.298H60.0104Z" fill="white"/>
<path d="M56.9171 211.829C56.8675 211.829 56.8179 211.829 56.7765 211.805C50.5984 209.896 42.8984 209.558 42.824 209.558C42.5593 209.549 42.3526 209.318 42.3608 209.054C42.3691 208.789 42.5759 208.575 42.8653 208.591C42.9398 208.591 50.7638 208.938 57.066 210.879C57.3224 210.962 57.463 211.226 57.3886 211.482C57.3224 211.689 57.1322 211.821 56.9254 211.821L56.9171 211.829Z" fill="white"/>
<g filter="url(#filter0_d_60_1819)">
<path d="M231.957 381C337.467 381 423 331.678 423 270.835C423 209.993 337.467 160.671 231.957 160.671C126.446 160.671 40.9135 209.993 40.9135 270.835C40.9135 331.678 126.446 381 231.957 381Z" fill="#FAFAFA"/>
</g>
<path d="M130.426 223.873C170.886 200.537 236.489 200.537 276.957 223.873C311.255 243.649 316.466 273.842 292.614 296.799L381.647 347.486C387.072 350.617 387.072 355.689 381.647 358.82L373.649 363.438C368.224 366.569 359.573 366.329 354.329 362.901L276.56 308.595C236.067 331.708 170.762 331.634 130.426 308.38C89.9666 285.044 89.9666 247.218 130.426 223.882V223.873Z" fill="#E7E7E7"/>
<path d="M146.827 18.7522L139.805 22.8C139.838 22.4861 139.863 22.1721 139.863 21.8748V19.8426C139.863 16.2245 137.324 14.7623 134.19 16.5714C132.924 17.3066 131.75 18.4631 130.807 19.8179C130.294 15.2745 126.721 13.581 122.387 16.0758C117.698 18.777 113.893 25.3525 113.893 30.7633V33.8032C113.893 35.2075 114.15 36.3805 114.613 37.3223L108.782 40.6844C107.045 41.6839 105.631 44.1291 105.631 46.1282C105.631 48.1272 107.037 48.945 108.782 47.9455L146.827 26.0051C148.564 25.0056 149.978 22.5604 149.978 20.5613C149.978 18.5622 148.572 17.7444 146.827 18.744V18.7522Z" fill="#ECECEC"/>
<path d="M54.3201 36.9753L58.2818 33.9354V25.2286C58.2818 18.3227 63.7983 10.3098 69.7779 6.86509C75.7659 3.41212 80.6125 6.2125 80.6125 13.1184V14.3823C81.9689 12.2758 83.7222 10.4585 85.641 9.35982C89.95 6.87335 93.4402 8.88896 93.4402 13.8536V14.4319L98.9567 11.2515C101.794 9.6159 104.093 10.9376 104.093 14.2088C104.093 17.4801 101.794 21.4617 98.9567 23.0973L54.3201 48.8377C51.4833 50.4733 49.1841 49.1516 49.1841 45.8803C49.1841 42.6091 51.4833 38.6274 54.3201 36.9918V36.9753Z" fill="#ECECEC"/>
<path d="M112.984 239.057V264.194C112.984 277.84 122.015 291.487 140.07 301.896C176.18 322.721 234.736 322.721 270.845 301.896C288.9 291.487 297.932 277.84 297.932 264.194V239.057C297.932 225.41 288.9 211.763 270.845 201.355C234.736 180.53 176.18 180.53 140.07 201.355C122.015 211.763 112.984 225.41 112.984 239.065V239.057ZM288.983 239.057C288.983 249.977 280.952 260.617 266.371 269.026C250.243 278.328 228.607 283.45 205.458 283.45C182.308 283.45 160.672 278.328 144.544 269.026C129.963 260.617 121.933 249.977 121.933 239.057C121.933 228.136 129.963 217.496 144.544 209.087C160.672 199.785 182.308 194.664 205.458 194.664C228.607 194.664 250.243 199.785 266.371 209.087C280.952 217.496 288.983 228.136 288.983 239.057Z" fill="#D268CC"/>
<path opacity="0.2" d="M112.984 239.057V264.194C112.984 277.84 122.015 291.487 140.07 301.896C176.18 322.721 234.736 322.721 270.845 301.896C288.9 291.487 297.932 277.84 297.932 264.194V239.057C297.932 225.41 288.9 211.763 270.845 201.355C234.736 180.53 176.18 180.53 140.07 201.355C122.015 211.763 112.984 225.41 112.984 239.065V239.057ZM288.983 239.057C288.983 249.977 280.952 260.617 266.371 269.026C250.243 278.328 228.607 283.45 205.458 283.45C182.308 283.45 160.672 278.328 144.544 269.026C129.963 260.617 121.933 249.977 121.933 239.057C121.933 228.136 129.963 217.496 144.544 209.087C160.672 199.785 182.308 194.664 205.458 194.664C228.607 194.664 250.243 199.785 266.371 209.087C280.952 217.496 288.983 228.136 288.983 239.057Z" fill="white"/>
<path opacity="0.6" d="M297.841 266.54C296.401 275.181 292.589 281.69 277.238 293.668C255.52 310.602 200.553 317.517 168.637 306.992C138.548 297.071 128.954 277.684 128.954 264.376L129.029 256.553C124.381 251.026 121.933 245.079 121.933 239.057C121.933 233.035 124.505 226.789 129.376 221.139L129.484 210.128H127.755C117.913 218.9 112.984 228.979 112.984 239.057V264.194C112.984 277.84 122.015 291.487 140.07 301.896C176.18 322.721 234.736 322.721 270.845 301.896C287.866 292.082 296.865 279.394 297.841 266.54Z" fill="#D268CC"/>
<path d="M270.853 201.355C234.744 180.53 176.188 180.53 140.078 201.355C103.969 222.18 103.969 255.941 140.078 276.767C176.188 297.592 234.744 297.592 270.853 276.767C306.963 255.941 306.963 222.18 270.853 201.355ZM266.379 269.035C250.251 278.336 228.615 283.458 205.466 283.458C182.316 283.458 160.68 278.336 144.553 269.035C129.971 260.625 121.941 249.985 121.941 239.065C121.941 228.144 129.971 217.504 144.553 209.095C160.68 199.794 182.316 194.672 205.466 194.672C228.615 194.672 250.251 199.794 266.379 209.095C280.96 217.504 288.991 228.144 288.991 239.065C288.991 249.985 280.96 260.625 266.379 269.035Z" fill="#D268CC"/>
<path opacity="0.5" d="M270.853 201.355C234.744 180.53 176.188 180.53 140.078 201.355C103.969 222.18 103.969 255.941 140.078 276.767C176.188 297.592 234.744 297.592 270.853 276.767C306.963 255.941 306.963 222.18 270.853 201.355ZM266.379 269.035C250.251 278.336 228.615 283.458 205.466 283.458C182.316 283.458 160.68 278.336 144.553 269.035C129.971 260.625 121.941 249.985 121.941 239.065C121.941 228.144 129.971 217.504 144.553 209.095C160.68 199.794 182.316 194.672 205.466 194.672C228.615 194.672 250.251 199.794 266.379 209.095C280.96 217.504 288.991 228.144 288.991 239.065C288.991 249.985 280.96 260.625 266.379 269.035Z" fill="white"/>
<path d="M288.999 239.057C288.999 243.344 287.767 247.557 285.385 251.629C281.721 245.285 275.262 239.337 266.371 234.232C250.26 224.923 228.615 219.801 205.449 219.801C182.283 219.801 160.664 224.931 144.553 234.232C135.662 239.337 129.211 245.293 125.522 251.629C123.165 247.557 121.924 243.344 121.924 239.057C121.924 228.144 129.955 217.496 144.553 209.079C160.664 199.785 182.308 194.664 205.449 194.664C228.591 194.664 250.251 199.793 266.371 209.079C280.968 217.496 288.999 228.136 288.999 239.057Z" fill="#D268CC"/>
<path opacity="0.3" d="M288.999 239.057C288.999 243.344 287.767 247.557 285.385 251.629C281.721 245.285 275.262 239.337 266.371 234.232C250.26 224.923 228.615 219.801 205.449 219.801C182.283 219.801 160.664 224.931 144.553 234.232C135.662 239.337 129.211 245.293 125.522 251.629C123.165 247.557 121.924 243.344 121.924 239.057C121.924 228.144 129.955 217.496 144.553 209.079C160.664 199.785 182.308 194.664 205.449 194.664C228.591 194.664 250.251 199.793 266.371 209.079C280.968 217.496 288.999 228.136 288.999 239.057Z" fill="white"/>
<path opacity="0.6" d="M144.553 209.079C129.955 217.496 121.924 228.136 121.924 239.057C121.924 243.344 123.157 247.557 125.522 251.629C129.211 245.285 135.662 239.337 144.553 234.232C148.175 232.142 152.096 230.267 156.231 228.607C152.708 229.97 141.89 233.448 145.835 223.146C150.524 210.904 173.401 197.662 190.223 195.457V195.432C172.929 197.175 157.074 201.859 144.553 209.079Z" fill="#D268CC"/>
<path opacity="0.4" d="M266.379 220.47C250.251 211.168 228.615 206.047 205.466 206.047C182.316 206.047 160.68 211.168 144.553 220.47C132.519 227.409 124.968 235.868 122.685 244.748C124.968 253.628 132.519 262.087 144.553 269.026C160.68 278.328 182.316 283.45 205.466 283.45C228.615 283.45 250.251 278.328 266.379 269.026C278.413 262.087 285.964 253.628 288.247 244.748C285.964 235.868 278.413 227.409 266.379 220.47Z" fill="white"/>
<path d="M138.366 250.514C143.535 254.562 149.399 257.106 155.379 259.155C161.375 261.179 167.537 262.616 173.748 263.682C186.187 265.772 198.841 266.358 211.429 265.829C217.723 265.557 224.025 264.97 230.286 264.119C236.53 263.227 242.742 262.112 248.804 260.477C254.858 258.857 260.805 256.801 266.28 253.851C267.653 253.116 268.976 252.307 270.25 251.431C271.54 250.564 272.747 249.589 273.881 248.54C275.014 247.482 276.056 246.309 276.932 245.013C277.834 243.724 278.52 242.27 278.992 240.7C279.041 242.344 278.702 244.021 278.148 245.624C277.569 247.218 276.742 248.73 275.791 250.151C274.848 251.58 273.74 252.893 272.541 254.116C271.358 255.355 270.068 256.47 268.745 257.544C263.393 261.782 257.281 264.838 251.021 267.267C244.743 269.671 238.251 271.397 231.7 272.645C225.15 273.892 218.525 274.66 211.859 274.991C198.535 275.61 185.062 274.346 172.16 270.769C165.726 268.944 159.423 266.556 153.543 263.326C150.615 261.699 147.787 259.882 145.19 257.767C144.536 257.247 143.916 256.677 143.287 256.131C142.684 255.553 142.063 255 141.493 254.388C140.351 253.174 139.293 251.894 138.375 250.531L138.366 250.514Z" fill="white"/>
<path d="M268.099 292.768C268.083 288.637 270.961 283.606 274.534 281.533C276.312 280.5 277.917 280.393 279.091 281.054H279.108L299.71 292.825C299.71 292.825 299.726 292.825 299.735 292.834C300.901 293.511 301.629 294.948 301.637 297.005C301.653 301.136 298.775 306.166 295.202 308.24C293.416 309.281 291.795 309.38 290.62 308.711L270.018 296.947C268.836 296.278 268.091 294.833 268.083 292.759L268.099 292.768Z" fill="#2B454E"/>
<path d="M270.027 296.956C268.844 296.287 268.099 294.841 268.091 292.768C268.091 291.215 268.488 289.529 269.191 287.927L298.808 304.878C297.783 306.282 296.542 307.472 295.202 308.248C293.416 309.289 291.795 309.388 290.62 308.719L270.018 296.956H270.027Z" fill="#1A2E35"/>
<path d="M369.878 326.306C369.869 326.306 369.861 326.298 369.853 326.289L304.3 292.925L304.209 292.875C302.687 292.065 300.628 292.206 298.345 293.536C293.697 296.237 289.95 302.788 289.975 308.157C289.983 310.85 290.943 312.734 292.481 313.609L354.122 353.244C356.529 354.756 359.374 355.631 362.434 355.631C371.069 355.631 378.066 348.643 378.066 340.019C378.066 334.096 374.766 328.949 369.903 326.306H369.878Z" fill="#375A64"/>
<path d="M292.465 313.609L354.106 353.244C356.512 354.756 359.358 355.631 362.418 355.631C370.713 355.631 377.479 349.18 377.991 341.027C376.809 346.148 368.323 350.518 357.803 344.636C347.225 338.73 308.32 314.171 290.604 303.986C290.182 305.398 289.95 306.811 289.959 308.157C289.967 310.85 290.926 312.734 292.465 313.609Z" fill="#2B454E"/>
<path d="M292.465 313.609C290.926 312.733 289.975 310.85 289.959 308.157C289.934 302.788 293.689 296.237 298.329 293.536C300.603 292.206 302.671 292.065 304.193 292.883L309.998 295.824C308.435 294.981 306.318 295.13 303.986 296.493C299.222 299.269 295.376 305.985 295.401 311.486C295.409 314.245 296.352 316.22 297.923 317.12" fill="#D268CC"/>
<path opacity="0.2" d="M297.923 317.12C296.352 316.228 295.409 314.254 295.401 311.486C295.401 310.098 295.632 308.636 296.071 307.182C294.094 306.009 292.25 304.936 290.604 303.986C290.397 304.688 290.232 305.398 290.124 306.1C290.066 306.447 290.025 306.794 290 307.141C289.975 307.488 289.959 307.827 289.959 308.157C289.967 310.85 290.926 312.734 292.465 313.609L297.932 317.12H297.923Z" fill="black"/>
<path d="M135.629 351.873L86.005 327.082L66.2382 335.822L135.629 351.873Z" fill="#D268CC"/>
<g opacity="0.15">
<path d="M135.629 351.873L86.005 327.082L66.2382 335.822L135.629 351.873Z" fill="white"/>
</g>
<path d="M135.629 351.873L91.9185 322.688L99.7425 311.453L135.629 351.873Z" fill="#D268CC"/>
<g opacity="0.15">
<path d="M135.629 351.873L91.9185 322.688L99.7425 311.453L135.629 351.873Z" fill="white"/>
</g>
<path d="M91.9185 322.688L92.7372 330.445L135.629 351.873L91.9185 322.688Z" fill="#D268CC"/>
<g opacity="0.2">
<path d="M91.9185 322.688L92.7372 330.445L135.629 351.873L91.9185 322.688Z" fill="black"/>
</g>
<path d="M84.8388 321.201C84.9546 321.201 85.0704 321.16 85.1613 321.069C85.3681 320.87 85.3847 320.532 85.211 320.3C84.8884 319.887 84.5741 319.483 84.2516 319.061C84.0779 318.83 83.7636 318.805 83.5568 318.995C83.3501 319.185 83.3253 319.532 83.4989 319.763C83.8132 320.185 84.1358 320.598 84.4583 321.011C84.5576 321.135 84.6899 321.201 84.8305 321.201H84.8388Z" fill="#375A64"/>
<path d="M80.4802 315.567C79.893 314.708 79.3223 313.841 78.7682 312.965C78.6111 312.717 78.669 312.378 78.884 312.205C79.1073 312.032 79.4133 312.089 79.5705 312.337C80.1163 313.205 80.6787 314.064 81.2659 314.914C81.4313 315.154 81.39 315.493 81.1667 315.674C81.0757 315.749 80.9765 315.782 80.8689 315.782C80.7201 315.782 80.5712 315.707 80.4802 315.567ZM76.1051 308.471C75.5923 307.554 75.1043 306.621 74.6329 305.687C74.5006 305.423 74.5833 305.093 74.8231 304.944C75.0547 304.795 75.3607 304.894 75.493 305.15C75.9562 306.076 76.4442 306.984 76.9487 307.893C77.0893 308.149 77.0148 308.488 76.7832 308.645C76.7005 308.702 76.6096 308.727 76.5269 308.727C76.3614 308.727 76.2043 308.636 76.1051 308.471ZM72.4164 300.904C72.0028 299.93 71.6058 298.93 71.2419 297.947C71.1344 297.666 71.2585 297.352 71.5066 297.237C71.7547 297.121 72.0442 297.253 72.1517 297.534C72.5156 298.5 72.9043 299.483 73.3096 300.442C73.4254 300.714 73.3179 301.037 73.0697 301.169C73.0036 301.202 72.9291 301.218 72.863 301.218C72.681 301.218 72.4991 301.103 72.4164 300.904ZM69.5547 292.908C69.2487 291.875 68.9758 290.835 68.7277 289.81C68.6532 289.521 68.8104 289.224 69.075 289.141C69.3397 289.059 69.6043 289.232 69.6788 289.521C69.9269 290.529 70.1998 291.553 70.4976 292.569C70.5803 292.858 70.4397 293.164 70.1833 293.255C70.1337 293.271 70.084 293.28 70.0344 293.28C69.8277 293.28 69.6374 293.131 69.563 292.9L69.5547 292.908ZM67.6525 284.565C67.4788 283.516 67.3299 282.442 67.2059 281.376C67.1728 281.079 67.363 280.806 67.6277 280.765C67.8923 280.732 68.1404 280.938 68.1735 281.236C68.2976 282.285 68.4382 283.342 68.6119 284.375C68.6615 284.672 68.4795 284.953 68.2149 285.011C68.1818 285.011 68.157 285.019 68.1239 285.019C67.8923 285.019 67.6856 284.837 67.6442 284.573L67.6525 284.565ZM66.8006 276.007C66.7675 275.164 66.7592 274.321 66.751 273.471V272.777C66.751 272.479 66.9743 272.24 67.2472 272.24C67.5201 272.24 67.7352 272.488 67.7352 272.793V273.471C67.7352 274.305 67.7435 275.139 67.7765 275.965C67.7848 276.263 67.578 276.519 67.3051 276.535H67.2886C67.0239 276.535 66.8089 276.304 66.8006 276.015V276.007ZM67.4623 267.994C67.1893 267.969 66.9908 267.696 67.0156 267.399C67.1066 266.333 67.2224 265.259 67.363 264.194C67.4044 263.896 67.6525 263.69 67.9171 263.731C68.1818 263.773 68.372 264.053 68.3307 264.351C68.1983 265.4 68.0825 266.457 67.9916 267.506C67.9668 267.787 67.7517 268.002 67.5036 268.002C67.4871 268.002 67.4705 268.002 67.454 268.002L67.4623 267.994ZM68.6201 259.551C68.3555 259.485 68.1901 259.196 68.248 258.899C68.463 257.85 68.7111 256.801 68.984 255.768C69.0585 255.479 69.3314 255.314 69.5961 255.396C69.8607 255.479 70.0096 255.784 69.9269 256.074C69.6622 257.081 69.4141 258.114 69.2074 259.138C69.1577 259.386 68.951 259.56 68.7277 259.56C68.6946 259.56 68.6532 259.56 68.6201 259.543V259.551ZM70.8532 251.39C70.5968 251.274 70.481 250.96 70.5803 250.679C70.9442 249.688 71.3329 248.689 71.7464 247.714C71.8622 247.441 72.16 247.326 72.3998 247.449C72.6479 247.582 72.7472 247.904 72.6314 248.176C72.2261 249.135 71.8374 250.109 71.49 251.084C71.4156 251.299 71.2254 251.423 71.0352 251.423C70.9773 251.423 70.9111 251.406 70.8532 251.382V251.39ZM74.2111 243.707C73.9795 243.55 73.9051 243.22 74.0457 242.964C74.5419 242.039 75.0712 241.122 75.6171 240.238C75.7742 239.99 76.0802 239.924 76.3036 240.097C76.5269 240.271 76.5848 240.61 76.4359 240.857C75.8983 241.725 75.3855 242.625 74.8893 243.526C74.7983 243.699 74.6329 243.79 74.4675 243.79C74.3848 243.79 74.2938 243.765 74.2111 243.716V243.707ZM78.6111 236.702C78.4043 236.512 78.3712 236.165 78.5449 235.934C79.1652 235.108 79.8186 234.29 80.4802 233.505C80.6704 233.282 80.9765 233.274 81.175 233.481C81.3734 233.687 81.3817 234.034 81.1998 234.249C80.5547 235.017 79.9178 235.81 79.3058 236.628C79.2065 236.76 79.0659 236.826 78.9253 236.826C78.8178 236.826 78.702 236.785 78.6111 236.702ZM83.9208 230.515C83.7388 230.292 83.7554 229.945 83.9622 229.747C84.69 229.028 85.4426 228.334 86.1952 227.665C86.4103 227.475 86.7163 227.516 86.89 227.756C87.0554 227.995 87.0223 228.334 86.8073 228.524C86.0629 229.177 85.3268 229.862 84.6155 230.565C84.5246 230.655 84.4088 230.705 84.293 230.705C84.1606 230.705 84.0201 230.647 83.9291 230.523L83.9208 230.515ZM90.0163 225.286C89.8674 225.03 89.9335 224.699 90.1651 224.534C91.0005 223.94 91.8441 223.386 92.6794 222.882C92.911 222.742 93.217 222.833 93.3493 223.097C93.4817 223.361 93.3907 223.692 93.1508 223.84C92.332 224.336 91.505 224.881 90.6944 225.451C90.6117 225.509 90.5208 225.534 90.4298 225.534C90.2726 225.534 90.1072 225.443 90.0163 225.286Z" fill="#375A64"/>
<path d="M97.3274 221.717C97.3771 221.717 97.4267 221.709 97.4763 221.693C97.9974 221.503 98.4522 221.379 98.8244 221.321C99.0891 221.28 99.2793 220.999 99.2379 220.701C99.1966 220.404 98.9402 220.189 98.6838 220.239C98.262 220.305 97.7492 220.445 97.1786 220.652C96.9222 220.743 96.7816 221.048 96.8643 221.337C96.9304 221.569 97.1207 221.717 97.3357 221.717H97.3274Z" fill="#375A64"/>
<path d="M329.567 31.6802L278.702 16.1088L317.889 42.9973L329.567 31.6802Z" fill="#D268CC"/>
<path opacity="0.15" d="M329.567 31.6802L278.702 16.1088L317.889 42.9973L329.567 31.6802Z" fill="white"/>
<path d="M278.702 16.1088L333.446 24.9064L345.124 13.5893L278.702 16.1088Z" fill="#D268CC"/>
<path opacity="0.15" d="M278.702 16.1088L333.446 24.9064L345.124 13.5893L278.702 16.1088Z" fill="white"/>
<path d="M333.446 24.9064L333.504 38.4209L329.567 31.6802L278.702 16.1088L333.446 24.9064Z" fill="#D268CC"/>
<path opacity="0.2" d="M333.446 24.9064L333.504 38.4209L329.567 31.6802L278.702 16.1088L333.446 24.9064Z" fill="black"/>
<path d="M333.504 38.4209L325.671 35.4471L329.567 31.6802L333.504 38.4209Z" fill="#D268CC"/>
<path opacity="0.2" d="M329.567 31.6802L325.671 35.4471L326.92 35.9262L329.567 31.6802Z" fill="black"/>
<path d="M343.759 29.3011C343.668 29.3672 343.602 29.4746 343.585 29.5985C343.544 29.8794 343.734 30.1685 344.016 30.2428C344.52 30.375 345.025 30.5072 345.529 30.6476C345.81 30.722 346.075 30.5568 346.116 30.2841C346.166 30.0033 345.976 29.7142 345.695 29.6398C345.19 29.4994 344.677 29.3672 344.173 29.2268C344.024 29.1855 343.875 29.2268 343.767 29.3011H343.759Z" fill="#375A64"/>
<path d="M350.649 31.1433C351.641 31.4737 352.617 31.8206 353.593 32.1758C353.866 32.275 354.031 32.5806 353.957 32.8532C353.891 33.1258 353.601 33.258 353.328 33.1589C352.369 32.8037 351.401 32.4567 350.417 32.1345C350.144 32.0437 349.97 31.7463 350.028 31.4737C350.053 31.358 350.111 31.2672 350.194 31.2093C350.31 31.1185 350.475 31.0854 350.64 31.1433H350.649ZM358.431 34.1419C359.399 34.5632 360.35 35.0093 361.293 35.4636C361.558 35.5958 361.69 35.9097 361.591 36.1658C361.491 36.4301 361.194 36.5292 360.929 36.4053C360.003 35.951 359.06 35.5132 358.109 35.1001C357.844 34.9845 357.695 34.6706 357.786 34.4062C357.819 34.3154 357.869 34.241 357.943 34.1832C358.076 34.0841 358.258 34.0593 358.431 34.1336V34.1419ZM365.958 37.9335C366.884 38.4622 367.802 39.0157 368.687 39.5692C368.935 39.7261 369.034 40.0565 368.91 40.2961C368.778 40.5439 368.472 40.61 368.224 40.4531C367.347 39.8996 366.446 39.3626 365.536 38.8422C365.279 38.6935 365.164 38.3714 365.288 38.1235C365.321 38.0575 365.362 37.9996 365.42 37.9583C365.569 37.8427 365.776 37.8344 365.966 37.9418L365.958 37.9335ZM373.087 42.5678C373.955 43.2039 374.807 43.8647 375.626 44.5256C375.858 44.7156 375.915 45.046 375.758 45.269C375.601 45.4921 375.279 45.5169 375.047 45.3269C374.245 44.6743 373.401 44.0299 372.549 43.4021C372.309 43.2287 372.235 42.8982 372.384 42.6669C372.409 42.6256 372.45 42.5843 372.491 42.5513C372.657 42.4274 372.897 42.4274 373.095 42.5678H373.087ZM379.662 48.0529C380.439 48.7881 381.209 49.5481 381.953 50.3246C382.16 50.5394 382.176 50.8698 381.986 51.068C381.804 51.258 381.473 51.2415 381.267 51.0267C380.539 50.2668 379.778 49.515 379.017 48.7964C378.802 48.5898 378.769 48.2594 378.951 48.0529C378.967 48.0281 378.992 48.0116 379.017 47.9951C379.199 47.8546 379.48 47.8794 379.67 48.0612L379.662 48.0529ZM385.526 54.3475C386.063 55.0001 386.585 55.661 387.097 56.3384L387.519 56.8918C387.701 57.1314 387.668 57.4536 387.453 57.6188C387.238 57.7757 386.915 57.7179 386.733 57.4701L386.32 56.9249C385.815 56.264 385.294 55.6114 384.773 54.9671C384.583 54.7358 384.6 54.4054 384.806 54.2319C384.806 54.2319 384.815 54.2319 384.823 54.2236C385.03 54.0667 385.344 54.1162 385.534 54.3393L385.526 54.3475ZM389.86 61.1213C390.091 60.9809 390.414 61.0717 390.571 61.3278C391.142 62.2282 391.704 63.1617 392.242 64.0869C392.391 64.343 392.316 64.6651 392.076 64.789C391.836 64.9212 391.522 64.8138 391.373 64.5495C390.844 63.6326 390.29 62.7156 389.727 61.8317C389.578 61.5922 389.62 61.2948 389.818 61.1461C389.835 61.1378 389.843 61.1296 389.86 61.1213ZM394.061 68.5311C394.309 68.4238 394.624 68.5559 394.748 68.8285C395.211 69.795 395.649 70.778 396.063 71.7611C396.178 72.0337 396.063 72.3311 395.806 72.4219C395.55 72.5128 395.244 72.3641 395.128 72.0832C394.731 71.1167 394.293 70.1502 393.838 69.2085C393.73 68.9772 393.78 68.7211 393.962 68.5807C393.987 68.5559 394.02 68.5394 394.061 68.5229V68.5311ZM397.237 76.3788C397.51 76.3127 397.791 76.4944 397.882 76.7753C398.196 77.7831 398.494 78.8157 398.751 79.84C398.825 80.1292 398.651 80.3935 398.387 80.4431C398.114 80.4926 397.833 80.2944 397.758 80.0052C397.502 78.9974 397.212 77.9896 396.906 76.9983C396.84 76.7836 396.906 76.5688 397.063 76.4531C397.113 76.4201 397.171 76.3871 397.229 76.3705L397.237 76.3788ZM399.23 84.5238C399.512 84.5073 399.768 84.7221 399.818 85.0195C399.983 86.0521 400.115 87.1012 400.223 88.142C400.256 88.4311 400.049 88.6707 399.768 88.6707C399.487 88.6707 399.239 88.4394 399.205 88.1503C399.106 87.1342 398.974 86.1099 398.817 85.0938C398.784 84.9038 398.858 84.7304 398.99 84.6312C399.057 84.5817 399.139 84.5486 399.239 84.5404L399.23 84.5238Z" fill="#375A64"/>
<path d="M408.287 216.455C406.07 215.134 402.944 215.315 399.47 217.314L336.473 253.645C329.749 257.519 324.298 266.738 324.298 274.231C324.298 277.89 325.597 280.459 327.714 281.673C328.864 282.334 333.322 284.903 334.479 285.564C336.688 286.82 339.773 286.622 343.197 284.647L406.194 248.317C412.918 244.443 418.368 235.224 418.368 227.731C418.368 224.088 417.078 221.527 414.977 220.305C413.82 219.627 409.395 217.116 408.287 216.455Z" fill="#E1E1E1"/>
<path d="M337.606 285.944C333.801 285.944 331.436 282.937 331.436 278.105C331.436 270.761 336.804 261.683 343.404 257.883L406.401 221.552C408.278 220.47 410.147 219.892 411.785 219.892C415.59 219.892 417.955 222.899 417.955 227.731C417.955 235.075 412.587 244.153 405.987 247.953L342.99 284.284C341.113 285.366 339.252 285.944 337.606 285.944Z" fill="#FAFAFA"/>
<path d="M411.785 220.305C415.333 220.305 417.541 223.146 417.541 227.731C417.541 234.943 412.265 243.856 405.781 247.598L342.783 283.929C340.964 284.978 339.177 285.531 337.606 285.531C335.91 285.531 334.488 284.887 333.487 283.673C332.412 282.367 331.849 280.443 331.849 278.105C331.849 270.893 337.126 261.98 343.61 258.238L406.608 221.907C408.427 220.858 410.214 220.305 411.785 220.305ZM411.785 219.479C410.114 219.479 408.212 220.032 406.194 221.189L343.197 257.519C336.473 261.393 331.022 270.612 331.022 278.105C331.022 283.35 333.694 286.357 337.606 286.357C339.276 286.357 341.179 285.804 343.197 284.647L406.194 248.317C412.918 244.443 418.368 235.224 418.368 227.731C418.368 222.486 415.697 219.479 411.785 219.479Z" fill="#ECECEC"/>
<path d="M353.072 265.623C353.328 265.144 353.287 264.656 353.047 264.516C352.973 264.475 351.178 263.442 350.938 263.302C350.864 263.252 350.764 263.244 350.64 263.293L348.705 264.037L348.068 262.682C348.035 262.608 347.985 262.55 347.927 262.517C347.663 262.368 345.876 261.327 345.818 261.303C345.554 261.154 345.107 261.484 344.942 262.054L343.627 266.358C343.544 266.631 343.387 266.879 343.197 267.019L340.261 269.282C339.797 269.646 339.607 270.513 339.946 270.761L342.072 272.298C342.204 272.397 342.27 272.611 342.237 272.876L341.733 277.064C341.7 277.37 341.782 277.576 341.923 277.659C342.088 277.758 343.891 278.799 344.032 278.881C344.197 278.98 344.446 278.898 344.669 278.609L347.299 275.255C347.464 275.04 347.663 274.933 347.828 274.949L350.458 275.271C350.872 275.321 351.368 274.569 351.285 273.999L350.781 270.389C350.748 270.158 350.814 269.877 350.946 269.621L353.072 265.631V265.623Z" fill="#D268CC"/>
<path opacity="0.15" d="M353.047 264.516C352.973 264.475 352.873 264.466 352.758 264.516L349.813 265.639C349.631 265.714 349.474 265.648 349.383 265.474L348.705 264.037L350.64 263.302C350.756 263.252 350.855 263.26 350.93 263.302C351.161 263.442 352.964 264.475 353.039 264.516H353.047Z" fill="white"/>
<path opacity="0.15" d="M345.736 267.581C345.653 267.853 345.488 268.101 345.306 268.242L342.37 270.505C342.237 270.604 342.13 270.745 342.055 270.902L339.946 269.679C340.021 269.53 340.137 269.39 340.261 269.282L343.197 267.019C343.387 266.879 343.544 266.631 343.627 266.358L345.736 267.572V267.581Z" fill="white"/>
<path opacity="0.1" d="M347.944 262.533C347.679 262.36 347.224 262.699 347.051 263.277L345.736 267.581L343.627 266.358L344.942 262.054C345.115 261.493 345.554 261.154 345.818 261.311C345.876 261.344 347.654 262.376 347.927 262.525C347.927 262.525 347.936 262.525 347.944 262.533Z" fill="black"/>
<path opacity="0.25" d="M344.181 273.512L342.088 272.314C342.088 272.314 342.08 272.298 342.064 272.289L339.938 270.753C339.69 270.579 339.723 270.075 339.938 269.671L342.047 270.893C341.832 271.29 341.799 271.794 342.047 271.975L344.173 273.512H344.181Z" fill="black"/>
<path opacity="0.15" d="M343.842 278.278C343.809 278.592 343.891 278.799 344.049 278.873C344.049 278.873 344.04 278.873 344.032 278.873C343.891 278.79 342.088 277.75 341.923 277.65C341.782 277.568 341.7 277.361 341.733 277.056L342.237 272.868C342.262 272.62 342.212 272.413 342.088 272.314L344.181 273.512C344.181 273.512 344.189 273.52 344.197 273.52C344.313 273.636 344.371 273.842 344.346 274.082L343.842 278.27V278.278Z" fill="black"/>
<path d="M348.076 262.682L349.391 265.474C349.474 265.648 349.631 265.714 349.821 265.639L352.758 264.516C353.221 264.334 353.411 264.995 353.072 265.631L350.946 269.621C350.814 269.869 350.748 270.158 350.781 270.389L351.285 273.999C351.368 274.569 350.88 275.329 350.458 275.271L347.828 274.949C347.663 274.933 347.464 275.04 347.299 275.255L344.669 278.609C344.255 279.146 343.767 278.947 343.842 278.287L344.346 274.098C344.379 273.834 344.313 273.619 344.181 273.52L342.055 271.984C341.716 271.736 341.906 270.869 342.37 270.505L345.306 268.242C345.488 268.101 345.653 267.853 345.736 267.581L347.051 263.277C347.258 262.591 347.861 262.244 348.068 262.69L348.076 262.682Z" fill="#D268CC"/>
<path opacity="0.5" d="M348.076 262.682L349.391 265.474C349.474 265.648 349.631 265.714 349.821 265.639L352.758 264.516C353.221 264.334 353.411 264.995 353.072 265.631L350.946 269.621C350.814 269.869 350.748 270.158 350.781 270.389L351.285 273.999C351.368 274.569 350.88 275.329 350.458 275.271L347.828 274.949C347.663 274.933 347.464 275.04 347.299 275.255L344.669 278.609C344.255 279.146 343.767 278.947 343.842 278.287L344.346 274.098C344.379 273.834 344.313 273.619 344.181 273.52L342.055 271.984C341.716 271.736 341.906 270.869 342.37 270.505L345.306 268.242C345.488 268.101 345.653 267.853 345.736 267.581L347.051 263.277C347.258 262.591 347.861 262.244 348.068 262.69L348.076 262.682Z" fill="white"/>
<path d="M367.835 257.123C368.091 256.644 368.05 256.156 367.81 256.016C367.736 255.974 365.941 254.942 365.701 254.801C365.627 254.752 365.527 254.744 365.403 254.793L363.468 255.537L362.831 254.182C362.798 254.108 362.748 254.05 362.691 254.017C362.426 253.868 360.639 252.827 360.582 252.802C360.317 252.654 359.87 252.984 359.705 253.554L358.39 257.858C358.307 258.13 358.15 258.378 357.96 258.519L355.024 260.782C354.561 261.146 354.37 262.013 354.709 262.261L356.835 263.797C356.967 263.896 357.033 264.111 357 264.376L356.496 268.564C356.463 268.869 356.545 269.076 356.686 269.159C356.851 269.258 358.654 270.298 358.795 270.381C358.96 270.48 359.209 270.398 359.432 270.108L362.062 266.755C362.227 266.54 362.426 266.432 362.591 266.449L365.221 266.771C365.643 266.821 366.131 266.069 366.048 265.499L365.544 261.889C365.511 261.658 365.577 261.377 365.709 261.121L367.835 257.131V257.123Z" fill="#D268CC"/>
<path opacity="0.15" d="M367.81 256.016C367.736 255.974 367.636 255.966 367.521 256.016L364.576 257.139C364.394 257.214 364.237 257.147 364.146 256.974L363.468 255.537L365.403 254.801C365.519 254.752 365.618 254.76 365.693 254.801C365.924 254.942 367.727 255.974 367.802 256.016H367.81Z" fill="white"/>
<path opacity="0.15" d="M360.499 259.072C360.416 259.345 360.251 259.593 360.069 259.733L357.133 261.997C357 262.096 356.893 262.236 356.818 262.393L354.709 261.17C354.784 261.022 354.9 260.881 355.024 260.774L357.96 258.511C358.15 258.37 358.307 258.122 358.39 257.85L360.499 259.064V259.072Z" fill="white"/>
<path opacity="0.1" d="M362.707 254.033C362.443 253.86 361.988 254.198 361.814 254.777L360.499 259.08L358.39 257.858L359.705 253.554C359.879 252.992 360.317 252.654 360.582 252.811C360.639 252.844 362.418 253.876 362.691 254.025C362.691 254.025 362.699 254.025 362.707 254.033Z" fill="black"/>
<path opacity="0.25" d="M358.944 265.012L356.851 263.814C356.851 263.814 356.843 263.797 356.827 263.789L354.701 262.253C354.453 262.079 354.486 261.575 354.701 261.17L356.81 262.393C356.595 262.79 356.562 263.293 356.81 263.475L358.936 265.012H358.944Z" fill="black"/>
<path opacity="0.15" d="M358.605 269.778C358.572 270.092 358.655 270.298 358.812 270.373C358.812 270.373 358.803 270.373 358.795 270.373C358.655 270.29 356.852 269.249 356.686 269.15C356.546 269.068 356.463 268.861 356.496 268.555L357 264.367C357.025 264.119 356.976 263.913 356.852 263.814L358.944 265.012C358.944 265.012 358.952 265.02 358.961 265.02C359.076 265.136 359.134 265.342 359.109 265.582L358.605 269.77V269.778Z" fill="black"/>
<path d="M362.831 254.182L364.146 256.974C364.229 257.147 364.386 257.214 364.576 257.139L367.512 256.016C367.976 255.834 368.166 256.495 367.827 257.131L365.701 261.121C365.569 261.369 365.503 261.658 365.536 261.889L366.04 265.499C366.123 266.069 365.635 266.829 365.213 266.771L362.583 266.449C362.418 266.432 362.219 266.54 362.054 266.755L359.424 270.108C359.002 270.645 358.514 270.447 358.597 269.786L359.101 265.598C359.134 265.334 359.068 265.119 358.936 265.02L356.81 263.483C356.471 263.236 356.661 262.368 357.125 262.005L360.061 259.741C360.243 259.601 360.408 259.353 360.491 259.08L361.806 254.777C362.012 254.091 362.616 253.744 362.823 254.19L362.831 254.182Z" fill="#D268CC"/>
<path opacity="0.5" d="M362.831 254.182L364.146 256.974C364.229 257.147 364.386 257.214 364.576 257.139L367.512 256.016C367.976 255.834 368.166 256.495 367.827 257.131L365.701 261.121C365.569 261.369 365.503 261.658 365.536 261.889L366.04 265.499C366.123 266.069 365.635 266.829 365.213 266.771L362.583 266.449C362.418 266.432 362.219 266.54 362.054 266.755L359.424 270.108C359.002 270.645 358.514 270.447 358.597 269.786L359.101 265.598C359.134 265.334 359.068 265.119 358.936 265.02L356.81 263.483C356.471 263.236 356.661 262.368 357.125 262.005L360.061 259.741C360.243 259.601 360.408 259.353 360.491 259.08L361.806 254.777C362.012 254.091 362.616 253.744 362.823 254.19L362.831 254.182Z" fill="white"/>
<path d="M382.598 248.622C382.854 248.143 382.813 247.656 382.573 247.516C382.499 247.474 380.704 246.442 380.464 246.301C380.39 246.252 380.29 246.243 380.166 246.293L378.231 247.036L377.594 245.682C377.561 245.607 377.511 245.549 377.454 245.516C377.189 245.368 375.402 244.327 375.345 244.302C375.08 244.153 374.633 244.484 374.468 245.054L373.153 249.358C373.07 249.63 372.913 249.878 372.723 250.019L369.787 252.282C369.324 252.645 369.133 253.513 369.472 253.761L371.598 255.297C371.73 255.396 371.796 255.611 371.763 255.875L371.259 260.063C371.226 260.369 371.309 260.576 371.449 260.658C371.615 260.757 373.418 261.798 373.558 261.881C373.724 261.98 373.972 261.897 374.195 261.608L376.825 258.254C376.99 258.04 377.189 257.932 377.354 257.949L379.984 258.271C380.398 258.32 380.894 257.569 380.811 256.999L380.307 253.389C380.274 253.158 380.34 252.877 380.472 252.621L382.598 248.631V248.622Z" fill="#D268CC"/>
<path opacity="0.15" d="M382.573 247.516C382.499 247.474 382.399 247.466 382.284 247.516L379.339 248.639C379.157 248.713 379 248.647 378.909 248.474L378.231 247.036L380.166 246.301C380.282 246.252 380.381 246.26 380.456 246.301C380.687 246.442 382.49 247.474 382.565 247.516H382.573Z" fill="white"/>
<path opacity="0.15" d="M375.262 250.572C375.179 250.845 375.014 251.092 374.832 251.233L371.896 253.496C371.763 253.595 371.656 253.736 371.581 253.893L369.472 252.67C369.547 252.521 369.663 252.381 369.787 252.274L372.723 250.01C372.913 249.87 373.07 249.622 373.153 249.349L375.262 250.564V250.572Z" fill="white"/>
<path opacity="0.1" d="M377.47 245.533C377.205 245.359 376.751 245.698 376.577 246.276L375.262 250.58L373.153 249.358L374.468 245.054C374.642 244.492 375.08 244.153 375.345 244.31C375.402 244.343 377.181 245.376 377.454 245.525C377.454 245.525 377.462 245.525 377.47 245.533Z" fill="black"/>
<path opacity="0.25" d="M373.699 256.511L371.606 255.314C371.606 255.314 371.598 255.297 371.581 255.289L369.456 253.752C369.208 253.579 369.241 253.075 369.456 252.67L371.565 253.893C371.35 254.289 371.317 254.793 371.565 254.975L373.69 256.511H373.699Z" fill="black"/>
<path opacity="0.15" d="M373.368 261.278C373.335 261.592 373.417 261.798 373.575 261.873C373.575 261.873 373.566 261.873 373.558 261.873C373.417 261.79 371.614 260.749 371.449 260.65C371.308 260.567 371.226 260.361 371.259 260.055L371.763 255.867C371.788 255.619 371.739 255.413 371.614 255.314L373.707 256.511C373.707 256.511 373.715 256.52 373.723 256.52C373.839 256.635 373.897 256.842 373.872 257.09L373.368 261.278Z" fill="black"/>
<path d="M377.594 245.682L378.909 248.474C378.992 248.647 379.149 248.713 379.339 248.639L382.275 247.516C382.739 247.334 382.929 247.995 382.59 248.631L380.464 252.621C380.332 252.868 380.266 253.158 380.299 253.389L380.803 256.999C380.886 257.569 380.398 258.329 379.976 258.271L377.346 257.949C377.181 257.932 376.982 258.04 376.817 258.254L374.187 261.608C373.765 262.145 373.277 261.947 373.36 261.286L373.864 257.098C373.897 256.834 373.831 256.619 373.699 256.52L371.573 254.983C371.234 254.735 371.424 253.868 371.887 253.505L374.824 251.241C375.005 251.101 375.171 250.853 375.254 250.58L376.569 246.276C376.775 245.591 377.379 245.244 377.586 245.69L377.594 245.682Z" fill="#D268CC"/>
<path opacity="0.5" d="M377.594 245.682L378.909 248.474C378.992 248.647 379.149 248.713 379.339 248.639L382.275 247.516C382.739 247.334 382.929 247.995 382.59 248.631L380.464 252.621C380.332 252.868 380.266 253.158 380.299 253.389L380.803 256.999C380.886 257.569 380.398 258.329 379.976 258.271L377.346 257.949C377.181 257.932 376.982 258.04 376.817 258.254L374.187 261.608C373.765 262.145 373.277 261.947 373.36 261.286L373.864 257.098C373.897 256.834 373.831 256.619 373.699 256.52L371.573 254.983C371.234 254.735 371.424 253.868 371.887 253.505L374.824 251.241C375.005 251.101 375.171 250.853 375.254 250.58L376.569 246.276C376.775 245.591 377.379 245.244 377.586 245.69L377.594 245.682Z" fill="white"/>
<path d="M397.353 240.122C397.609 239.643 397.568 239.156 397.328 239.015C397.253 238.974 395.459 237.941 395.219 237.801C395.144 237.751 395.045 237.743 394.921 237.793L392.986 238.536L392.349 237.181C392.316 237.107 392.266 237.049 392.208 237.016C391.944 236.867 390.157 235.827 390.099 235.802C389.835 235.653 389.388 235.984 389.223 236.554L387.908 240.857C387.825 241.13 387.668 241.378 387.478 241.518L384.541 243.782C384.078 244.145 383.888 245.012 384.227 245.26L386.353 246.797C386.485 246.896 386.551 247.111 386.518 247.375L386.014 251.563C385.981 251.869 386.063 252.075 386.204 252.158C386.369 252.257 388.172 253.298 388.313 253.381C388.478 253.48 388.726 253.397 388.95 253.108L391.58 249.754C391.745 249.539 391.944 249.432 392.109 249.448L394.739 249.771C395.161 249.82 395.649 249.068 395.566 248.498L395.062 244.889C395.029 244.657 395.095 244.376 395.227 244.12L397.353 240.13V240.122Z" fill="#D268CC"/>
<path opacity="0.15" d="M397.328 239.015C397.253 238.974 397.154 238.966 397.038 239.015L394.094 240.139C393.912 240.213 393.755 240.147 393.664 239.973L392.986 238.536L394.921 237.801C395.037 237.751 395.136 237.76 395.211 237.801C395.442 237.941 397.245 238.974 397.32 239.015H397.328Z" fill="white"/>
<path opacity="0.15" d="M390.025 242.072C389.942 242.344 389.777 242.592 389.595 242.733L386.659 244.996C386.526 245.095 386.419 245.236 386.344 245.393L384.235 244.17C384.31 244.021 384.426 243.881 384.55 243.773L387.486 241.51C387.676 241.37 387.833 241.122 387.916 240.849L390.025 242.063V242.072Z" fill="white"/>
<path opacity="0.1" d="M392.233 237.024C391.969 236.851 391.514 237.19 391.34 237.768L390.025 242.072L387.916 240.849L389.231 236.545C389.405 235.984 389.843 235.645 390.108 235.794C390.165 235.827 391.944 236.859 392.217 237.008C392.217 237.008 392.225 237.008 392.233 237.016V237.024Z" fill="black"/>
<path opacity="0.25" d="M388.462 248.011L386.369 246.813C386.369 246.813 386.361 246.797 386.345 246.789L384.219 245.252C383.971 245.079 384.004 244.575 384.219 244.17L386.328 245.393C386.113 245.789 386.08 246.293 386.328 246.475L388.454 248.011H388.462Z" fill="black"/>
<path opacity="0.15" d="M388.123 252.778C388.09 253.091 388.172 253.298 388.33 253.372C388.33 253.372 388.321 253.372 388.313 253.372C388.172 253.29 386.369 252.249 386.204 252.15C386.063 252.067 385.981 251.861 386.014 251.555L386.518 247.367C386.543 247.119 386.493 246.912 386.369 246.813L388.462 248.011C388.462 248.011 388.47 248.019 388.478 248.019C388.594 248.135 388.652 248.342 388.627 248.581L388.123 252.769V252.778Z" fill="black"/>
<path d="M392.357 237.181L393.672 239.974C393.755 240.147 393.912 240.213 394.102 240.139L397.038 239.015C397.502 238.834 397.692 239.494 397.353 240.122L395.227 244.112C395.095 244.36 395.029 244.649 395.062 244.88L395.566 248.49C395.649 249.06 395.161 249.82 394.739 249.762L392.109 249.44C391.944 249.424 391.745 249.531 391.58 249.746L388.95 253.1C388.536 253.637 388.04 253.438 388.123 252.778L388.627 248.589C388.66 248.325 388.594 248.11 388.462 248.011L386.336 246.475C385.997 246.227 386.187 245.359 386.651 244.996L389.587 242.733C389.769 242.592 389.934 242.344 390.017 242.072L391.332 237.768C391.538 237.082 392.142 236.735 392.349 237.181H392.357Z" fill="#D268CC"/>
<path opacity="0.5" d="M392.357 237.181L393.672 239.974C393.755 240.147 393.912 240.213 394.102 240.139L397.038 239.015C397.502 238.834 397.692 239.494 397.353 240.122L395.227 244.112C395.095 244.36 395.029 244.649 395.062 244.88L395.566 248.49C395.649 249.06 395.161 249.82 394.739 249.762L392.109 249.44C391.944 249.424 391.745 249.531 391.58 249.746L388.95 253.1C388.536 253.637 388.04 253.438 388.123 252.778L388.627 248.589C388.66 248.325 388.594 248.11 388.462 248.011L386.336 246.475C385.997 246.227 386.187 245.359 386.651 244.996L389.587 242.733C389.769 242.592 389.934 242.344 390.017 242.072L391.332 237.768C391.538 237.082 392.142 236.735 392.349 237.181H392.357Z" fill="white"/>
<path d="M412.116 231.622C412.372 231.143 412.331 230.655 412.091 230.515C412.017 230.474 410.222 229.441 409.982 229.301C409.908 229.251 409.808 229.243 409.684 229.292L407.749 230.036L407.112 228.681C407.079 228.607 407.029 228.549 406.971 228.516C406.707 228.367 404.92 227.326 404.862 227.302C404.598 227.153 404.151 227.483 403.986 228.053L402.671 232.357C402.588 232.63 402.431 232.878 402.241 233.018L399.305 235.281C398.841 235.645 398.651 236.512 398.99 236.76L401.116 238.297C401.248 238.396 401.314 238.61 401.281 238.875L400.777 243.063C400.744 243.369 400.826 243.575 400.967 243.658C401.132 243.757 402.935 244.798 403.076 244.88C403.241 244.979 403.489 244.897 403.713 244.608L406.343 241.254C406.508 241.039 406.707 240.932 406.872 240.948L409.502 241.27C409.924 241.32 410.412 240.568 410.329 239.998L409.825 236.388C409.792 236.157 409.858 235.876 409.99 235.62L412.116 231.63V231.622Z" fill="#D268CC"/>
<path opacity="0.15" d="M412.091 230.515C412.017 230.474 411.917 230.465 411.802 230.515L408.857 231.638C408.675 231.713 408.518 231.647 408.427 231.473L407.749 230.036L409.684 229.301C409.8 229.251 409.899 229.259 409.974 229.301C410.205 229.441 412.008 230.474 412.083 230.515H412.091Z" fill="white"/>
<path opacity="0.15" d="M404.788 233.571C404.705 233.844 404.54 234.092 404.358 234.232L401.422 236.496C401.29 236.595 401.182 236.735 401.108 236.892L398.999 235.67C399.073 235.521 399.189 235.381 399.313 235.273L402.249 233.01C402.439 232.869 402.596 232.621 402.679 232.349L404.788 233.563V233.571Z" fill="white"/>
<path opacity="0.1" d="M406.996 228.524C406.732 228.351 406.277 228.689 406.103 229.268L404.788 233.571L402.679 232.349L403.994 228.045C404.168 227.483 404.606 227.145 404.871 227.293C404.929 227.326 406.707 228.359 406.98 228.508C406.98 228.508 406.988 228.508 406.996 228.516V228.524Z" fill="black"/>
<path opacity="0.25" d="M403.225 239.511L401.132 238.313C401.132 238.313 401.124 238.297 401.108 238.288L398.982 236.752C398.734 236.578 398.767 236.074 398.982 235.67L401.091 236.892C400.876 237.289 400.843 237.793 401.091 237.974L403.217 239.511H403.225Z" fill="black"/>
<path opacity="0.15" d="M402.886 244.277C402.853 244.591 402.935 244.798 403.093 244.872C403.093 244.872 403.084 244.872 403.076 244.872C402.935 244.789 401.132 243.749 400.967 243.65C400.826 243.567 400.744 243.36 400.777 243.055L401.281 238.867C401.306 238.619 401.256 238.412 401.132 238.313L403.225 239.511C403.225 239.511 403.233 239.519 403.241 239.519C403.357 239.635 403.415 239.841 403.39 240.081L402.886 244.269V244.277Z" fill="black"/>
<path d="M407.12 228.681L408.435 231.473C408.518 231.647 408.675 231.713 408.865 231.638L411.801 230.515C412.265 230.333 412.455 230.994 412.116 231.63L409.99 235.62C409.858 235.868 409.792 236.157 409.825 236.388L410.329 239.998C410.412 240.568 409.924 241.328 409.502 241.27L406.872 240.948C406.707 240.932 406.508 241.039 406.343 241.254L403.713 244.608C403.299 245.145 402.803 244.946 402.886 244.286L403.39 240.097C403.423 239.833 403.357 239.618 403.225 239.519L401.099 237.983C400.76 237.735 400.95 236.867 401.414 236.504L404.35 234.241C404.532 234.1 404.697 233.852 404.78 233.58L406.095 229.276C406.302 228.59 406.905 228.243 407.112 228.689L407.12 228.681Z" fill="#D268CC"/>
<path opacity="0.5" d="M407.12 228.681L408.435 231.473C408.518 231.647 408.675 231.713 408.865 231.638L411.801 230.515C412.265 230.333 412.455 230.994 412.116 231.63L409.99 235.62C409.858 235.868 409.792 236.157 409.825 236.388L410.329 239.998C410.412 240.568 409.924 241.328 409.502 241.27L406.872 240.948C406.707 240.932 406.508 241.039 406.343 241.254L403.713 244.608C403.299 245.145 402.803 244.946 402.886 244.286L403.39 240.097C403.423 239.833 403.357 239.618 403.225 239.519L401.099 237.983C400.76 237.735 400.95 236.867 401.414 236.504L404.35 234.241C404.532 234.1 404.697 233.852 404.78 233.58L406.095 229.276C406.302 228.59 406.905 228.243 407.112 228.689L407.12 228.681Z" fill="white"/>
<path d="M417.748 27.3929L411.14 30.2181L409.726 37.2644C409.552 38.1318 408.46 38.4209 407.881 37.7518L403.142 32.3493L395.996 33.1836C395.12 33.2828 394.508 32.3411 394.963 31.5811L398.643 25.4103L395.641 18.8844C395.277 18.0831 395.98 17.2075 396.84 17.4057L403.854 19L409.147 14.1345C409.792 13.5397 410.85 13.9445 410.925 14.8201L411.578 21.9739L417.847 25.4929C418.617 25.9225 418.559 27.046 417.748 27.3929Z" fill="#E1E1E1"/>
<path d="M381.283 15.1836C381.225 15.2579 381.159 15.324 381.085 15.3819C380.795 15.5884 380.423 15.6214 380.109 15.4562L376.42 13.5232L372.731 15.4562C372.417 15.6214 372.045 15.5966 371.755 15.3819C371.466 15.1753 371.325 14.8284 371.383 14.4732L372.086 10.3759L369.109 7.47638C368.852 7.22856 368.761 6.86509 368.877 6.5264C368.985 6.18771 369.274 5.94815 369.621 5.89859L373.74 5.29556L375.585 1.56999C375.742 1.25608 376.056 1.05782 376.412 1.05782C376.767 1.05782 377.082 1.25608 377.239 1.56999L379.083 5.29556L383.202 5.89033C383.549 5.93989 383.839 6.17945 383.946 6.51814C384.054 6.85683 383.963 7.2203 383.715 7.46812L380.737 10.3676L381.44 14.4649C381.482 14.721 381.424 14.9688 381.275 15.1671L381.283 15.1836ZM369.481 6.60901C369.481 6.60901 369.439 6.67509 369.431 6.70813C369.39 6.84031 369.423 6.97248 369.522 7.07161L372.723 10.1859L371.97 14.5806C371.945 14.7127 372.003 14.8449 372.111 14.9275C372.218 15.0101 372.359 15.0184 372.483 14.9523L376.436 12.8789L380.39 14.9523C380.514 15.0184 380.646 15.0101 380.762 14.9275C380.878 14.8532 380.927 14.721 380.903 14.5806L380.15 10.1859L383.351 7.07161C383.442 6.98074 383.483 6.84031 383.442 6.7164C383.4 6.58422 383.293 6.50162 383.16 6.47684L378.744 5.8325L376.767 1.83433C376.709 1.71042 376.585 1.63607 376.453 1.63607C376.312 1.63607 376.205 1.71042 376.139 1.83433L374.162 5.8325L369.746 6.47684C369.646 6.49336 369.572 6.54292 369.514 6.60901H369.481Z" fill="#E1E1E1"/>
<path d="M335.224 70.3815C328.996 66.7799 320.428 67.2672 310.974 72.7193C291.935 83.6978 276.494 110.611 276.494 132.824C276.494 144.001 280.414 151.84 286.725 155.483C288.181 156.326 293.912 159.589 293.904 159.622C293.275 163.901 291.489 168.411 285.873 171.732C285.509 171.947 285.741 172.294 286.055 172.484C286.187 172.558 294.474 177.341 294.797 177.523C294.929 177.597 295.07 177.647 295.194 177.647C303.795 177.663 313.77 171.872 316.541 159.845C317.583 159.357 318.633 158.812 319.7 158.201C338.739 147.222 354.18 120.309 354.18 98.0961C354.18 86.9194 350.268 79.0635 343.958 75.4123C342.485 74.5614 336.671 71.2241 335.224 70.3815Z" fill="#2B454E"/>
<path d="M319.708 77.7583C300.669 88.7368 285.228 115.65 285.228 137.863C285.228 152.931 292.341 161.96 302.853 162.786C302.464 167.577 301.058 172.963 294.607 176.771C294.094 177.068 294.764 177.647 295.194 177.647C303.795 177.663 313.77 171.872 316.541 159.845C317.583 159.357 318.633 158.812 319.7 158.201C338.739 147.222 354.18 120.309 354.18 98.0961C354.18 75.8831 338.747 66.7799 319.7 77.7583H319.708Z" fill="#375A64"/>
<path d="M294.607 176.763C294.293 176.953 294.433 177.242 294.69 177.448C293.656 176.862 286.179 172.558 286.063 172.475C285.741 172.285 285.517 171.938 285.881 171.724C291.505 168.411 293.284 163.893 293.912 159.613L294.872 160.175L295.74 160.687C297.866 161.869 300.256 162.563 302.853 162.769C302.464 167.552 301.058 172.946 294.607 176.754V176.763Z" fill="#1A2E35"/>
<path d="M316.069 141.333C315.143 140.68 314.688 139.507 314.688 137.814C314.688 136.12 315.143 134.443 316.044 132.783C316.946 131.122 318.104 129.883 319.51 129.074C320.916 128.264 322.074 128.165 322.975 128.785C323.877 129.404 324.331 130.561 324.331 132.254C324.331 133.948 323.868 135.657 322.95 137.367C322.032 139.077 320.883 140.333 319.51 141.126C318.137 141.919 316.987 141.993 316.069 141.341V141.333ZM314.837 96.4275L324.191 91.0332L322.628 122.523L316.4 126.116L314.837 96.4275Z" fill="#FAFAFA"/>
<path opacity="0.2" d="M324.307 155.169C334.463 147.735 343.213 135.955 348.581 123.299C338.425 130.734 329.674 142.514 324.307 155.169Z" fill="black"/>
<path d="M389.248 198.216C385.733 198.249 383.111 195.795 381.465 192.698C392.018 179.737 399.156 162.472 399.156 147.371C399.156 136.17 395.227 128.314 388.9 124.671C387.436 123.828 381.639 120.491 380.175 119.648C373.947 116.055 365.395 116.551 355.942 122.003C336.903 132.981 321.462 159.894 321.462 182.107C321.462 193.284 325.374 201.14 331.684 204.783C333.156 205.634 338.954 208.955 340.393 209.797C346.621 213.424 355.206 212.945 364.676 207.476C367.149 206.055 369.555 204.353 371.879 202.437C378.289 207.501 386.097 201.983 389.19 199.339C389.603 198.984 389.653 198.207 389.264 198.216H389.248Z" fill="#E1E1E1"/>
<path d="M349.408 211.598C337.887 211.598 330.725 202.23 330.725 187.146C330.725 165.14 346.075 138.384 364.94 127.512C370.217 124.473 375.262 122.928 379.935 122.928C391.456 122.928 398.618 132.295 398.618 147.388C398.618 162.48 391.886 179.059 381.051 192.375L380.828 192.648L380.993 192.962C382.937 196.621 385.757 198.67 388.95 198.761C388.925 198.827 388.884 198.893 388.834 198.943C386.634 200.818 382.267 203.973 377.743 203.973C375.709 203.973 373.848 203.321 372.21 202.024L371.871 201.751L371.532 202.024C369.191 203.957 366.793 205.634 364.403 207.013C359.126 210.053 354.081 211.598 349.408 211.598Z" fill="#FAFAFA"/>
<path d="M379.927 122.383V123.456C391.117 123.456 398.072 132.626 398.072 147.379C398.072 162.133 391.39 178.803 380.63 192.028L380.183 192.582L380.514 193.21C382.3 196.58 384.823 198.654 387.709 199.174C385.41 201 381.614 203.436 377.735 203.436C375.824 203.436 374.071 202.817 372.541 201.603L371.863 201.066L371.193 201.619C368.869 203.536 366.495 205.196 364.138 206.551C358.944 209.541 353.99 211.061 349.416 211.061C338.226 211.061 331.27 201.892 331.27 187.138C331.27 165.305 346.497 138.755 365.213 127.967C370.407 124.976 375.361 123.456 379.935 123.456V122.383M379.935 122.383C375.336 122.383 370.151 123.878 364.676 127.042C345.637 138.02 330.195 164.933 330.195 187.146C330.195 202.966 338.028 212.135 349.416 212.135C354.015 212.135 359.2 210.64 364.676 207.476C367.148 206.055 369.555 204.353 371.879 202.437C373.765 203.924 375.775 204.502 377.743 204.502C382.474 204.502 387.006 201.206 389.19 199.339C389.603 198.984 389.653 198.216 389.264 198.216C389.264 198.216 389.215 198.216 389.19 198.216C385.708 198.216 383.119 195.771 381.481 192.698C392.035 179.737 399.172 162.472 399.172 147.371C399.172 132.271 391.34 122.383 379.951 122.383H379.935Z" fill="#D268CC"/>
<path d="M362.914 171.038C363.7 169.064 364.849 166.734 366.354 164.033C367.463 162.059 368.273 160.464 368.794 159.25C369.315 158.036 369.572 156.846 369.572 155.69C369.572 154.038 369.076 153.021 368.091 152.633C367.107 152.245 365.784 152.526 364.146 153.468C362.575 154.376 361.169 155.615 359.953 157.193C358.729 158.771 357.703 160.58 356.86 162.62L350.781 161.373C352.187 157.705 354.089 154.401 356.488 151.46C358.886 148.519 361.723 146.099 365.006 144.207C368.86 141.985 371.954 141.3 374.278 142.142C376.61 142.985 377.768 145.347 377.768 149.23C377.768 151.064 377.545 152.798 377.09 154.442C376.635 156.086 376.081 157.581 375.427 158.911C374.774 160.25 373.93 161.844 372.888 163.686C371.648 165.875 370.746 167.635 370.176 168.965C369.605 170.295 369.324 171.674 369.324 173.103L361.731 177.481C361.731 175.16 362.128 173.012 362.914 171.046V171.038ZM362.112 192.285C361.194 191.632 360.73 190.459 360.73 188.765C360.73 187.072 361.185 185.395 362.087 183.735C362.988 182.074 364.146 180.843 365.552 180.026C366.958 179.216 368.116 179.117 369.018 179.737C369.919 180.348 370.374 181.513 370.374 183.206C370.374 184.899 369.911 186.609 368.993 188.319C368.075 190.038 366.925 191.285 365.552 192.078C364.179 192.871 363.03 192.945 362.112 192.293V192.285Z" fill="#375A64"/>
<path d="M188.205 133.411L150.16 155.417L165.271 181.075C165.601 181.81 166.114 182.347 166.718 182.694C168.521 183.718 179.198 189.889 179.786 190.228C181.589 191.268 184.202 190.533 184.889 188.195L201.297 140.961L188.205 133.411Z" fill="#D268CC"/>
<path opacity="0.2" d="M188.205 133.411L150.16 155.417L165.271 181.075C165.601 181.81 166.114 182.347 166.718 182.694C168.521 183.718 179.198 189.889 179.786 190.228C181.589 191.268 184.202 190.533 184.889 188.195L201.297 140.961L188.205 133.411Z" fill="black"/>
<path d="M163.253 162.967L178.363 188.625C179.678 191.582 183.97 191.302 184.889 188.195L201.297 140.961L163.253 162.967Z" fill="#D268CC"/>
<path d="M230.65 1.80109L87.1792 84.5319C85.3596 85.581 83.8875 88.1336 83.8875 90.2318V189.69C83.8875 191.789 85.3679 194.325 87.1957 195.357L98.9896 201.966C100.817 202.998 103.778 202.982 105.598 201.933L249.068 119.202C250.888 118.153 252.36 115.6 252.36 113.502V14.0434C252.36 11.9452 250.88 9.40919 249.052 8.3766L237.25 1.76805C235.422 0.73546 232.461 0.751982 230.641 1.80109H230.65Z" fill="#D268CC"/>
<path opacity="0.3" d="M252.319 13.4406C252.063 11.7802 250.706 11.1937 249.06 12.1354L105.606 94.8745C104.697 95.4032 103.87 96.3036 103.282 97.3362L84.9215 86.8781C85.517 85.8868 86.3027 85.036 87.1877 84.5404L230.658 1.79303C232.47 0.743918 235.422 0.727396 237.258 1.75998L249.052 8.36027C250.715 9.30199 252.096 11.4746 252.319 13.4323V13.4406Z" fill="white"/>
<path d="M102.306 200.405V100.946C102.306 98.8479 103.779 96.2953 105.598 95.2462L249.077 12.5237C250.896 11.4746 252.369 12.3254 252.369 14.4236V113.882C252.369 115.981 250.896 118.533 249.077 119.582L105.606 202.313C103.787 203.362 102.315 202.511 102.315 200.413L102.306 200.405Z" fill="#D268CC"/>
<path opacity="0.2" d="M105.598 201.925C103.845 202.941 100.644 202.974 98.9898 201.966L87.1959 195.349C85.3681 194.333 83.8794 191.797 83.8794 189.699V90.232C83.8794 89.1416 84.2929 87.9355 84.9298 86.8781L103.274 97.3362C102.662 98.3522 102.298 99.5252 102.298 100.574V200.025C102.298 201.95 103.654 203.056 105.59 201.933L105.598 201.925Z" fill="black"/>
<path d="M142.559 120.788L141.12 119.962C140.004 119.318 138.639 119.318 137.523 119.962L128.789 125.001V113.065L144.966 103.73C146.521 102.83 147.481 101.169 147.481 99.3766V92.6854C147.481 90.8846 146.521 89.2242 144.958 88.332C143.403 87.4316 141.484 87.4316 139.921 88.332L117.483 101.277C114.778 102.838 113.108 105.721 113.108 108.835V170.947C113.108 172.748 114.067 174.408 115.63 175.301C117.185 176.201 119.104 176.201 120.667 175.301L126.266 172.071C127.821 171.17 128.781 169.51 128.781 167.717V143.356L142.551 135.418C143.668 134.774 144.354 133.592 144.354 132.304V123.903C144.354 122.622 143.668 121.433 142.551 120.788H142.559Z" fill="#E1E1E1"/>
<path opacity="0.1" d="M121.155 175.011L120.675 175.292C119.898 175.747 119.021 175.97 118.153 175.97C117.284 175.97 116.416 175.747 115.639 175.292C114.075 174.4 113.116 172.731 113.116 170.939V108.827C113.116 107.356 113.497 105.952 114.166 104.705L119.203 107.604C118.525 108.852 118.153 110.264 118.153 111.726V173.26C118.153 174.797 119.824 175.771 121.155 175.011Z" fill="black"/>
<path d="M128.789 113.056V130.8L142.535 122.87C143.345 122.399 144.354 122.986 144.354 123.919V132.304C144.354 133.584 143.668 134.765 142.568 135.401L128.789 143.348V167.717C128.789 169.51 127.829 171.17 126.275 172.062L121.18 175.003C119.832 175.78 118.153 174.813 118.153 173.26V111.735C118.153 108.612 119.815 105.729 122.528 104.176L144.759 91.3554C145.975 90.6533 147.489 91.5289 147.489 92.9332V99.4013C147.489 101.186 146.538 102.838 144.991 103.73L128.789 113.073V113.056Z" fill="#FAFAFA"/>
<path d="M176.8 75.5362C176.37 74.0741 175.394 72.8267 174.071 72.0667C173.144 71.538 172.119 71.2737 171.093 71.2737C170.068 71.2737 169.042 71.538 168.116 72.0667L162.55 75.2801C161.102 76.1145 160.068 77.5188 159.713 79.1544L143.122 154.608C142.832 155.929 143.436 157.276 144.602 157.953L146.124 158.829C147.084 159.382 148.266 159.382 149.226 158.829L155.933 154.963C156.802 154.459 157.538 153.674 158.133 152.608C158.729 151.551 159.142 150.502 159.365 149.469L162.062 135.707L175.625 127.884L177.031 133.477C177.329 134.336 177.751 134.931 178.313 135.261C178.876 135.591 182.788 137.83 183.35 138.169C183.913 138.499 184.657 138.4 185.575 137.871L193.763 133.146L176.8 75.5362ZM165.775 116.699L168.686 101.731C168.744 101.475 168.802 101.21 168.86 100.938L171.937 113.139L165.775 116.699Z" fill="#E1E1E1"/>
<path opacity="0.1" d="M183.284 138.127C182.548 137.69 178.859 135.583 178.313 135.261C177.751 134.931 177.329 134.336 177.031 133.477L175.625 127.884L179.38 125.72L182.068 136.376C182.358 137.202 182.755 137.781 183.284 138.127Z" fill="black"/>
<path opacity="0.1" d="M176.974 116.047L171.937 113.139L168.86 100.938C168.86 100.938 168.86 100.897 168.86 100.88C169.125 99.6905 169.389 98.3357 169.679 96.8323C170.035 94.9571 170.365 92.958 170.68 90.8185C171.035 92.5367 171.391 94.1228 171.747 95.5684C172.102 97.014 172.433 98.2531 172.747 99.294L176.965 116.047H176.974Z" fill="black"/>
<path opacity="0.1" d="M148.25 157.111C148.051 158.011 148.903 158.738 149.714 158.498L149.697 158.564L149.226 158.829C148.266 159.382 147.084 159.382 146.124 158.829L144.602 157.953C143.436 157.276 142.832 155.929 143.122 154.608L159.713 79.1544C159.862 78.4522 160.151 77.7914 160.54 77.1966L165.577 80.1044C165.18 80.6909 164.898 81.3517 164.75 82.0539L148.25 157.111Z" fill="black"/>
<path d="M193.771 133.146L185.575 137.871C184.657 138.4 183.921 138.499 183.359 138.169C182.796 137.838 182.366 137.244 182.077 136.384L179.389 125.72L162.062 135.707L159.374 149.469C159.142 150.502 158.737 151.543 158.141 152.608C157.546 153.674 156.81 154.459 155.933 154.963L150.003 158.383C149.11 158.895 148.035 158.11 148.258 157.102L164.758 82.0456C165.114 80.41 166.147 79.0057 167.595 78.1714L172.946 75.0901C174.575 74.1484 176.651 74.9827 177.18 76.7836L193.771 133.138V133.146ZM176.982 116.047L172.764 99.294C172.45 98.2614 172.119 97.014 171.763 95.5684C171.407 94.1228 171.052 92.5367 170.696 90.8185C170.382 92.958 170.051 94.9571 169.695 96.8323C169.34 98.7074 169.009 100.343 168.695 101.739L164.501 123.242L176.982 116.047Z" fill="#FAFAFA"/>
<path d="M232.974 104.283C234.388 101.863 235.654 99.294 236.77 96.5679C237.887 93.8419 238.821 91.0333 239.582 88.1585C240.343 85.2838 240.93 82.343 241.336 79.3361C241.741 76.3292 241.948 73.3223 241.948 70.3072C241.948 65.2764 241.377 60.9065 240.244 57.1975C239.103 53.4967 237.506 50.6385 235.447 48.6229C234.703 47.9042 233.917 47.3012 233.065 46.8221C232.238 46.3512 228.921 44.4264 228.103 43.9556C226.564 43.0552 224.844 42.5513 222.95 42.4439C220.039 42.2787 216.813 43.2204 213.273 45.2608C209.725 47.3012 206.491 50.0768 203.58 53.5876C200.661 57.0983 198.163 61.0552 196.087 65.4582C194.011 69.8611 192.407 74.5697 191.273 79.5839C190.132 84.5982 189.57 89.6372 189.57 94.701C189.57 99.7648 190.132 104.151 191.273 107.86C192.407 111.561 194.011 114.428 196.087 116.451C196.831 117.187 197.642 117.79 198.494 118.269C199.312 118.731 202.588 120.631 203.398 121.102C204.953 122.011 206.69 122.515 208.617 122.614C211.528 122.754 214.762 121.804 218.31 119.764C219.815 118.897 221.246 117.905 222.603 116.79L224.654 119.144C224.96 119.45 225.274 119.698 225.597 119.88C226.176 120.218 230.294 122.581 230.609 122.771C231.196 123.118 231.808 123.266 232.453 123.217C233.445 123.143 234.57 122.746 235.819 122.019L244.511 117.013L232.974 104.283ZM225.216 83.5491C224.629 86.6551 223.794 89.4885 222.694 92.0411C221.602 94.6019 220.262 96.8405 218.682 98.757C217.094 100.682 215.291 102.226 213.273 103.391C211.396 104.482 209.709 105.019 208.212 105.027C207.409 103.813 206.773 102.227 206.301 100.26C205.714 97.8236 205.424 94.8662 205.424 91.372C205.424 87.8777 205.714 84.623 206.301 81.5087C206.88 78.4027 207.724 75.5693 208.815 73.0167C209.907 70.4641 211.255 68.209 212.852 66.2677C214.448 64.3182 216.267 62.7569 218.31 61.5756C220.146 60.5183 221.8 59.9896 223.281 59.9896C224.091 61.2122 224.736 62.8147 225.216 64.7973C225.795 67.2342 226.093 70.1833 226.093 73.6445C226.093 77.1057 225.795 80.4348 225.216 83.5491Z" fill="#E1E1E1"/>
<path opacity="0.1" d="M203.191 120.978C202.141 120.375 199.255 118.698 198.494 118.269C197.642 117.79 196.831 117.187 196.087 116.451C194.011 114.428 192.407 111.561 191.273 107.86C190.132 104.151 189.57 99.7648 189.57 94.701C189.57 89.6372 190.132 84.5982 191.273 79.5839C192.324 74.9414 193.779 70.5633 195.64 66.4412L200.677 69.349C198.816 73.4628 197.361 77.8409 196.31 82.4917C195.169 87.506 194.607 92.545 194.607 97.6088C194.607 102.673 195.169 107.059 196.31 110.76C197.443 114.469 199.048 117.335 201.124 119.359C201.769 119.987 202.464 120.532 203.191 120.978Z" fill="black"/>
<path opacity="0.1" d="M227.73 62.1043C226.639 60.8157 225.299 60.1135 223.719 59.9978C223.578 59.9896 223.43 59.9978 223.281 59.9978C224.091 61.2204 224.736 62.823 225.216 64.7973C225.795 67.2342 226.093 70.1833 226.093 73.6445C226.093 77.1057 225.795 80.4348 225.216 83.5491C224.629 86.6551 223.794 89.4885 222.694 92.0411C221.602 94.6019 220.262 96.8405 218.682 98.757C217.094 100.682 215.291 102.226 213.273 103.391C211.396 104.482 209.709 105.019 208.212 105.027C208.394 105.324 208.6 105.597 208.815 105.853C209.907 107.15 211.255 107.844 212.851 107.926C214.448 108.017 216.267 107.48 218.31 106.299C220.328 105.134 222.131 103.59 223.719 101.665C225.299 99.74 226.639 97.5014 227.73 94.9488C228.83 92.3963 229.666 89.5629 230.253 86.4486C230.832 83.3426 231.13 80.0383 231.13 76.544C231.13 73.0497 230.832 70.1337 230.253 67.6968C229.666 65.2599 228.83 63.393 227.73 62.1043Z" fill="black"/>
<path opacity="0.1" d="M224.033 115.551C223.562 115.981 223.091 116.394 222.603 116.79L224.654 119.144C224.96 119.45 225.274 119.698 225.597 119.88C226.159 120.21 230.038 122.432 230.567 122.746C230.269 122.564 229.972 122.333 229.69 122.044L224.033 115.551Z" fill="black"/>
<path d="M244.511 117.013L235.819 122.027C234.57 122.746 233.445 123.143 232.461 123.217C231.469 123.291 230.551 122.903 229.69 122.044L224.033 115.543C222.263 117.17 220.353 118.574 218.31 119.756C214.762 121.796 211.536 122.746 208.617 122.606C205.697 122.465 203.2 121.375 201.132 119.351C199.056 117.327 197.452 114.461 196.318 110.752C195.185 107.051 194.615 102.664 194.615 97.6005C194.615 92.5367 195.185 87.4977 196.318 82.4834C197.452 77.4692 199.056 72.7606 201.132 68.3577C203.208 63.9547 205.706 59.9978 208.617 56.487C211.536 52.9763 214.77 50.2007 218.31 48.152C221.85 46.1116 225.075 45.1699 227.987 45.3351C230.898 45.5003 233.379 46.5907 235.447 48.6064C237.506 50.622 239.111 53.4802 240.244 57.1892C241.377 60.8983 241.948 65.2599 241.948 70.2989C241.948 73.3141 241.741 76.321 241.336 79.3279C240.93 82.3347 240.343 85.2756 239.582 88.1503C238.821 91.025 237.887 93.8254 236.77 96.5514C235.654 99.2774 234.388 101.855 232.974 104.275L244.511 116.997V117.013ZM205.424 91.3719C205.424 94.8662 205.714 97.8318 206.301 100.269C206.888 102.706 207.724 104.573 208.815 105.861C209.907 107.158 211.255 107.844 212.851 107.935C214.448 108.025 216.267 107.48 218.31 106.299C220.328 105.134 222.131 103.59 223.719 101.665C225.299 99.74 226.647 97.5014 227.739 94.9488C228.83 92.3963 229.674 89.5629 230.253 86.4486C230.84 83.3426 231.13 80.0383 231.13 76.544C231.13 73.0497 230.84 70.1337 230.253 67.6968C229.666 65.2599 228.83 63.393 227.739 62.1043C226.647 60.8157 225.307 60.1135 223.719 59.9978C222.131 59.8822 220.328 60.4109 218.31 61.5756C216.267 62.7569 214.448 64.3182 212.851 66.2594C211.255 68.209 209.915 70.4559 208.815 73.0084C207.724 75.561 206.88 78.3944 206.301 81.5087C205.714 84.6147 205.424 87.9025 205.424 91.3637V91.3719Z" fill="#FAFAFA"/>
</g>
<defs>
<filter id="filter0_d_60_1819" x="0.913452" y="124.671" width="462.087" height="300.329" filterUnits="userSpaceOnUse" color-interpolation-filters="sRGB">
<feFlood flood-opacity="0" result="BackgroundImageFix"/>
<feColorMatrix in="SourceAlpha" type="matrix" values="0 0 0 0 0 0 0 0 0 0 0 0 0 0 0 0 0 0 127 0" result="hardAlpha"/>
<feOffset dy="4"/>
<feGaussianBlur stdDeviation="20"/>
<feComposite in2="hardAlpha" operator="out"/>
<feColorMatrix type="matrix" values="0 0 0 0 0 0 0 0 0 0 0 0 0 0 0 0 0 0 0.25 0"/>
<feBlend mode="normal" in2="BackgroundImageFix" result="effect1_dropShadow_60_1819"/>
<feBlend mode="normal" in="SourceGraphic" in2="effect1_dropShadow_60_1819" result="shape"/>
</filter>
</defs>
</svg>
