<svg width="494" height="375" viewBox="0 0 494 375" fill="none" xmlns="http://www.w3.org/2000/svg">
<g style="mix-blend-mode:luminosity" clip-path="url(#clip0_50_2338)">
<path d="M236.47 327.42C326.885 327.42 400.18 254.125 400.18 163.71C400.18 73.2955 326.885 0 236.47 0C146.055 0 72.76 73.2955 72.76 163.71C72.76 254.125 146.055 327.42 236.47 327.42Z" fill="#E1E8F8"/>
<path d="M428.61 171.93C458.936 171.93 483.52 147.346 483.52 117.02C483.52 86.694 458.936 62.11 428.61 62.11C398.284 62.11 373.7 86.694 373.7 117.02C373.7 147.346 398.284 171.93 428.61 171.93Z" fill="#E1E8F8"/>
<path d="M68.6745 118.965C73.0409 100.708 61.78 82.3674 43.5227 78.0011C25.2654 73.6348 6.92532 84.8956 2.55898 103.153C-1.80736 121.41 9.45348 139.75 27.7108 144.117C45.9681 148.483 64.3082 137.222 68.6745 118.965Z" fill="#E1E8F8"/>
<path fill-rule="evenodd" clip-rule="evenodd" d="M150.05 111.06H295.59C295.59 111.06 296.51 103.38 288.24 99.81C279.97 96.24 272 108.71 272 108.71C272 108.71 265.01 72.66 229.79 67.17C194.57 61.67 186.78 107.56 186.78 107.56C186.78 107.56 185.41 101.45 181.62 101.93C177.83 102.41 175.8 109.19 175.8 109.19C175.8 109.19 160.89 96.25 150.05 111.06Z" fill="white"/>
<path fill-rule="evenodd" clip-rule="evenodd" d="M135.83 111.06H105.73C105.73 111.06 125.72 98.57 135.83 111.06Z" fill="white"/>
<path fill-rule="evenodd" clip-rule="evenodd" d="M84.23 49.91L236.67 50.75C236.67 50.75 233.34 40.26 217.43 48.41C217.43 48.41 212.5 21.88 188.06 21.32C163.62 20.76 156.99 48.23 156.99 48.23C156.99 48.23 150.87 40.54 143.48 40.92C136.09 41.3 133.5 48.42 133.5 48.42C133.5 48.42 122.89 26.06 108.11 24.55C93.33 23.03 84.24 49.92 84.24 49.92L84.23 49.91Z" fill="white"/>
<path fill-rule="evenodd" clip-rule="evenodd" d="M330.79 39.28L329.96 22.18L330.38 22.75L331.01 39.29L330.79 39.28Z" fill="#9F597F"/>
<path fill-rule="evenodd" clip-rule="evenodd" d="M350.88 31.85C350.88 31.85 346.93 33.06 344.18 33.18C343.8 33.2 343.45 33.2 343.12 33.18C340.66 32.96 340.5 30.32 339.22 29.25C339.14 29.18 339.06 29.13 338.96 29.07C337.43 28.17 330.47 30.5 330.47 30.5L329.94 22.2C329.94 22.2 335.35 21.23 337.97 21.32C338.58 21.34 339.06 21.49 339.45 21.73C340.75 22.49 341.12 24.11 342.02 24.65C342.39 24.88 343.35 24.96 344.48 24.97C346.88 24.97 350.04 24.65 350.04 24.65L350.87 31.86L350.88 31.85Z" fill="#FF665B"/>
<g style="mix-blend-mode:multiply" opacity="0.8">
<path fill-rule="evenodd" clip-rule="evenodd" d="M344.5 24.96L344.19 33.18C343.81 33.2 343.46 33.2 343.13 33.18C340.67 32.96 340.51 30.32 339.23 29.25C339.3 26.81 339.46 23.57 339.47 21.73C340.77 22.49 341.14 24.11 342.04 24.65C342.41 24.88 343.37 24.96 344.5 24.97V24.96Z" fill="#DD8EA9"/>
</g>
<path d="M167.97 351.44C180.32 351.5 184.6 352.92 180.25 355.95C179.91 356.19 179.74 356.31 179.39 356.55C174.14 356.51 171.57 356.49 166.57 356.45C167.07 356.13 167.32 355.97 167.81 355.66C169.93 354.32 168.3 353.85 164.25 353.83C160.2 353.81 157.18 354.25 155.01 355.58C148.76 359.41 174.48 360.85 164.26 367.52C155.11 373.5 142.14 374.37 131.08 374.42C117.51 374.49 117.93 371.4 124.47 367.2C125.47 366.55 125.97 366.24 126.93 365.62C130.9 365.66 133.08 365.67 137.75 365.72C136.61 366.44 136.03 366.8 134.83 367.55C131.84 369.43 133.06 370.2 137.38 370.22C141.7 370.24 145.85 369.52 148.72 367.65C156.97 362.28 134.39 361.01 142.68 355.7C147.32 352.73 155.61 351.34 167.97 351.4V351.44Z" fill="#FF4057"/>
<path d="M190.38 351.8C204.16 351.93 217.94 352.13 231.71 352.33C231.17 353.21 230.93 353.69 230.45 354.7C224.35 354.62 221.32 354.58 215.34 354.51L198.56 374.14H178.8L201.19 354.35C195.34 354.29 192.46 354.26 186.78 354.21C188.24 353.2 188.95 352.71 190.38 351.8Z" fill="#FF4057"/>
<path d="M292.18 374.17C283.56 374.17 279.18 374.17 270.41 374.16L265.94 369.71C256.01 369.65 252.37 369.62 242.51 369.56L236.25 374.14C228.33 374.14 224.39 374.14 216.65 374.14L243.31 352.52C251.37 352.65 255.44 352.73 263.62 352.88L292.19 374.18L292.18 374.17ZM245.09 366.27C252.41 366.34 256.1 366.37 263.47 366.44L254.28 356.25L245.09 366.27Z" fill="#FF4057"/>
<path d="M343.99 374.2C342.34 373.65 341.34 373.32 339.11 371.51C337.39 370.11 336.47 369.4 334.56 367.97C331.74 365.87 327.29 365.07 319.41 364.97C317.01 364.94 315.81 364.93 313.38 364.9L322.67 374.18C314.59 374.18 310.44 374.18 302.01 374.17L284.46 353.25C293 353.41 297.3 353.5 305.94 353.67C315.45 353.74 325.33 354.02 334.18 357.81C335.22 358.39 335.75 358.69 336.83 359.31C340.36 361.33 339.67 362.77 333.54 363.38C342.75 364.21 348.08 365.91 351.68 368.23C353.81 369.6 354.85 370.29 356.81 371.63C358.35 372.68 359.57 373.44 362.35 374.2C355.36 374.2 351.66 374.2 344 374.19L343.99 374.2ZM301.8 355.78C304.68 357.88 306.36 359.13 309.62 361.76C312.23 361.79 313.53 361.81 316.11 361.85C322.27 361.93 325.08 361.4 322.59 359.79C321.36 358.99 320.75 358.61 319.57 357.87C317.43 356.53 314.29 355.99 309 355.9C306.12 355.85 304.68 355.83 301.8 355.78Z" fill="#FF4057"/>
<path d="M332.59 354.2C347.55 354.49 362.51 354.77 377.47 355.04C378.58 355.76 379.25 356.19 380.7 357.13C374.99 357.03 372.09 356.98 366.21 356.88L400.18 374.24C395.35 374.24 388.8 374.24 383 374.23L352 356.64C345.99 356.54 342.96 356.48 336.84 356.38C335.02 355.42 334.16 354.98 332.6 354.21L332.59 354.2Z" fill="#FF4057"/>
<path fill-rule="evenodd" clip-rule="evenodd" d="M327.61 39.06L327.78 183.75L360.88 189.67L380.81 71.61L327.61 39.06Z" fill="url(#paint0_linear_50_2338)"/>
<path fill-rule="evenodd" clip-rule="evenodd" d="M408.21 323.61L391.04 78.16L363.32 96.12L296.21 152.79L293.56 169.66L408.21 323.61Z" fill="url(#paint1_linear_50_2338)"/>
<path fill-rule="evenodd" clip-rule="evenodd" d="M26.28 309.98L30.21 343.18L486.09 350.28L493.52 309.99L26.28 309.98Z" fill="url(#paint2_linear_50_2338)"/>
<path fill-rule="evenodd" clip-rule="evenodd" d="M440.15 292.85L440.61 268.96H79.36L82.78 289.4L440.15 292.85Z" fill="url(#paint3_linear_50_2338)"/>
<path fill-rule="evenodd" clip-rule="evenodd" d="M410.03 259.4L410.29 245.08L112.91 243.92L114.75 259.4H410.03Z" fill="url(#paint4_linear_50_2338)"/>
<path fill-rule="evenodd" clip-rule="evenodd" d="M387.16 240.53L387.13 227.88L133.46 228.41L134.69 241.41L387.16 240.53Z" fill="url(#paint5_linear_50_2338)"/>
<path fill-rule="evenodd" clip-rule="evenodd" d="M374.52 227.2V218.21L149.23 216.94L149.55 227.2H374.52Z" fill="url(#paint6_linear_50_2338)"/>
<path fill-rule="evenodd" clip-rule="evenodd" d="M160.72 216.12L361.3 216.94V207.38L350.3 207.44V199.35L343.88 199.37L343.39 193.74L333.82 193.68L333.65 186.84H327.47L327.15 181.85L321.25 181.81L320.96 177.07L314.22 177.03V171.78H307.93L308.03 169.66V165.78L391.04 78.16L333.22 39.44L327.61 39.06L366.94 71.33L213.64 171.78H208.67V176.39L202.67 176.36V181.01L196.45 180.96V186.84H188.78L188.95 192.79L181.23 192.74L181.29 199.89L171.78 199.92L172.07 208.36L160.45 208.42L160.72 216.12Z" fill="url(#paint7_linear_50_2338)"/>
<path fill-rule="evenodd" clip-rule="evenodd" d="M493.52 309.99L440.15 292.85L82.78 289.4L26.28 309.98L493.52 309.99Z" fill="url(#paint8_linear_50_2338)"/>
<path fill-rule="evenodd" clip-rule="evenodd" d="M79.36 268.96L114.87 259.4H410.03L440.61 268.96H79.36Z" fill="url(#paint9_linear_50_2338)"/>
<path fill-rule="evenodd" clip-rule="evenodd" d="M112.91 243.92L136.29 241.37L387.16 240.53L410.29 245.08L112.91 243.92Z" fill="url(#paint10_linear_50_2338)"/>
<path fill-rule="evenodd" clip-rule="evenodd" d="M374.52 218.21L361.3 216.94L160.76 216.12L149.23 216.94L374.52 218.21Z" fill="url(#paint11_linear_50_2338)"/>
<path fill-rule="evenodd" clip-rule="evenodd" d="M160.45 208.42L172.06 207.3L350.3 206.09L361.3 207.38L160.45 208.42Z" fill="url(#paint12_linear_50_2338)"/>
<path fill-rule="evenodd" clip-rule="evenodd" d="M387.13 227.88L374.52 226.39L147.17 227.2L133.46 228.41L387.13 227.88Z" fill="url(#paint13_linear_50_2338)"/>
<g style="mix-blend-mode:multiply">
<path fill-rule="evenodd" clip-rule="evenodd" d="M29.78 339.6L0 350.28H486.09L493.52 309.99L26.28 309.98L29.78 339.6Z" fill="#BEA5BB"/>
</g>
<g style="mix-blend-mode:multiply">
<path fill-rule="evenodd" clip-rule="evenodd" d="M82.78 289.4L71.53 293.49L440.15 292.85L440.61 268.96H79.36L82.78 289.4Z" fill="#BEA5BB"/>
</g>
<g style="mix-blend-mode:multiply" opacity="0.5">
<path fill-rule="evenodd" clip-rule="evenodd" d="M410.03 259.4L107.6 261.36L114.75 259.4L112.91 243.92L410.29 245.08L410.03 259.4Z" fill="#BEA5BB"/>
</g>
<g style="mix-blend-mode:multiply" opacity="0.2">
<path fill-rule="evenodd" clip-rule="evenodd" d="M134.69 241.41L130.22 242.03L388.8 240.86L387.16 240.53L387.13 227.88L133.46 228.41L134.69 241.41Z" fill="#BEA5BB"/>
</g>
<path d="M40.75 239.19L36.8 238.64L38.3 281.22L40.75 280.9V239.19Z" fill="#A9224E"/>
<path d="M115.28 210.24L99.49 197.23L98.98 205.1L40.75 239.19V280.9L97 238.41L97.14 233.19L96.37 245.08L115.28 210.24Z" fill="url(#paint14_linear_50_2338)"/>
<path d="M36.8 238.64L97.65 204.8L98.14 197.23H99.49L98.98 205.1L40.75 239.19L36.8 238.64Z" fill="#A9224E"/>
<path d="M97.65 204.8L98.98 205.1L40.75 239.19L36.8 238.64L97.65 204.8Z" fill="#FF9F4E"/>
<path d="M96.37 245.08H95.21L95.79 239.32L97 238.41L96.37 245.08Z" fill="#A9224E"/>
<path d="M301.2 95.53L300.01 95.3L299.8 108.24L300.55 108.18L301.2 95.53Z" fill="#A9224E"/>
<path d="M324.25 87.91L319.66 83.72L319.38 86.1L301.2 95.53L300.55 108.18L318.27 96.16L318.39 94.59L317.97 98.18L324.25 87.91Z" fill="url(#paint15_linear_50_2338)"/>
<path d="M300.01 95.3L318.99 85.98L319.25 83.7L319.66 83.72L319.38 86.1L301.2 95.53L300.01 95.3Z" fill="#A9224E"/>
<path d="M318.99 85.98L319.38 86.1L301.2 95.53L300.01 95.3L318.99 85.98Z" fill="#FF9F4E"/>
<path d="M317.97 98.18L317.62 98.16L317.89 96.42L318.27 96.16L317.97 98.18Z" fill="#A9224E"/>
<path d="M407.01 185.28L410.96 184.73L409.46 227.31L407.01 226.99V185.28Z" fill="#A9224E"/>
<path d="M332.48 156.33L348.27 143.32L348.78 151.19L407.01 185.28V226.99L350.76 184.49L350.62 179.28L351.39 191.17L332.48 156.33Z" fill="url(#paint16_linear_50_2338)"/>
<path d="M410.96 184.73L350.11 150.89L349.62 143.32H348.27L348.78 151.19L407.01 185.28L410.96 184.73Z" fill="#A9224E"/>
<path d="M350.11 150.89L348.78 151.19L407.01 185.28L410.96 184.73L350.11 150.89Z" fill="#FF9F4E"/>
<path d="M351.39 191.17H352.55L351.97 185.41L350.76 184.49L351.39 191.17Z" fill="#A9224E"/>
<g style="mix-blend-mode:multiply" opacity="0.7">
<path fill-rule="evenodd" clip-rule="evenodd" d="M211.43 291.6L178.85 309.99L176.08 345.45L319.43 347.69L314.3 309.99L283.14 292.78L280.36 268.96L270.35 266.23L267.86 261.36H261.6L256.76 265.13L214.25 268.96L211.43 291.6Z" fill="#A583A1"/>
</g>
<path fill-rule="evenodd" clip-rule="evenodd" d="M263.07 189.71C263.07 189.71 263.72 197.23 263.07 202.41C263.07 202.41 266.4 198.67 270.67 200.25C270.67 200.25 269.52 198.62 269.57 197.76C269.62 196.9 270.34 192.06 270.34 192.06L263.08 189.71H263.07Z" fill="#E85B48"/>
<path fill-rule="evenodd" clip-rule="evenodd" d="M273.54 224.6L261.41 224.93L260.7 224.26C261.99 217.6 263.07 201.74 263.07 201.74C263.07 201.74 265.24 198.01 267.49 198.01C269.74 198.01 270.66 199.86 270.66 199.86C271.76 201.97 272.58 206.67 272.58 206.67C272.58 206.67 271.57 214.14 272.53 217.55C273.49 220.95 273.53 224.59 273.53 224.59L273.54 224.6Z" fill="url(#paint17_linear_50_2338)"/>
<path fill-rule="evenodd" clip-rule="evenodd" d="M273.54 224.6L261.41 224.93C261.41 224.93 262.13 213.05 264.1 208.83C266.07 204.62 271.29 204.85 272.58 206.67C272.58 206.67 271.57 214.14 272.53 217.55C273.49 220.95 273.53 224.59 273.53 224.59L273.54 224.6Z" fill="#B82557"/>
<path fill-rule="evenodd" clip-rule="evenodd" d="M263.18 194C263.18 194 267.93 198.01 269.99 194.4L270.2 192.93L262.88 190.46C262.88 190.46 263.17 193.2 263.18 194Z" fill="#B33748"/>
<path fill-rule="evenodd" clip-rule="evenodd" d="M275.86 171.24C275.86 175.14 271.02 192.5 271.02 192.5C267.1 194.93 264.22 192.04 262.88 190.47C262.6 190.14 262.39 189.86 262.25 189.71C261.46 188.84 260.27 188.53 260.27 188.53C260.67 179.21 259.17 158.89 259.17 158.89C261.65 155.7 273.02 156.92 273.02 156.92C272.87 158.11 273.18 159.75 273.64 161.56C274.5 164.87 275.87 168.72 275.87 171.25L275.86 171.24Z" fill="url(#paint18_linear_50_2338)"/>
<g style="mix-blend-mode:multiply" opacity="0.91">
<path d="M266.87 167.22C266.87 167.22 262.79 181.55 263.08 189.7L262.89 190.46C262.61 190.13 262.4 189.85 262.26 189.7C261.47 188.83 260.28 188.52 260.28 188.52C260.68 179.2 259.18 158.88 259.18 158.88C261.66 155.69 273.03 156.91 273.03 156.91C272.88 158.1 273.19 159.74 273.65 161.55L266.88 167.22H266.87Z" fill="#935B9D"/>
</g>
<g style="mix-blend-mode:multiply" opacity="0.91">
<path fill-rule="evenodd" clip-rule="evenodd" d="M273.15 184.5C273.15 184.5 270.07 190.71 268.81 191.34C267.55 191.97 265.6 190.92 265.6 190.92C265.6 190.92 267.13 192.6 268.36 192.6C269.59 192.6 271.63 190.27 271.63 190.27L273.15 184.5Z" fill="#935B9D"/>
</g>
<path fill-rule="evenodd" clip-rule="evenodd" d="M234.27 265.22C234.27 265.22 234.93 267.34 235.09 270.34C235.09 270.34 240.07 270.42 242.28 273.42V258.97L234.27 265.22Z" fill="url(#paint19_linear_50_2338)"/>
<path fill-rule="evenodd" clip-rule="evenodd" d="M246.43 303.49H230.06C230.06 303.49 229.58 301.33 230.06 297.12C230.54 292.9 230.74 282.53 230.69 280.96C230.64 279.38 235.08 270.35 235.08 270.35C239.26 268.01 242.27 273.43 242.27 273.43C242.27 273.43 242.54 276.51 242.95 281.43C243.4 286.63 243.53 294.13 244.95 297.86C246.38 301.59 246.43 303.5 246.43 303.5V303.49Z" fill="url(#paint20_linear_50_2338)"/>
<path fill-rule="evenodd" clip-rule="evenodd" d="M230.69 280.95C230.69 280.95 237.03 277.45 240.22 282.66C243.41 287.88 244.48 303.48 244.48 303.48H230.05C230.05 303.48 229.63 301.78 229.96 297.98C230.29 294.18 230.68 280.94 230.68 280.94L230.69 280.95Z" fill="#B82557"/>
<path fill-rule="evenodd" clip-rule="evenodd" d="M234.55 266.33C234.55 266.33 236.98 270.17 242.28 265.27V258.97L233.05 261.51C233.05 261.51 234.38 265.3 234.55 266.33Z" fill="#B33748"/>
<path fill-rule="evenodd" clip-rule="evenodd" d="M283.89 146.82C283.5 151 277.8 158.27 273.39 159.37C268.96 160.48 266.02 159.37 261.86 158.9C257.7 158.42 254.67 160.08 254.67 160.08C254.67 160.08 251.19 172.87 249.61 186.69C248.03 200.51 247.85 214.81 247.69 215.92C247.53 217.02 245.85 219.13 245.85 219.13C243.64 234.93 244.95 257.72 244.95 257.72C244.95 257.72 244.59 258.02 244.15 258.43C243.67 258.88 243.07 259.46 242.74 259.94C242.15 260.77 242.21 262.95 242.21 263.22V263.24C239.32 266.62 233.42 265.03 233.42 265.03C228.16 254.82 226.26 233.13 226.68 230.28C227.1 227.44 233.1 218.48 233.1 216.91C233.1 215.56 228.43 177.36 228.03 161.52C227.96 158.79 228.03 156.72 228.26 155.62C229.84 148.14 236.34 136.29 236.34 136.29L250.17 129.59L276.55 130.14C276.55 130.14 276.62 130.25 276.73 130.44C277.8 132.19 283.22 141.27 283.84 145.7C283.9 146.11 283.92 146.48 283.89 146.8V146.82Z" fill="url(#paint21_linear_50_2338)"/>
<g style="mix-blend-mode:multiply" opacity="0.91">
<path d="M276.73 130.46V133.85C276.73 133.85 266.52 146.11 257.75 148.71C248.99 151.32 233.42 146.58 233.42 146.58C233.42 146.58 228.89 155.02 228.04 161.5C228.04 161.5 228.04 161.52 228.04 161.53C227.97 158.8 228.04 156.73 228.27 155.63C229.85 148.15 236.35 136.3 236.35 136.3L250.18 129.6L276.56 130.15C276.56 130.15 276.63 130.26 276.74 130.45L276.73 130.46Z" fill="#935B9D"/>
</g>
<path style="mix-blend-mode:multiply" opacity="0.5" d="M283.89 146.82C283.5 151 277.8 158.27 273.39 159.37C268.96 160.48 266.02 159.37 261.86 158.9C257.7 158.42 254.67 160.08 254.67 160.08C254.67 160.08 253.65 163.82 252.47 169.46C251.46 174.23 250.34 180.35 249.61 186.69C248.03 200.51 247.85 214.81 247.69 215.92C247.53 217.02 245.85 219.13 245.85 219.13C239.08 228.33 242.91 251.88 244.15 258.43C243.67 258.88 243.07 259.46 242.74 259.94C242.15 260.77 242.21 262.95 242.21 263.22L241.22 237.55L242.26 218.49L235.32 220.1L243.14 216.78L246.01 199.91L243.28 207.85C245.86 198.06 247.24 179.9 247.24 179.9L246.32 172.35L245.42 164.97C238.61 165.29 234.14 163.63 234.14 163.63C239.19 164.81 244.01 163.63 244.01 163.63C244.01 163.63 255.06 156.84 256.41 156.66C257.75 156.48 262.8 157.31 271.42 156.66C279.41 156.06 283.32 147.01 283.85 145.71C283.91 146.12 283.93 146.49 283.9 146.81L283.89 146.82Z" fill="url(#paint22_linear_50_2338)"/>
<path fill-rule="evenodd" clip-rule="evenodd" d="M297.38 152.96C297.38 152.96 300.71 175.34 308.09 188.08L311.25 184.92C311.25 184.92 301.21 166.59 299.96 153.38L299.79 151.44L297.38 152.97V152.96Z" fill="#581124"/>
<path fill-rule="evenodd" clip-rule="evenodd" d="M295.46 145.31C295.46 145.31 295.91 146.8 295.39 149.64C294.87 152.48 294.13 154.62 294.13 154.62C294.13 154.62 294.4 155.25 294.94 155.36C295.48 155.47 296.69 154.31 297.21 153.52C297.74 152.73 296.89 150.65 296.97 150.12C297.05 149.59 297.38 148.93 297.38 148.93C297.38 148.93 296.65 146.11 295.45 145.31H295.46Z" fill="#B33748"/>
<path fill-rule="evenodd" clip-rule="evenodd" d="M294.92 138.69C294.92 138.69 302.45 136.79 305.03 131.42C305.03 131.42 301.29 129.74 297.76 132.05C294.23 134.37 294.92 138.68 294.92 138.68V138.69Z" fill="#2B1548"/>
<path fill-rule="evenodd" clip-rule="evenodd" d="M308.08 149.22C308.08 149.91 305.03 151.65 305.03 151.65L299.03 152.97L296.71 147.28C296.71 147.28 295.28 145.54 295.39 144.75C295.5 143.96 297.28 137.59 297.28 137.27C297.28 136.95 296.11 135.25 296.11 135.25C296.11 135.25 296.59 134.38 297.49 133.47C298.47 132.47 299.96 131.43 301.82 131.44C301.82 131.44 302.09 131.67 302.49 132.11C302.97 132.61 303.62 133.37 304.24 134.32L304.52 134.75C304.7 135.03 304.85 135.33 305.01 135.63C305.78 137.14 306.74 141.6 307.38 145.01C307.79 147.19 308.06 148.94 308.06 149.21L308.08 149.22Z" fill="url(#paint23_linear_50_2338)"/>
<path fill-rule="evenodd" clip-rule="evenodd" d="M295.91 135.64L297.29 137.27C297.29 137.27 300.02 134.02 303.94 133.86L302.18 131.4C302.18 131.4 297.63 130.89 295.91 135.64Z" fill="url(#paint24_linear_50_2338)"/>
<path fill-rule="evenodd" clip-rule="evenodd" d="M232.56 135.21C232.56 135.21 234.32 138.79 239.59 140.26C244.86 141.73 249.91 136.57 249.91 136.57C249.91 136.57 239.91 134.16 232.56 135.21Z" fill="#2B1548"/>
<path fill-rule="evenodd" clip-rule="evenodd" d="M237.01 81.09C237.01 81.09 235.02 83.63 234.81 85.71C234.6 87.8 241.93 109.74 246.68 112.89C251.43 116.05 251.75 94.35 251.75 94.35L237.01 81.08V81.09Z" fill="url(#paint25_radial_50_2338)"/>
<path fill-rule="evenodd" clip-rule="evenodd" d="M278.17 132.12C278.17 132.12 267.44 146.28 255.27 147.83C249.08 148.62 243.62 146.95 239.74 145.13C235.99 143.36 233.73 141.45 233.73 141.45L233.43 140.85L234.81 137.94L235.65 136.16L245.15 129.59L249.92 126.29L261.84 128.02L276.56 130.15L278.18 132.11L278.17 132.12Z" fill="url(#paint26_linear_50_2338)"/>
<path style="mix-blend-mode:multiply" opacity="0.5" d="M265.71 142.55C265.48 142.8 261.48 147 251.99 146.59C242.2 146.17 237.95 142.54 237.95 142.54L239.73 145.13C235.98 143.36 233.72 141.45 233.72 141.45L233.42 140.85L235.64 136.16L249.9 126.29L276.54 130.16C276.54 130.16 268 137.75 260.19 138.69C260.19 138.69 265.7 136.58 266.95 133.72C266.46 133.89 250.53 139.59 245.41 139.31C245.41 139.31 248.99 144.13 254.65 145.32C260.15 146.47 265.42 142.75 265.7 142.55H265.71Z" fill="url(#paint27_linear_50_2338)"/>
<g style="mix-blend-mode:multiply" opacity="0.91">
<path fill-rule="evenodd" clip-rule="evenodd" d="M276.55 130.16C276.55 130.16 264.7 135.37 251.75 138.37C238.8 141.37 234.8 137.94 234.8 137.94L235.64 136.16L245.14 129.59L261.83 128.02L268.8 127.36L276.55 130.15V130.16Z" fill="#935B9D"/>
</g>
<path fill-rule="evenodd" clip-rule="evenodd" d="M305.03 131.43C305.03 131.43 296.5 129.85 294.92 138.69C294.88 138.66 294.85 138.61 294.81 138.57C294.79 138.54 294.76 138.52 294.74 138.49C294.55 138.27 294.21 137.88 293.75 137.35C293.71 137.3 293.67 137.24 293.62 137.18C290.87 133.89 284.53 125.64 281.92 116.74C281.92 116.74 281.44 109.59 279.47 103.73C277.5 97.86 274.03 94.15 274.03 94.15C274.03 94.15 268.74 105.05 268.74 111.61L270.21 113.03L269.13 114.53C269.13 114.53 273.79 123.69 277.58 130.09C277.58 130.09 264.63 130.8 257.21 135.93L256.03 134.15L254.75 132.22L252.38 134.68L250.65 136.49C250.65 136.49 239.67 138.15 232.56 135.22C232.56 135.22 237.75 130.1 241.96 125.07C244 122.63 245.82 120.21 246.69 118.4L245.66 117.61L247.32 115.71C247.32 115.71 245.1 104.36 238.26 88.58L237 81.1C237 81.1 251.53 73.73 265.95 71.3L269.53 70.14C269.53 70.14 271.13 69.38 272.28 68.99C272.7 68.84 273.06 68.75 273.26 68.76C274.01 68.8 280.27 73.62 284.17 84.78C286.2 90.61 289.04 99.88 292.72 109.07C296.09 117.49 300.17 125.84 305.01 131.43H305.03Z" fill="url(#paint28_radial_50_2338)"/>
<path style="mix-blend-mode:multiply" opacity="0.8" fill-rule="evenodd" clip-rule="evenodd" d="M308.08 149.22C308.08 149.91 305.03 151.65 305.03 151.65L299.03 152.97L296.71 147.28C296.71 147.28 295.28 145.54 295.39 144.75C295.5 143.96 297.28 137.59 297.28 137.27C297.28 136.95 296.11 135.25 296.11 135.25C296.11 135.25 296.59 134.38 297.49 133.47L302.49 132.11C302.97 132.61 303.62 133.37 304.24 134.32C304.24 134.32 300.81 136.31 299.91 138.31C299.02 140.31 300.21 144.79 300.21 144.79C300.21 144.79 302.97 146.15 307.04 144.89L307.39 145C307.8 147.18 308.07 148.93 308.07 149.2L308.08 149.22Z" fill="url(#paint29_linear_50_2338)"/>
<path fill-rule="evenodd" clip-rule="evenodd" d="M307.05 150.33C305.33 152.74 303.94 152.96 303.94 152.96L303.66 152.99L299.96 153.38H299.93L299.04 152.96L297.81 153.38C296.14 151.87 295.95 149.01 295.93 148.09V147.79L296.52 146.63L297.4 146.83L301.46 146.38L302.73 145.57L303.44 145.72C303.65 146.62 302.98 148.31 302.98 148.31L304.31 150L305.39 149.43C306.22 149.43 307.07 150.33 307.07 150.33H307.05Z" fill="url(#paint30_linear_50_2338)"/>
<path style="mix-blend-mode:multiply" opacity="0.5" fill-rule="evenodd" clip-rule="evenodd" d="M303.67 152.98L299.97 153.37L299.04 152.95L297.81 153.37C296.14 151.86 295.95 149 295.93 148.08V147.78L296.52 146.62L297.4 146.82L301.46 146.37L302.73 145.56C302.73 145.56 300.49 147.55 300.43 147.83C300.37 148.11 303.12 152.71 303.68 152.98H303.67Z" fill="url(#paint31_linear_50_2338)"/>
<g style="mix-blend-mode:soft-light">
<path d="M255 132.23L254.5 132.18L255.83 117.47L254.62 116.52L255.52 115.51C255.21 114.06 252.29 100.43 251.5 94.38C250.66 87.97 252.93 82 252.96 81.94L253.43 82.12C253.41 82.18 251.18 88.03 252 94.32C252.83 100.66 256.01 115.38 256.04 115.53L256.07 115.65L255.35 116.45L256.35 117.24L255 132.22V132.23Z" fill="url(#paint32_linear_50_2338)"/>
</g>
<path fill-rule="evenodd" clip-rule="evenodd" d="M341.89 198.5C341.89 198.5 337.36 198.08 334.52 198.93C331.68 199.77 328.98 202.66 328.98 202.66C328.98 202.66 322.89 195.21 317.13 175.71C317.01 175.3 316.89 174.9 316.77 174.51C310.88 155.14 304.83 149.72 304.83 149.72L304.29 150L302.96 148.31L303.4 146.75L305.33 146.35C306.45 146.94 307.43 147.73 308.36 148.73C312.34 153 315.16 160.95 321.96 172.11C330.33 185.85 341.89 198.51 341.89 198.51V198.5Z" fill="url(#paint33_linear_50_2338)"/>
<path style="mix-blend-mode:multiply" opacity="0.91" fill-rule="evenodd" clip-rule="evenodd" d="M245.17 107.39C245.17 107.39 246.44 108.67 248.61 107.63C250.78 106.59 254.32 104.4 257.75 98.55C261.18 92.7 263.83 81.09 263.83 81.09L272.3 68.99L269.55 70.14L265.97 71.3L248.61 88.52L242.81 107.64L243.82 109.42L245.42 108.23L245.17 107.39Z" fill="url(#paint34_linear_50_2338)"/>
<path fill-rule="evenodd" clip-rule="evenodd" d="M316.78 174.5C316.57 173.82 313.03 182.99 306.32 189.7C306.32 189.7 305.06 208.34 313.43 218.05H314.3L315.64 216.23L319.67 222.28L328.99 202.64C328.99 202.64 323.46 195.77 316.78 174.48V174.5Z" fill="#581124"/>
<path fill-rule="evenodd" clip-rule="evenodd" d="M302.72 145.56C302.72 145.56 300.64 145.14 300.22 144.8C299.81 144.45 298.67 141.06 298.82 139.75C298.82 139.75 298.37 142.48 299.61 145.3L297.13 146.75L301.45 146.36L302.72 145.55V145.56Z" fill="#B33748"/>
<path fill-rule="evenodd" clip-rule="evenodd" d="M297.29 137.27L296.79 139.3C296.79 139.3 300.52 135.06 304.26 134.33L303.94 133.86C303.94 133.86 300.47 133.67 297.29 137.27Z" fill="#B33748"/>
<path fill-rule="evenodd" clip-rule="evenodd" d="M299.03 152.96C299.03 152.96 297.26 149.33 297.24 148.52C297.22 147.71 297.39 146.82 297.39 146.82C297.39 146.82 297.06 147.93 297 148.6C296.94 149.27 299.03 152.96 299.03 152.96Z" fill="#B33748"/>
<path fill-rule="evenodd" clip-rule="evenodd" d="M301.74 153.19C301.74 153.19 298.98 149.65 298.88 148.68C298.78 147.71 299.03 146.59 299.03 146.59C299.03 146.59 299 147.67 299.23 148.82C299.47 149.97 301.73 153.19 301.73 153.19H301.74Z" fill="#B33748"/>
<path fill-rule="evenodd" clip-rule="evenodd" d="M301.45 146.37L300.42 147.83L300.52 146.46L301.45 146.37Z" fill="#B33748"/>
<path style="mix-blend-mode:multiply" opacity="0.91" d="M269.55 70.14C269.55 70.14 271.15 69.38 272.3 68.99L263.83 81.09C263.83 81.09 259.96 96.11 256.25 101.01C252.54 105.91 248.61 107.63 248.61 107.63V117.05L256.8 116.33L270.2 113.01L269.12 114.51C269.12 114.51 259.72 115.39 256.09 117.35L241.96 125.05C244 122.61 245.82 120.19 246.69 118.38L245.66 117.59L247.32 115.69C247.32 115.69 245.1 104.34 238.26 88.56L237 81.08C237 81.08 251.53 73.71 265.95 71.28L269.53 70.12L269.55 70.14Z" fill="url(#paint35_linear_50_2338)"/>
<path style="mix-blend-mode:multiply" opacity="0.91" d="M286.68 125.92C286.96 126.43 290.78 133.5 293.62 137.17C290.87 133.88 284.53 125.63 281.92 116.73C281.92 116.73 281.44 109.58 279.47 103.72C277.5 97.85 274.03 94.14 274.03 94.14C274.03 94.14 268.74 105.04 268.74 111.6C268.74 111.6 268.51 97.85 269.69 92.41C269.69 92.41 265.6 86.14 264.76 82.06C264.94 82.47 267.92 89.01 270.63 91.39L272.26 90.36C272.26 90.36 269.87 74.79 272.31 68.99C272.73 68.84 273.09 68.75 273.29 68.76C273.29 68.76 270.88 79.86 273.29 88.94L276.8 94.94C276.8 94.94 286.18 107 283.93 107.64C281.62 108.29 283.12 115.63 286.12 121.8C289.07 127.86 295.21 132.78 295.4 132.93C295.14 132.83 291.06 131.04 286.7 125.94L286.68 125.92Z" fill="url(#paint36_linear_50_2338)"/>
<path fill-rule="evenodd" clip-rule="evenodd" d="M269.55 70.14L265.97 71.3C265.89 71.52 265.81 71.73 265.73 71.93C265.11 73.53 264.49 75.08 263.84 76.57C253.72 99.96 240.07 110.67 240.07 110.67C239.24 111.95 238.99 114.1 238.94 114.78C238.92 114.91 238.92 114.99 238.92 114.99H238.4C238.33 111.81 239.81 107.23 239.89 106.95C238.08 110.34 237.37 114.83 237.37 114.83C234.53 118.07 231.21 118.94 231.21 118.94L231.53 113.17C229 114.44 227 114.35 227 114.35C227 114.35 231.53 110.35 232.37 107.3C233.21 104.25 234.85 83.24 235.32 81.74C235.79 80.24 239.09 77.57 239.09 77.57C239.09 77.19 239.11 76.8 239.11 76.42C239.54 62 243.37 48.48 243.37 48.48C247.8 41.98 254.07 40.13 254.47 40.02H254.49H255.33C255.33 40.02 258.16 38.7 260.83 39.17C266.49 40.17 269.54 45.39 269.54 45.39C271.02 58.84 269.54 70.13 269.54 70.13L269.55 70.14Z" fill="url(#paint37_linear_50_2338)"/>
<path d="M255.33 40.02C255.33 40.02 257.12 38.91 259.75 39.49C262.38 40.07 265.28 43.86 266.33 45.54C267.38 47.22 267.58 65.26 263.33 77.68C259.08 90.1 238.32 107.4 237.37 108.59C236.42 109.77 232.55 118.42 232.55 118.42L231.21 118.93C231.21 118.93 231.29 113.95 232.08 111.74C232.87 109.53 238.58 107.16 248.6 95.71C258.62 84.26 264.7 66.96 265.65 55.75C266.6 44.54 260.54 40.96 258.78 40.19C257.02 39.42 255.33 40.01 255.33 40.01V40.02Z" fill="url(#paint38_linear_50_2338)"/>
<path d="M233.92 109.64C233.92 109.64 236.27 106.07 236.27 98.65C236.27 91.23 235.34 82.9 236.27 81.09C237.2 79.28 241.23 77.16 241.23 77.16C241.23 77.16 240.3 63.51 241.77 55.23C241.77 55.23 239.11 63.66 239.35 77.04C239.35 77.04 235.95 80.24 235.32 81.74C234.69 83.24 235.47 93.02 232.79 110.69L233.92 109.63V109.64Z" fill="url(#paint39_linear_50_2338)"/>
<path d="M246.22 45.11C246.22 45.11 243.96 48.66 243.27 59.56C242.58 70.46 243.06 75.67 242.43 76.46C241.8 77.25 238.15 78.31 237.01 81.09C235.87 83.88 238.35 93.04 237.77 99.99C237.19 106.94 233.43 110.7 233.43 110.7L240.88 103.72C240.88 103.72 239.44 99.31 238.09 91.89C236.74 84.47 237.26 82.23 237.89 80.64C238.52 79.05 245.35 76.34 245.83 75.59C246.3 74.84 244.7 67.58 244.45 58.39C244.2 49.19 246.23 45.11 246.23 45.11H246.22Z" fill="url(#paint40_linear_50_2338)"/>
<path style="mix-blend-mode:multiply" opacity="0.5" d="M269.54 45.39C269.54 45.39 268.88 60.92 265.96 71.29L269.54 70.13C269.54 70.13 270.91 54.68 269.54 45.38V45.39Z" fill="url(#paint41_linear_50_2338)"/>
<path style="mix-blend-mode:multiply" opacity="0.5" d="M240.32 102.2C240.32 102.2 249.29 95.76 254.15 88.21C254.15 88.21 248.95 96.74 240.87 103.72L240.32 102.2Z" fill="url(#paint42_linear_50_2338)"/>
<path style="mix-blend-mode:multiply" opacity="0.5" d="M263.83 76.57C253.71 99.96 240.06 110.67 240.06 110.67C239.23 111.95 238.98 114.1 238.93 114.78L238.59 114.99H238.4C238.33 111.81 239.81 107.23 239.89 106.95C238.08 110.34 237.37 114.83 237.37 114.83C234.53 118.07 231.21 118.94 231.21 118.94L231.53 113.17C229 114.44 227 114.35 227 114.35C227 114.35 231.53 110.35 232.37 107.3C233.21 104.25 234.85 83.24 235.32 81.74C235.32 81.74 235.23 84.27 235.93 88.2L236.71 82.96C236.71 82.96 237.52 89.39 238.4 93.56C238.4 93.56 239.33 86.79 240.33 84.07C241.33 81.34 241.78 80.61 241.78 80.61C241.78 80.61 241.44 82.82 241.78 84.4C241.78 84.4 254.83 82.93 258.5 80.27C258.5 80.27 254.45 87.64 252.4 90.92C252.74 90.59 258.29 85.33 262.02 79.72C262.7 78.69 263.3 77.62 263.83 76.57Z" fill="url(#paint43_linear_50_2338)"/>
<path style="mix-blend-mode:multiply" opacity="0.5" d="M262.63 43.22C262.57 43.15 262.51 43.08 262.44 43.02C262.48 43.05 262.55 43.12 262.63 43.22Z" fill="url(#paint44_linear_50_2338)"/>
<path style="mix-blend-mode:multiply" opacity="0.5" d="M269.55 70.14L265.97 71.3C265.89 71.52 265.81 71.73 265.73 71.93C266.66 69.16 266.98 67.14 266.98 67.14C266.98 67.14 265.8 62.52 264.65 62.35C264.65 62.35 263.55 68.49 261.18 74.76C261.18 74.76 255.7 76.92 251.15 76.97C246.59 77.03 239.35 77.04 239.35 77.04L239.12 76.42C239.55 62 243.38 48.48 243.38 48.48C243.38 48.48 243.09 52.54 243.76 54.51L245.07 49.17L245.12 52.39L246.75 53.44C246.75 53.44 247.3 47.7 248.61 45.39C249.83 43.21 253.94 40.4 254.45 40.05C254.02 40.42 250.77 43.18 249.77 45.39C248.7 47.76 248.61 51.39 248.61 51.39C248.61 51.39 251.8 52.23 253.96 51.07L255.3 40.35C255.19 41.88 254.77 48.24 255.28 50.86C255.28 50.86 260.6 50.7 263.87 48.75C263.87 48.75 264.29 45.09 262.64 43.21C263.23 43.87 264.72 45.99 265.64 51.17L266.97 48.38L269.55 45.38C271.03 58.83 269.55 70.12 269.55 70.12V70.14Z" fill="url(#paint45_linear_50_2338)"/>
<g style="mix-blend-mode:screen" opacity="0.7">
<path d="M246.22 45.11L244.99 46.92H247.97C247.97 46.92 247.33 49.2 247.09 50.83L244.93 50.32L243.38 48.5C243.38 48.5 245.2 46.06 246.22 45.11Z" fill="#972A3D"/>
</g>
<g style="mix-blend-mode:screen" opacity="0.7">
<path d="M249.09 47.51H254.4L253.95 51.08C253.95 51.08 251.04 52.19 248.6 51.4L249.09 47.52V47.51Z" fill="#972A3D"/>
</g>
<g style="mix-blend-mode:screen" opacity="0.7">
<path d="M255.04 47.51C255.04 47.51 260.64 47.84 263.83 46.38L263.86 48.76C263.86 48.76 260.27 51.14 255.27 50.87L255.03 47.51H255.04Z" fill="#972A3D"/>
</g>
<g style="mix-blend-mode:screen" opacity="0.7">
<path d="M265.57 44.43L267.67 43.02L269.55 45.4L266.97 48.4C266.97 48.4 266.42 45.52 265.57 44.43Z" fill="#972A3D"/>
</g>
<g style="mix-blend-mode:screen" opacity="0.7">
<path d="M237.28 80.53L237.89 80.64C237.89 80.64 238.25 79.58 241.95 77.78L240.73 77.54C240.73 77.54 237.96 78.86 237.29 80.53H237.28Z" fill="#972A3D"/>
</g>
<g style="mix-blend-mode:screen" opacity="0.7">
<path d="M240.64 80.56C240.64 80.56 246.69 80.92 252.69 80.34L253.89 77.9C253.89 77.9 249.11 77.93 243.29 77.9C243.29 77.9 240.86 79.28 240.64 80.56Z" fill="#972A3D"/>
</g>
<g style="mix-blend-mode:screen" opacity="0.7">
<path d="M260.68 75.26L264.74 72.74L262.71 78.25L257.59 82.04C257.59 82.04 260.19 77.91 260.68 75.26Z" fill="#972A3D"/>
</g>
<path fill-rule="evenodd" clip-rule="evenodd" d="M243.38 48.49C243.38 48.49 240.14 60.81 237.29 72.73C234.44 84.65 231.22 87.4 230.33 90.29C229.43 93.19 232.37 104.48 231.59 107.35C230.81 110.22 228.48 112.93 228.48 112.93C228.48 112.93 230.78 111.72 232 108.27C233.22 104.82 230.05 95.16 231.69 89.76C233.33 84.36 236.35 78.7 237.96 74.89C239.57 71.07 241.28 60.28 241.28 60.28L243.39 48.48L243.38 48.49Z" fill="url(#paint46_linear_50_2338)"/>
<path fill-rule="evenodd" clip-rule="evenodd" d="M265.72 71.93C265.72 71.93 261.38 87.04 257.59 95.97C253.8 104.89 243.37 107.64 243.37 107.64L244.63 106.37C244.63 106.37 251.74 103.53 256.42 95.63C261.11 87.73 262.7 78.26 262.7 78.26L265.71 71.94L265.72 71.93Z" fill="url(#paint47_linear_50_2338)"/>
<path style="mix-blend-mode:multiply" opacity="0.5" fill-rule="evenodd" clip-rule="evenodd" d="M254.85 76.57C254.85 76.57 263.38 66.98 265.65 55.76C265.65 55.76 264.27 66.34 260.83 74.9C260.83 74.9 256.69 76.28 254.85 76.57Z" fill="url(#paint48_linear_50_2338)"/>
<path style="mix-blend-mode:multiply" opacity="0.91" d="M283.89 146.82C283.5 151 277.8 158.27 273.39 159.37C268.96 160.48 266.02 159.37 261.86 158.9C257.7 158.42 254.67 160.08 254.67 160.08C254.67 160.08 253.65 163.82 252.47 169.46L246.32 172.35L245.42 164.97C238.61 165.29 234.14 163.63 234.14 163.63C239.19 164.81 244.01 163.63 244.01 163.63C244.01 163.63 255.06 156.84 256.41 156.66C257.75 156.48 262.8 157.31 271.42 156.66C279.41 156.06 283.32 147.01 283.85 145.71C283.91 146.12 283.93 146.49 283.9 146.81L283.89 146.82Z" fill="url(#paint49_linear_50_2338)"/>
<path style="mix-blend-mode:multiply" opacity="0.91" fill-rule="evenodd" clip-rule="evenodd" d="M228.82 174.47C228.82 174.47 233.06 205.19 235.93 213.09C235.93 213.09 230.21 202.83 228.82 174.47Z" fill="url(#paint50_linear_50_2338)"/>
<path style="mix-blend-mode:multiply" opacity="0.5" fill-rule="evenodd" clip-rule="evenodd" d="M228.34 247.45C228.34 247.45 230.85 257.74 232.43 260.48C234.01 263.22 237.75 264.22 237.75 264.22C237.75 264.22 234.85 264.43 233.58 263.96C232.32 263.49 231.39 260.14 231.39 260.14C231.39 260.14 229.14 252.79 228.33 247.46L228.34 247.45Z" fill="url(#paint51_linear_50_2338)"/>
<g style="mix-blend-mode:soft-light" opacity="0.33">
<path fill-rule="evenodd" clip-rule="evenodd" d="M226.69 230.3C226.69 230.3 229.42 222.79 232.37 221.45C235.32 220.11 240.38 219.77 240.38 219.77C240.38 219.77 240.91 224.93 240.38 240.09C239.85 255.25 235.93 260.2 235.93 260.2C235.93 260.2 227.11 255.36 226.69 230.3Z" fill="#ECD6E0"/>
</g>
<path fill-rule="evenodd" clip-rule="evenodd" d="M314.3 218.06C314.3 218.06 321.41 204.08 325.12 199.97C325.12 199.97 315.72 180.3 315.8 179.04C315.88 177.78 316.78 174.5 316.78 174.5L317.25 175.99C317.25 175.99 316.74 177.82 316.74 179.12C316.74 180.42 326.24 199.81 326.24 199.81L315.95 216.72L314.28 218.05L314.3 218.06Z" fill="#4B1124"/>
<g style="mix-blend-mode:soft-light" opacity="0.33">
<path fill-rule="evenodd" clip-rule="evenodd" d="M328.99 202.66C328.99 202.66 328.2 191.66 328.99 189.71C329.78 187.76 341.89 198.5 341.89 198.5C341.89 198.5 333.68 194.39 328.99 202.66Z" fill="#DDB6C8"/>
</g>
<path fill-rule="evenodd" clip-rule="evenodd" d="M341.89 198.5L325.88 221.03L319.67 222.29C319.67 222.29 325.36 209.13 328.99 202.65C328.99 202.65 331.46 194.8 341.89 198.49V198.5Z" fill="#4B1124"/>
<path style="mix-blend-mode:multiply" opacity="0.5" fill-rule="evenodd" clip-rule="evenodd" d="M328.99 189.71C328.99 189.71 323.3 183.81 321.03 175.06L321.09 171.55C321.09 171.55 334.42 191.79 339.05 196.07C339.05 196.07 331.36 189.24 328.99 189.71Z" fill="url(#paint52_linear_50_2338)"/>
<path fill-rule="evenodd" clip-rule="evenodd" d="M314.3 213.98L313.03 211.47L319.67 200.61L321.03 202.66L314.3 213.98Z" fill="url(#paint53_linear_50_2338)"/>
<path style="mix-blend-mode:multiply" opacity="0.91" fill-rule="evenodd" clip-rule="evenodd" d="M274.02 94.14L272.24 90.35L270.61 91.38C270.61 91.38 267.91 88.35 266.43 85.43C266.43 85.43 268.38 90.4 269.67 92.4L269.69 105.56C269.69 105.56 272.28 97.24 274.01 94.13L274.02 94.14Z" fill="url(#paint54_linear_50_2338)"/>
<path style="mix-blend-mode:multiply" opacity="0.91" fill-rule="evenodd" clip-rule="evenodd" d="M245.67 117.6L256.8 116.33V117.02C256.8 117.02 248.91 119.37 246.7 118.39L245.67 117.6Z" fill="url(#paint55_linear_50_2338)"/>
<g style="mix-blend-mode:soft-light" opacity="0.33">
<path fill-rule="evenodd" clip-rule="evenodd" d="M270.2 128.18C270.2 128.18 264.24 132.49 256.02 134.14L254.74 132.21L252.37 134.67C251.94 134.71 251.49 134.74 251.04 134.76C240.36 135.21 235.91 133.55 235.91 133.55C235.91 133.55 243.65 124.52 250.63 120.33C257.62 116.13 268.78 115.39 268.78 115.39C268.78 115.39 271.42 124.15 270.19 128.18H270.2Z" fill="#ECD6E0"/>
</g>
<path fill-rule="evenodd" clip-rule="evenodd" d="M232.56 135.21C232.56 135.21 240.35 137.12 249.91 135.85L254.85 131.19L257.56 134.95C257.56 134.95 266.22 129.24 277.58 130.09L277.11 130.84L276.55 130.17C276.55 130.17 267.55 130.41 257.2 135.94L254.75 132.22L250.65 136.49C250.65 136.49 238.96 138.54 232.56 135.22V135.21Z" fill="#2B1548"/>
<g style="mix-blend-mode:soft-light" opacity="0.57">
<path fill-rule="evenodd" clip-rule="evenodd" d="M273.27 68.75L272.74 71.93C272.74 71.93 278.03 76.37 281.92 82.97C285.8 89.56 287.38 94.28 287.38 94.28C287.38 94.28 282.29 74.14 273.28 68.76L273.27 68.75Z" fill="#ECD6E0"/>
</g>
<path style="mix-blend-mode:screen" opacity="0.7" fill-rule="evenodd" clip-rule="evenodd" d="M291.97 107.12C291.97 107.12 294.77 119.1 297.39 123.84C300.01 128.58 305.04 131.42 305.04 131.42C305.04 131.42 297.37 120.86 291.98 107.12H291.97Z" fill="url(#paint56_linear_50_2338)"/>
<path style="mix-blend-mode:screen" opacity="0.7" d="M245.85 219.14C245.85 219.14 242.37 222.81 241.98 234.83C241.58 246.85 244.15 258.44 244.15 258.44L244.95 257.73C244.95 257.73 243.57 238.08 245.85 219.14Z" fill="url(#paint57_linear_50_2338)"/>
<path style="mix-blend-mode:screen" d="M246.43 303.49L244.49 298.22C244.49 298.22 241.17 283.48 241.17 280.85C241.17 278.22 242.27 273.42 242.27 273.42C242.27 273.42 242.54 276.5 242.95 281.42C243.4 286.62 243.53 294.12 244.95 297.85C246.38 301.58 246.43 303.49 246.43 303.49Z" fill="url(#paint58_linear_50_2338)"/>
<path fill-rule="evenodd" clip-rule="evenodd" d="M316.78 174.51C310.89 155.14 304.84 149.72 304.84 149.72L304.3 150L302.97 148.31L303.41 146.75L305.34 146.35C306.46 146.94 307.44 147.73 308.37 148.73L306.57 150.34C306.57 150.34 314.69 162.43 316.79 174.52L316.78 174.51Z" fill="#581124"/>
<path style="mix-blend-mode:screen" fill-rule="evenodd" clip-rule="evenodd" d="M256.09 39.86C256.09 39.86 257.94 38.56 262.24 40.06C266.96 41.71 268.7 46.38 268.7 46.38C268.7 46.38 270.57 58.37 269.73 68.4C269.73 68.4 271.07 54.4 269.55 45.39C269.55 45.39 266.85 40.9 262.44 39.58C258.03 38.26 256.1 39.85 256.1 39.85L256.09 39.86Z" fill="url(#paint59_linear_50_2338)"/>
<path style="mix-blend-mode:multiply" opacity="0.91" d="M242.53 289.06L230.29 291.35L230.64 282.64L240.22 282.66C240.22 282.66 241.91 285.55 242.53 289.05V289.06Z" fill="url(#paint60_linear_50_2338)"/>
<path fill-rule="evenodd" clip-rule="evenodd" d="M230.64 282.64C230.64 282.64 233.32 295.32 233.9 303.48H236.64C236.64 303.48 237.54 289.37 240.22 282.66C240.22 282.66 238.75 279.16 235.43 279.21C232.11 279.26 230.64 280.58 230.64 280.58V282.64Z" fill="url(#paint61_linear_50_2338)"/>
<path style="mix-blend-mode:multiply" opacity="0.91" d="M272.2 210.89L262.23 216.87C262.23 216.87 262.88 211.68 263.77 209.66C264.66 207.64 272.59 206.68 272.59 206.68L272.2 210.89Z" fill="url(#paint62_linear_50_2338)"/>
<path fill-rule="evenodd" clip-rule="evenodd" d="M263.77 209.66C263.77 209.66 266.36 214.78 266.87 224.78L269.55 224.71C269.55 224.71 270.67 209.41 272.58 206.68C272.58 206.68 271.57 204.81 268.31 205.17C264.74 205.56 263.76 209.66 263.76 209.66H263.77Z" fill="url(#paint63_linear_50_2338)"/>
<path style="mix-blend-mode:screen" opacity="0.7" d="M273.97 162.79C273.97 162.79 274.75 167.24 274.38 172.37C274.01 177.5 273.15 184.51 273.15 184.51C273.15 184.51 275.77 174.66 275.87 171.25C275.97 167.84 273.98 162.8 273.98 162.8L273.97 162.79Z" fill="url(#paint64_linear_50_2338)"/>
<path style="mix-blend-mode:screen" d="M309.01 149.47C309.01 149.47 314.53 158.29 318.67 168.6C322.82 178.91 341.88 198.5 341.88 198.5C341.88 198.5 328.56 183.49 321.02 170.56C318.74 166.64 312.31 153.7 309 149.47H309.01Z" fill="url(#paint65_linear_50_2338)"/>
<path style="mix-blend-mode:screen" opacity="0.5" d="M233.11 216.93C233.11 216.93 229.89 224.93 228.82 232.57C227.69 240.6 230.79 258.21 230.79 258.21C230.79 258.21 225.84 239.99 226.69 230.3C227.52 226.46 232.83 218.69 233.11 216.93Z" fill="url(#paint66_linear_50_2338)"/>
<path style="mix-blend-mode:screen" opacity="0.5" d="M259.17 158.88C259.17 158.88 264.75 174.51 260.27 188.52C260.27 188.52 260.13 163.11 259.17 158.88Z" fill="url(#paint67_linear_50_2338)"/>
</g>
<defs>
<linearGradient id="paint0_linear_50_2338" x1="354.21" y1="189.67" x2="354.21" y2="39.06" gradientUnits="userSpaceOnUse">
<stop offset="0.02" stop-color="#8C74B1"/>
<stop offset="1" stop-color="#DCD8E9"/>
</linearGradient>
<linearGradient id="paint1_linear_50_2338" x1="350.88" y1="323.61" x2="350.88" y2="78.16" gradientUnits="userSpaceOnUse">
<stop offset="0.02" stop-color="#8268AA"/>
<stop offset="1" stop-color="#A9A1CA"/>
</linearGradient>
<linearGradient id="paint2_linear_50_2338" x1="254.32" y1="343.47" x2="307.18" y2="26.2801" gradientUnits="userSpaceOnUse">
<stop stop-color="#948ABC"/>
<stop offset="1" stop-color="#F4F2F8"/>
</linearGradient>
<linearGradient id="paint3_linear_50_2338" x1="249.46" y1="342.66" x2="302.32" y2="25.4699" gradientUnits="userSpaceOnUse">
<stop stop-color="#948ABC"/>
<stop offset="1" stop-color="#F4F2F8"/>
</linearGradient>
<linearGradient id="paint4_linear_50_2338" x1="246.39" y1="342.15" x2="299.25" y2="24.96" gradientUnits="userSpaceOnUse">
<stop stop-color="#948ABC"/>
<stop offset="1" stop-color="#F4F2F8"/>
</linearGradient>
<linearGradient id="paint5_linear_50_2338" x1="242.47" y1="341.5" x2="295.34" y2="24.31" gradientUnits="userSpaceOnUse">
<stop stop-color="#948ABC"/>
<stop offset="1" stop-color="#F4F2F8"/>
</linearGradient>
<linearGradient id="paint6_linear_50_2338" x1="241.99" y1="341.42" x2="294.85" y2="24.2301" gradientUnits="userSpaceOnUse">
<stop stop-color="#948ABC"/>
<stop offset="1" stop-color="#F4F2F8"/>
</linearGradient>
<linearGradient id="paint7_linear_50_2338" x1="242.71" y1="341.54" x2="295.57" y2="24.35" gradientUnits="userSpaceOnUse">
<stop stop-color="#948ABC"/>
<stop offset="1" stop-color="#F4F2F8"/>
</linearGradient>
<linearGradient id="paint8_linear_50_2338" x1="493.52" y1="299.69" x2="26.28" y2="299.69" gradientUnits="userSpaceOnUse">
<stop offset="0.02" stop-color="#D8CFE4"/>
<stop offset="1" stop-color="white"/>
</linearGradient>
<linearGradient id="paint9_linear_50_2338" x1="440.61" y1="264.18" x2="79.3501" y2="264.18" gradientUnits="userSpaceOnUse">
<stop offset="0.02" stop-color="#D8CFE4"/>
<stop offset="1" stop-color="white"/>
</linearGradient>
<linearGradient id="paint10_linear_50_2338" x1="410.29" y1="242.81" x2="112.9" y2="242.81" gradientUnits="userSpaceOnUse">
<stop offset="0.02" stop-color="#D8CFE4"/>
<stop offset="1" stop-color="white"/>
</linearGradient>
<linearGradient id="paint11_linear_50_2338" x1="374.52" y1="217.17" x2="149.23" y2="217.17" gradientUnits="userSpaceOnUse">
<stop offset="0.02" stop-color="#D8CFE4"/>
<stop offset="1" stop-color="white"/>
</linearGradient>
<linearGradient id="paint12_linear_50_2338" x1="361.3" y1="207.25" x2="160.45" y2="207.25" gradientUnits="userSpaceOnUse">
<stop offset="0.02" stop-color="#D8CFE4"/>
<stop offset="1" stop-color="white"/>
</linearGradient>
<linearGradient id="paint13_linear_50_2338" x1="387.12" y1="227.4" x2="133.45" y2="227.4" gradientUnits="userSpaceOnUse">
<stop offset="0.02" stop-color="#D8CFE4"/>
<stop offset="1" stop-color="white"/>
</linearGradient>
<linearGradient id="paint14_linear_50_2338" x1="40.75" y1="239.07" x2="115.28" y2="239.07" gradientUnits="userSpaceOnUse">
<stop stop-color="#FF6D27"/>
<stop offset="1" stop-color="#FF3347"/>
</linearGradient>
<linearGradient id="paint15_linear_50_2338" x1="301.208" y1="95.4638" x2="323.808" y2="96.6206" gradientUnits="userSpaceOnUse">
<stop stop-color="#FF6D27"/>
<stop offset="1" stop-color="#FF3347"/>
</linearGradient>
<linearGradient id="paint16_linear_50_2338" x1="407.02" y1="185.16" x2="332.49" y2="185.16" gradientUnits="userSpaceOnUse">
<stop stop-color="#FF6D27"/>
<stop offset="1" stop-color="#FF3347"/>
</linearGradient>
<linearGradient id="paint17_linear_50_2338" x1="267.12" y1="224.93" x2="267.12" y2="198.01" gradientUnits="userSpaceOnUse">
<stop stop-color="#570E33"/>
<stop offset="1" stop-color="#842F40"/>
</linearGradient>
<linearGradient id="paint18_linear_50_2338" x1="267.52" y1="193.44" x2="267.52" y2="156.68" gradientUnits="userSpaceOnUse">
<stop stop-color="#4B3272"/>
<stop offset="0.99" stop-color="#432160"/>
</linearGradient>
<linearGradient id="paint19_linear_50_2338" x1="238.27" y1="273.42" x2="238.27" y2="258.97" gradientUnits="userSpaceOnUse">
<stop stop-color="#F4867C"/>
<stop offset="0.98" stop-color="#FF9F68"/>
</linearGradient>
<linearGradient id="paint20_linear_50_2338" x1="238.14" y1="303.49" x2="238.14" y2="269.76" gradientUnits="userSpaceOnUse">
<stop stop-color="#570E33"/>
<stop offset="1" stop-color="#842F40"/>
</linearGradient>
<linearGradient id="paint21_linear_50_2338" x1="255.27" y1="265.42" x2="255.27" y2="129.61" gradientUnits="userSpaceOnUse">
<stop stop-color="#543C79"/>
<stop offset="0.99" stop-color="#432160"/>
</linearGradient>
<linearGradient id="paint22_linear_50_2338" x1="234.14" y1="204.48" x2="283.91" y2="204.48" gradientUnits="userSpaceOnUse">
<stop offset="0.01" stop-color="#BE6888"/>
<stop offset="1" stop-color="#8E81F4"/>
</linearGradient>
<linearGradient id="paint23_linear_50_2338" x1="301.74" y1="152.96" x2="301.74" y2="131.45" gradientUnits="userSpaceOnUse">
<stop stop-color="#F4867C"/>
<stop offset="0.98" stop-color="#FF9F68"/>
</linearGradient>
<linearGradient id="paint24_linear_50_2338" x1="299.93" y1="137.27" x2="299.93" y2="131.38" gradientUnits="userSpaceOnUse">
<stop offset="0.02" stop-color="#E1DBEB"/>
<stop offset="0.17" stop-color="#E6E1F1"/>
<stop offset="0.56" stop-color="#EFECFA"/>
<stop offset="1" stop-color="#F3F0FE"/>
</linearGradient>
<radialGradient id="paint25_radial_50_2338" cx="0" cy="0" r="1" gradientUnits="userSpaceOnUse" gradientTransform="translate(238.06 91.19) scale(11.87 11.87)">
<stop stop-color="#4B3272"/>
<stop offset="0.99" stop-color="#432160"/>
</radialGradient>
<linearGradient id="paint26_linear_50_2338" x1="255.79" y1="148.03" x2="255.79" y2="126.29" gradientUnits="userSpaceOnUse">
<stop offset="0.02" stop-color="#E1DBEB"/>
<stop offset="0.17" stop-color="#E6E1F1"/>
<stop offset="0.56" stop-color="#EFECFA"/>
<stop offset="1" stop-color="#F3F0FE"/>
</linearGradient>
<linearGradient id="paint27_linear_50_2338" x1="252.88" y1="147.45" x2="256.55" y2="126.63" gradientUnits="userSpaceOnUse">
<stop offset="0.01" stop-color="#BE6888"/>
<stop offset="1" stop-color="#8E81F4"/>
</linearGradient>
<radialGradient id="paint28_radial_50_2338" cx="0" cy="0" r="1" gradientUnits="userSpaceOnUse" gradientTransform="translate(246.52 90.75) scale(34.65)">
<stop stop-color="#543C79"/>
<stop offset="0.99" stop-color="#432160"/>
</radialGradient>
<linearGradient id="paint29_linear_50_2338" x1="301.74" y1="152.96" x2="301.74" y2="132.12" gradientUnits="userSpaceOnUse">
<stop stop-color="#B060F4"/>
<stop offset="1" stop-color="#FFEADB"/>
</linearGradient>
<linearGradient id="paint30_linear_50_2338" x1="301.48" y1="153.38" x2="301.48" y2="145.56" gradientUnits="userSpaceOnUse">
<stop stop-color="#F4867C"/>
<stop offset="0.98" stop-color="#FF9F68"/>
</linearGradient>
<linearGradient id="paint31_linear_50_2338" x1="299.79" y1="153.38" x2="299.79" y2="145.56" gradientUnits="userSpaceOnUse">
<stop offset="0.02" stop-color="#D1A1D6"/>
<stop offset="0.99" stop-color="#BD89C4"/>
</linearGradient>
<linearGradient id="paint32_linear_50_2338" x1="249.51" y1="131.31" x2="258.06" y2="82.85" gradientUnits="userSpaceOnUse">
<stop stop-color="#B060F4"/>
<stop offset="1" stop-color="#FFEADB"/>
</linearGradient>
<linearGradient id="paint33_linear_50_2338" x1="322.43" y1="202.66" x2="322.43" y2="146.35" gradientUnits="userSpaceOnUse">
<stop stop-color="#792244"/>
<stop offset="1" stop-color="#893100"/>
</linearGradient>
<linearGradient id="paint34_linear_50_2338" x1="242.8" y1="89.2" x2="272.3" y2="89.2" gradientUnits="userSpaceOnUse">
<stop offset="0.02" stop-color="#D1A1D6"/>
<stop offset="0.99" stop-color="#BD89C4"/>
</linearGradient>
<linearGradient id="paint35_linear_50_2338" x1="248.46" y1="126.21" x2="258.97" y2="66.64" gradientUnits="userSpaceOnUse">
<stop offset="0.02" stop-color="#D1A1D6"/>
<stop offset="0.99" stop-color="#BD89C4"/>
</linearGradient>
<linearGradient id="paint36_linear_50_2338" x1="275.4" y1="133.96" x2="286.49" y2="71.08" gradientUnits="userSpaceOnUse">
<stop offset="0.02" stop-color="#D1A1D6"/>
<stop offset="0.99" stop-color="#BD89C4"/>
</linearGradient>
<linearGradient id="paint37_linear_50_2338" x1="248.6" y1="118.95" x2="248.6" y2="39.07" gradientUnits="userSpaceOnUse">
<stop stop-color="#721D3B"/>
<stop offset="1" stop-color="#A63624"/>
</linearGradient>
<linearGradient id="paint38_linear_50_2338" x1="243.33" y1="121.08" x2="257.78" y2="39.14" gradientUnits="userSpaceOnUse">
<stop stop-color="#8E2A3B"/>
<stop offset="1" stop-color="#BA4324"/>
</linearGradient>
<linearGradient id="paint39_linear_50_2338" x1="232.75" y1="110.69" x2="242.5" y2="55.36" gradientUnits="userSpaceOnUse">
<stop stop-color="#8E2A3B"/>
<stop offset="1" stop-color="#BA4324"/>
</linearGradient>
<linearGradient id="paint40_linear_50_2338" x1="235.62" y1="111.08" x2="247.22" y2="45.28" gradientUnits="userSpaceOnUse">
<stop stop-color="#8E2A3B"/>
<stop offset="1" stop-color="#BA4324"/>
</linearGradient>
<linearGradient id="paint41_linear_50_2338" x1="267.12" y1="71.5" x2="271.66" y2="45.76" gradientUnits="userSpaceOnUse">
<stop offset="0.01" stop-color="#BE6888"/>
<stop offset="1" stop-color="#8E81F4"/>
</linearGradient>
<linearGradient id="paint42_linear_50_2338" x1="245.59" y1="104.55" x2="248.64" y2="87.24" gradientUnits="userSpaceOnUse">
<stop offset="0.01" stop-color="#BE6888"/>
<stop offset="1" stop-color="#8E81F4"/>
</linearGradient>
<linearGradient id="paint43_linear_50_2338" x1="240.97" y1="120.67" x2="249.2" y2="73.99" gradientUnits="userSpaceOnUse">
<stop offset="0.01" stop-color="#BE6888"/>
<stop offset="1" stop-color="#8E81F4"/>
</linearGradient>
<linearGradient id="paint44_linear_50_2338" x1="262.52" y1="43.2" x2="262.54" y2="43.04" gradientUnits="userSpaceOnUse">
<stop offset="0.01" stop-color="#BE6888"/>
<stop offset="1" stop-color="#8E81F4"/>
</linearGradient>
<linearGradient id="paint45_linear_50_2338" x1="252.68" y1="79.4" x2="259.46" y2="40.94" gradientUnits="userSpaceOnUse">
<stop offset="0.01" stop-color="#BE6888"/>
<stop offset="1" stop-color="#8E81F4"/>
</linearGradient>
<linearGradient id="paint46_linear_50_2338" x1="235.93" y1="112.94" x2="235.93" y2="48.49" gradientUnits="userSpaceOnUse">
<stop stop-color="#721D3B"/>
<stop offset="1" stop-color="#A63624"/>
</linearGradient>
<linearGradient id="paint47_linear_50_2338" x1="254.55" y1="107.63" x2="254.55" y2="71.93" gradientUnits="userSpaceOnUse">
<stop stop-color="#721D3B"/>
<stop offset="1" stop-color="#A63624"/>
</linearGradient>
<linearGradient id="paint48_linear_50_2338" x1="260.25" y1="76.57" x2="260.25" y2="55.76" gradientUnits="userSpaceOnUse">
<stop offset="0.01" stop-color="#BE6888"/>
<stop offset="1" stop-color="#8E81F4"/>
</linearGradient>
<linearGradient id="paint49_linear_50_2338" x1="234.14" y1="159.04" x2="283.91" y2="159.04" gradientUnits="userSpaceOnUse">
<stop offset="0.02" stop-color="#D1A1D6"/>
<stop offset="0.99" stop-color="#BD89C4"/>
</linearGradient>
<linearGradient id="paint50_linear_50_2338" x1="228.82" y1="193.78" x2="235.93" y2="193.78" gradientUnits="userSpaceOnUse">
<stop offset="0.02" stop-color="#D1A1D6"/>
<stop offset="0.99" stop-color="#BD89C4"/>
</linearGradient>
<linearGradient id="paint51_linear_50_2338" x1="228.34" y1="255.85" x2="237.75" y2="255.85" gradientUnits="userSpaceOnUse">
<stop offset="0.01" stop-color="#BE6888"/>
<stop offset="1" stop-color="#8E81F4"/>
</linearGradient>
<linearGradient id="paint52_linear_50_2338" x1="321.03" y1="183.8" x2="339.05" y2="183.8" gradientUnits="userSpaceOnUse">
<stop offset="0.01" stop-color="#BE6888"/>
<stop offset="1" stop-color="#8E81F4"/>
</linearGradient>
<linearGradient id="paint53_linear_50_2338" x1="313.03" y1="207.29" x2="321.03" y2="207.29" gradientUnits="userSpaceOnUse">
<stop offset="0.01" stop-color="#BE6888"/>
<stop offset="1" stop-color="#8E81F4"/>
</linearGradient>
<linearGradient id="paint54_linear_50_2338" x1="266.44" y1="95.51" x2="274.02" y2="95.51" gradientUnits="userSpaceOnUse">
<stop offset="0.02" stop-color="#D1A1D6"/>
<stop offset="0.99" stop-color="#BD89C4"/>
</linearGradient>
<linearGradient id="paint55_linear_50_2338" x1="245.67" y1="117.48" x2="256.8" y2="117.48" gradientUnits="userSpaceOnUse">
<stop offset="0.02" stop-color="#D1A1D6"/>
<stop offset="0.99" stop-color="#BD89C4"/>
</linearGradient>
<linearGradient id="paint56_linear_50_2338" x1="291.97" y1="119.27" x2="305.03" y2="119.27" gradientUnits="userSpaceOnUse">
<stop stop-color="#4AF4FF"/>
<stop offset="0.09" stop-color="#46E9F4"/>
<stop offset="0.23" stop-color="#3ECFD8"/>
<stop offset="0.43" stop-color="#31A3AA"/>
<stop offset="0.66" stop-color="#1F666B"/>
<stop offset="0.92" stop-color="#081A1B"/>
<stop offset="1"/>
</linearGradient>
<linearGradient id="paint57_linear_50_2338" x1="241.14" y1="257.91" x2="247.91" y2="219.5" gradientUnits="userSpaceOnUse">
<stop stop-color="#4AF4FF"/>
<stop offset="0.09" stop-color="#46E9F4"/>
<stop offset="0.23" stop-color="#3ECFD8"/>
<stop offset="0.43" stop-color="#31A3AA"/>
<stop offset="0.66" stop-color="#1F666B"/>
<stop offset="0.92" stop-color="#081A1B"/>
<stop offset="1"/>
</linearGradient>
<linearGradient id="paint58_linear_50_2338" x1="241.81" y1="302.67" x2="246.82" y2="274.22" gradientUnits="userSpaceOnUse">
<stop stop-color="#984072"/>
<stop offset="0.15" stop-color="#AB4373"/>
<stop offset="0.53" stop-color="#D84A76"/>
<stop offset="0.83" stop-color="#F44F78"/>
<stop offset="1" stop-color="#FF5179"/>
</linearGradient>
<linearGradient id="paint59_linear_50_2338" x1="256.09" y1="53.73" x2="270.28" y2="53.73" gradientUnits="userSpaceOnUse">
<stop/>
<stop offset="0.08" stop-color="#1B080D"/>
<stop offset="0.34" stop-color="#6B2232"/>
<stop offset="0.57" stop-color="#AA3651"/>
<stop offset="0.77" stop-color="#D84466"/>
<stop offset="0.91" stop-color="#F44D74"/>
<stop offset="1" stop-color="#FF5179"/>
</linearGradient>
<linearGradient id="paint60_linear_50_2338" x1="230.29" y1="287" x2="242.53" y2="287" gradientUnits="userSpaceOnUse">
<stop offset="0.02" stop-color="#D1A1D6"/>
<stop offset="0.99" stop-color="#BD89C4"/>
</linearGradient>
<linearGradient id="paint61_linear_50_2338" x1="235.43" y1="303.49" x2="235.43" y2="279.21" gradientUnits="userSpaceOnUse">
<stop stop-color="#6D2822"/>
<stop offset="0.99" stop-color="#570E33"/>
</linearGradient>
<linearGradient id="paint62_linear_50_2338" x1="262.23" y1="211.77" x2="272.59" y2="211.77" gradientUnits="userSpaceOnUse">
<stop offset="0.02" stop-color="#D1A1D6"/>
<stop offset="0.99" stop-color="#BD89C4"/>
</linearGradient>
<linearGradient id="paint63_linear_50_2338" x1="268.18" y1="224.78" x2="268.18" y2="205.12" gradientUnits="userSpaceOnUse">
<stop stop-color="#6D2822"/>
<stop offset="0.99" stop-color="#570E33"/>
</linearGradient>
<linearGradient id="paint64_linear_50_2338" x1="271.95" y1="184.29" x2="275.69" y2="163.09" gradientUnits="userSpaceOnUse">
<stop stop-color="#4AF4FF"/>
<stop offset="0.09" stop-color="#46E9F4"/>
<stop offset="0.23" stop-color="#3ECFD8"/>
<stop offset="0.43" stop-color="#31A3AA"/>
<stop offset="0.66" stop-color="#1F666B"/>
<stop offset="0.92" stop-color="#081A1B"/>
<stop offset="1"/>
</linearGradient>
<linearGradient id="paint65_linear_50_2338" x1="321.75" y1="194.95" x2="329.15" y2="153.02" gradientUnits="userSpaceOnUse">
<stop stop-color="#FF5179"/>
<stop offset="0.09" stop-color="#F44D74"/>
<stop offset="0.23" stop-color="#D84466"/>
<stop offset="0.43" stop-color="#AA3651"/>
<stop offset="0.66" stop-color="#6B2232"/>
<stop offset="0.92" stop-color="#1B080D"/>
<stop offset="1"/>
</linearGradient>
<linearGradient id="paint66_linear_50_2338" x1="226.41" y1="257.44" x2="233.54" y2="217.01" gradientUnits="userSpaceOnUse">
<stop stop-color="#FF5179"/>
<stop offset="0.09" stop-color="#F44D74"/>
<stop offset="0.23" stop-color="#D84466"/>
<stop offset="0.43" stop-color="#AA3651"/>
<stop offset="0.66" stop-color="#6B2232"/>
<stop offset="0.92" stop-color="#1B080D"/>
<stop offset="1"/>
</linearGradient>
<linearGradient id="paint67_linear_50_2338" x1="257.36" y1="188.01" x2="262.39" y2="159.44" gradientUnits="userSpaceOnUse">
<stop stop-color="#FF5179"/>
<stop offset="0.09" stop-color="#F44D74"/>
<stop offset="0.23" stop-color="#D84466"/>
<stop offset="0.43" stop-color="#AA3651"/>
<stop offset="0.66" stop-color="#6B2232"/>
<stop offset="0.92" stop-color="#1B080D"/>
<stop offset="1"/>
</linearGradient>
<clipPath id="clip0_50_2338">
<rect width="493.52" height="374.45" fill="white"/>
</clipPath>
</defs>
</svg>
