<svg id="Layer_1" enable-background="new 0 0 512 512" height="512" viewBox="0 0 512 512" width="512" xmlns="http://www.w3.org/2000/svg"><path d="m512 215.76c-.005-2.475-1.329-4.761-3.473-5.993l-35.173-20.201 35.187-20.31c2.144-1.239 3.464-3.527 3.459-6.002s-1.329-4.759-3.473-5.991c-59.959-34.421-119.914-68.856-179.865-103.3-2.14-1.23-4.766-1.227-6.905.007l-318.293 183.77c-2.144 1.236-3.464 3.525-3.459 5.998.005 2.475 1.324 4.759 3.473 5.993 11.722 6.736 23.447 13.464 35.17 20.199l-35.189 20.314c-2.144 1.236-3.464 3.525-3.459 5.998.005 2.475 1.329 4.761 3.473 5.993l35.172 20.2-35.186 20.311c-2.144 1.239-3.464 3.527-3.459 6 .005 2.475 1.329 4.761 3.473 5.993l179.865 103.3c1.068.613 2.257.919 3.446.919 1.194 0 2.387-.309 3.459-.928l318.297-183.768c2.144-1.236 3.464-3.525 3.459-6-.005-2.473-1.329-4.759-3.473-5.991l-35.172-20.199 35.186-20.314c2.145-1.237 3.465-3.525 3.46-5.998zm-186.775-147.813c55.324 31.786 110.653 63.563 165.986 95.331l-119.802 69.15c-3.811-2.158-10.803-6.156-19.895-11.369l68.107-39.299c1.635-.946 2.815-2.518 3.261-4.354.45-1.833.126-3.773-.892-5.365-1.464-2.293-3.613-6.854-1.532-11.631 1.405-3.232.153-7.005-2.901-8.759l-73.631-42.318c-1.784-1.023-3.932-1.203-5.865-.482-9.459 3.532-22.369 2.973-32.878-1.417-1.982-.824-4.257-.689-6.126.394l-72.072 41.617c-2.653-1.528-5.2-2.994-7.55-4.347l-13.953-8.032zm81.951 105.016-69.546 40.13c-28.339-16.271-67.376-38.738-96.783-55.667l62.279-35.967c11.914 4.164 25.387 4.687 36.586 1.414l66.315 38.113c-.586 3.938-.194 8.015 1.149 11.977zm-266.717 1.639c6.684 3.84 13.369 7.676 20.054 11.516l-67.991 39.277c-1.635.944-2.815 2.516-3.261 4.351-.45 1.836-.126 3.773.892 5.365 1.464 2.293 3.613 6.854 1.536 11.626-1.405 3.232-.153 7.005 2.901 8.759l73.608 42.252c1.779 1.025 3.937 1.203 5.865.482 9.45-3.529 22.36-2.975 32.883 1.41.851.358 1.757.534 2.662.534 1.198 0 2.396-.311 3.459-.928l11.342-6.55c20.233-11.685 40.463-23.368 60.699-35.04l21.358 12.26-119.693 69.128c-55.333-31.764-110.671-63.541-165.991-95.329zm-35.491 59.584 69.417-40.102c29.279 16.815 58.559 33.63 87.84 50.438l9.007 5.17c-17.917 10.336-35.83 20.677-53.741 31.021l-8.491 4.905c-11.923-4.164-25.387-4.676-36.59-1.408l-66.288-38.05c.581-3.936.189-8.013-1.154-11.974zm-52.448 43.711c43.604 25.049 87.207 50.097 130.818 75.131 1.068.613 2.257.919 3.446.919 1.194 0 2.392-.309 3.459-.928l123.19-71.148.088 36.505-126.746 73.174-165.991-95.331zm134.255 166.158-165.991-95.331 31.739-18.319 130.815 75.13c1.068.613 2.257.919 3.446.919 1.194 0 2.387-.309 3.459-.928l123.317-71.196.089 36.478zm140.693-81.225-.225-92.953c-.004-2.473-1.329-4.755-3.473-5.984 0 0-131.198-75.309-169.459-97.291l37.324-21.541s161.41 92.932 172.932 99.216l.194 97.018zm163.748-94.543-112.633 65.031-.073-36.487 80.989-46.758zm-112.739 12.585-.073-36.501 81.091-46.807 31.721 18.218zm-211.824-23.763c-1.91-3.309-.779-7.541 2.532-9.45l30.311-17.502c3.302-1.914 7.541-.782 9.45 2.532 1.91 3.309.779 7.541-2.532 9.45l-30.311 17.502c-1.09.631-2.279.928-3.455.928-2.387-.001-4.716-1.239-5.995-3.46zm182.689-105.487c1.91 3.309.779 7.541-2.532 9.45l-26.658 15.392c-1.09.631-2.279.928-3.455.928-2.387 0-4.716-1.239-5.995-3.459-1.91-3.309-.779-7.541 2.532-9.45l26.658-15.392c3.306-1.912 7.54-.784 9.45 2.531z"/></svg>