<?xml version="1.0" encoding="UTF-8"?>
<svg width="16px" height="20px" viewBox="0 0 16 20" version="1.1" xmlns="http://www.w3.org/2000/svg" xmlns:xlink="http://www.w3.org/1999/xlink">
    <title>file</title>
    <g id="Whitelabel-Admin" stroke="none" stroke-width="1" fill="none" fill-rule="evenodd">
        <g id="Admin-Bereich---Alle-Projekte" transform="translate(-1226.000000, -484.000000)" fill="#91919C" fill-rule="nonzero">
            <g id="Group-8" transform="translate(400.000000, 295.000000)">
                <g id="Group-10" transform="translate(826.000000, 189.000000)">
                    <g id="file" transform="translate(8.000000, 10.000000) rotate(-360.000000) translate(-8.000000, -10.000000) ">
                        <path d="M10.8829398,0.154571523 C10.7903394,0.0579833984 10.6633797,0 10.5317977,0 L2.65367283,0 C1.19995378,0 0,1.18362426 0,2.62313844 L0,17.376709 C0,18.8163757 1.19995378,20 2.65367283,20 L13.3463272,20 C14.8000462,20 16,18.8163757 16,17.376709 L16,5.66177367 C16,5.53619383 15.9414506,5.41549684 15.8585571,5.32363891 L10.8829398,0.154571523 Z M11.0243827,1.70532227 L14.3561496,5.16906738 L12.1902854,5.16906738 C11.5463965,5.16906738 11.0243827,4.65698242 11.0243827,4.01931762 L11.0243827,1.70532227 Z M13.3463272,19.0338135 L2.65367283,19.0338135 C1.74153539,19.0338135 0.975617272,18.2850647 0.975617272,17.376709 L0.975617272,2.62313844 C0.975617272,1.71981812 1.73660492,0.966186523 2.65367283,0.966186523 L10.0487655,0.966186523 L10.0487655,4.01931762 C10.0487655,5.19317625 11.004969,6.13525391 12.1902854,6.13525391 L15.0243827,6.13525391 L15.0243827,17.376709 C15.0243827,18.2850647 14.2633951,19.0338135 13.3463272,19.0338135 Z" id="Shape"></path>
                        <path d="M12.5077981,16 L4.48727681,16 C4.21932074,16 4,16.2248895 4,16.5 C4,16.7749526 4.21932074,17 4.48727681,17 L12.5127231,17 C12.7806793,17 13,16.7749526 13,16.5 C13,16.2248895 12.7806793,16 12.5077981,16 Z" id="Path"></path>
                        <path d="M8.12463078,13.855126 C8.2217396,13.9456544 8.35449804,14 8.49741901,14 C8.64050132,14 8.77325976,13.9456544 8.87020728,13.855126 L11.8629985,11.0071303 C12.0570549,10.8259306 12.0417305,10.5361827 11.8375115,10.3687125 C11.6331313,10.1966657 11.3063165,10.2101091 11.117422,10.3913088 L9.00812766,12.3970907 L9.00812766,7.45278468 C9.00812766,7.203653 8.77826039,7 8.49741901,7 C8.21657767,7 7.9867104,7.203653 7.9867104,7.45278468 L7.9867104,12.3970907 L5.88257795,10.3913088 C5.68852157,10.2102521 5.36670737,10.1966657 5.16248847,10.3687125 C4.95826956,10.5407592 4.94294506,10.8260736 5.13700141,11.0071303 L8.12463078,13.855126 Z" id="Path"></path>
                    </g>
                </g>
            </g>
        </g>
    </g>
</svg>