<?xml version="1.0" encoding="UTF-8"?>
<svg width="20px" height="27px" viewBox="0 0 20 27" version="1.1" xmlns="http://www.w3.org/2000/svg" xmlns:xlink="http://www.w3.org/1999/xlink">
    <title>transfer-money</title>
    <g id="Whitelabel-Customer" stroke="none" stroke-width="1" fill="none" fill-rule="evenodd">
        <g id="Kundenkonto---Zins--und-TIlgung" transform="translate(-1135.000000, -413.000000)" fill="#000000" fill-rule="nonzero">
            <g id="transfer-money" transform="translate(1135.000000, 413.000000)">
                <path d="M17.4306229,6.41732414 L2.56952998,6.41732414 C1.1541445,6.41732414 0.00261636124,7.56885229 0.00261636124,8.98423776 L0.00261636124,17.5406165 C0.00261636124,18.9560019 1.1541445,20.1075301 2.56952998,20.1075301 L17.4306229,20.1075301 C18.8460618,20.1075301 19.9975365,18.9560019 19.9975365,17.5406165 L19.9975365,8.98423776 C19.9975365,7.56885229 18.8460618,6.41732414 17.4306229,6.41732414 Z M14.5828996,18.3962543 L5.41730672,18.3962543 C5.06660215,16.52337 3.58677645,15.0435978 1.7138921,14.6928397 L1.7138921,11.831961 C3.58677645,11.4812565 5.06654867,10.0014308 5.41730672,8.12854641 L14.5828996,8.12854641 C14.9336042,10.0014308 16.4134299,11.481203 18.2862607,11.831961 L18.2862607,14.6928397 C16.4133764,15.0435978 14.9336042,16.5234235 14.5828996,18.3962543 L14.5828996,18.3962543 Z M18.2862607,8.98423776 L18.2862607,10.0722348 C17.3591771,9.78826997 16.6265372,9.05563004 16.3426258,8.12859989 L17.4306229,8.12859989 C17.9024002,8.12859989 18.2862607,8.51246043 18.2862607,8.98423776 Z M2.56952998,8.12859989 L3.65758048,8.12859989 C3.37366914,9.05568352 2.64097574,9.78832345 1.7138921,10.0722883 L1.7138921,8.98423776 C1.7138921,8.51246043 2.09775264,8.12859989 2.56952998,8.12859989 Z M1.7138921,17.5406165 L1.7138921,16.452566 C2.64097574,16.7365308 3.37361566,17.4691707 3.65758048,18.3962543 L2.56952998,18.3962543 C2.09775264,18.3962543 1.7138921,18.0124473 1.7138921,17.5406165 Z M17.4306229,18.3962543 L16.3426258,18.3962543 C16.6265372,17.4691707 17.3591771,16.7365308 18.2862607,16.4526194 L18.2862607,17.5406165 C18.2862607,18.0124473 17.9024002,18.3962543 17.4306229,18.3962543 Z M10.0001032,9.56970797 C7.96389894,9.56970797 6.30733054,11.2262764 6.30733054,13.2624806 C6.30733054,15.2986848 7.96389894,16.9552532 10.0001032,16.9552532 C12.0363074,16.9552532 13.6928758,15.2986848 13.6928758,13.2624806 C13.6928758,11.2262764 12.0363074,9.56970797 10.0001032,9.56970797 Z M10.0001032,15.243924 C8.90750708,15.243924 8.01860628,14.3550232 8.01860628,13.2624271 C8.01860628,12.169831 8.90750708,11.2809302 10.0001032,11.2809302 C11.0926992,11.2809302 11.9816,12.169831 11.9816,13.2624271 C11.9816,14.3550232 11.0926458,15.243924 10.0001032,15.243924 Z M12.1391978,2.56695372 C12.1391978,2.09442771 12.5222562,1.71131585 12.9948357,1.71131585 L17.0790627,1.71131585 L16.8284142,1.46066743 C16.4942342,1.12654084 16.4942342,0.584761638 16.8284142,0.25063505 C17.1625408,-0.0835450165 17.70432,-0.0835450165 18.0384466,0.25063505 L19.7494015,1.96158993 C19.9782312,2.19020567 20.0640623,2.53615076 19.9493534,2.85557107 C19.8623992,3.09830484 19.8967316,3.02493389 18.0384466,4.88321892 C17.8713833,5.05033569 17.6523935,5.13386734 17.4334572,5.13386734 C16.6781428,5.13386734 16.2877581,4.21378924 16.8284677,3.67324001 L17.0790627,3.42259159 L12.9948357,3.42259159 C12.5222562,3.42259159 12.1391978,3.03953321 12.1391978,2.56695372 L12.1391978,2.56695372 Z M7.86100848,23.9579005 C7.86100848,24.4304265 7.47789662,24.8135384 7.00537061,24.8135384 L2.92114366,24.8135384 L3.1717386,25.0641868 C3.50591867,25.3983134 3.50591867,25.9400926 3.1717386,26.2742192 C2.83766549,26.6083458 2.29583281,26.6083992 1.96170622,26.2742192 C0.136416733,24.4489297 0.211659389,24.5342796 0.143903565,24.43294 C-0.0101112521,24.2028803 -0.0470106353,23.9016423 0.0649709711,23.630619 C0.153048194,23.4182604 0.124812145,23.4785829 1.96170622,21.6416888 C2.29583281,21.3075087 2.83761202,21.3075087 3.1717386,21.6416888 C3.50591867,21.9758154 3.50591867,22.5175946 3.1717386,22.8517212 L2.92114366,23.1022626 L7.00537061,23.1022626 C7.47789662,23.1022626 7.86100848,23.4853745 7.86100848,23.9579005 L7.86100848,23.9579005 Z" id="Shape"></path>
            </g>
        </g>
    </g>
</svg>