<?xml version="1.0" encoding="UTF-8"?>
<svg width="25px" height="21px" viewBox="0 0 25 21" version="1.1" xmlns="http://www.w3.org/2000/svg" xmlns:xlink="http://www.w3.org/1999/xlink">
    <title>money (1)</title>
    <g id="Whitelabel-Customer" stroke="none" stroke-width="1" fill="none" fill-rule="evenodd">
        <g id="Kundenkonto---Zins--und-TIlgung" transform="translate(-1133.000000, -381.000000)" fill="#000000" fill-rule="nonzero">
            <g id="money-(1)" transform="translate(1133.000000, 381.000000)">
                <path d="M24.9324504,12.3776816 C24.8774662,12.2837836 24.7929888,12.210697 24.692133,12.1698745 L22.8991426,11.4359306 L24.7561684,10.3424035 C24.9909443,10.2049737 25.0698802,9.90326858 24.9324504,9.66849273 C24.8774662,9.57459471 24.7929888,9.50150819 24.692133,9.46068564 L22.8991426,8.72674175 L24.7561684,7.63321461 C24.9183503,7.53562224 25.010278,7.35373715 24.9926067,7.16526381 C24.9783835,6.97913022 24.8601027,6.81694832 24.6872072,6.74657098 L17.6285388,3.85512761 L14.1509255,2.37738823 C14.0944635,2.35503743 14.0343072,2.34340023 13.9735968,2.34290765 L8.30892917,0.0376342235 C8.16983695,-0.020120757 8.01196513,-0.0110080309 7.88038475,0.0622632131 L0.289730167,4.32800421 C0.0467651853,4.45034871 -0.0510119033,4.74651231 0.0713326024,4.9894773 C0.127117264,5.10030775 0.222739316,5.18601663 0.338988147,5.22942523 L2.17138497,5.98799811 L0.289730167,7.03719306 C0.0529840052,7.17117476 -0.0303235521,7.47177158 0.103658151,7.70851774 C0.156918341,7.80260048 0.239548601,7.87648745 0.338988147,7.91891089 L2.17138497,8.67748377 L0.299581763,9.72667872 C0.0492896567,9.83332225 -0.067082319,10.1227129 0.0395612058,10.3729434 C0.0951611498,10.5034155 0.204267574,10.6035323 0.338988147,10.6478029 L2.17138497,11.40145 L0.299581763,12.450645 C0.062835601,12.5846267 -0.0204719562,12.8852235 0.113509747,13.1219697 C0.166769937,13.2160524 0.249400197,13.2899394 0.348839742,13.3323628 L6.71789645,16.0366259 C6.74117084,16.0535583 6.76592298,16.0683972 6.79178342,16.080958 L10.2743225,17.5586974 L16.6778598,20.2826637 C16.8219394,20.3438051 16.9865226,20.3328452 17.1211816,20.2531089 L24.7561684,15.7607812 C24.9909443,15.6233514 25.0698802,15.3216463 24.9324504,15.0868704 C24.8774662,14.9929724 24.7929888,14.9198859 24.692133,14.8790633 L22.8991426,14.1451195 L24.7561684,13.0515923 C24.9909443,12.9142241 25.0698186,12.6124574 24.9324504,12.3776816 Z M23.3966482,9.98780758 L16.8305596,13.8545589 L10.9590085,11.3621052 L10.9590085,9.7218145 L16.672934,12.1502329 C16.7337061,12.1760933 16.7990345,12.1895161 16.8650402,12.1896393 C16.9534582,12.1896393 17.0402138,12.1658107 17.1162558,12.1206781 L21.8302445,9.34745386 L23.3966482,9.98780758 Z M23.4163514,7.27369293 L16.8305596,11.1404443 L11.4959204,8.87457726 L17.5053939,4.86005195 L23.4163514,7.27369293 Z M6.47653235,14.8741991 L1.64432459,12.8201414 L3.30431849,11.8891656 L6.48145815,13.2388342 L6.47653235,14.8741991 Z M6.47653235,12.1650103 L1.64432459,10.1109525 L3.30431849,9.17012513 L6.48145815,10.5197938 L6.47653235,12.1650103 Z M6.47653235,9.45582141 L1.64432459,7.40668948 L3.30431849,6.47571367 L6.48145815,7.8253823 L6.47653235,9.45582141 Z M1.64432459,4.69750062 L8.15622944,1.03763277 L12.8800696,2.97347135 L6.92970576,6.94366447 L1.64432459,4.69750062 Z M10.190584,8.56917779 C10.0548167,8.66092077 9.97360258,8.81417466 9.97384887,8.97801901 L9.97384887,16.3667159 L7.46661773,15.3027435 L7.46661773,7.77119852 L13.9933,3.42171896 L16.4217183,4.40687855 L10.190584,8.56917779 Z M23.3966482,15.4061853 L16.8305596,19.2680109 L10.9590085,16.7755571 L10.9590085,15.1401922 L16.672934,17.5439816 C16.8170136,17.6051231 16.9815968,17.5941632 17.1162558,17.5144268 L21.8302445,14.7412026 L23.3966482,15.4061853 Z M16.8305596,16.558822 L10.9590085,14.0663683 L10.9590085,12.4310034 L16.6778598,14.8594217 C16.8219394,14.9205632 16.9865226,14.9096033 17.1211816,14.8298669 L21.8351702,12.0566427 L23.3966482,12.6969964 L16.8305596,16.558822 Z" id="Shape"></path>
            </g>
        </g>
    </g>
</svg>