<?xml version="1.0" encoding="UTF-8"?>
<svg width="20px" height="20px" viewBox="0 0 20 20" version="1.1" xmlns="http://www.w3.org/2000/svg" xmlns:xlink="http://www.w3.org/1999/xlink">
    <title>time</title>
    <g id="Whitelabel-Customer" stroke="none" stroke-width="1" fill="none" fill-rule="evenodd">
        <g id="Kundenkonto---Zins--und-TIlgung" transform="translate(-1135.000000, -344.000000)" fill="#000000" fill-rule="nonzero">
            <g id="time" transform="translate(1135.000000, 344.000000)">
                <path d="M10,0 C4.47715468,0 0,4.47715468 0,10 C0,15.5228453 4.47715468,20 10,20 C15.5228453,20 20,15.5228453 20,10 C19.9941406,4.479624 15.5204179,0.00590123591 10,0 Z M10,18.5714405 C5.26612063,18.5714405 1.42855947,14.7338794 1.42855947,10 C1.42855947,5.26612063 5.26612063,1.42855947 10,1.42855947 C14.7338794,1.42855947 18.5714405,5.26612063 18.5714405,10 C18.5663345,14.7317867 14.7317867,18.5663345 10,18.5714405 Z" id="Shape"></path>
                <path d="M9.65516029,3.44827586 C9.27426125,3.44827586 8.965493,3.75704412 8.965493,4.13794316 L8.965493,8.96553341 L4.13794316,8.96553341 C3.75704412,8.96553341 3.44827586,9.27430166 3.44827586,9.6552007 C3.44827586,10.0360997 3.75704412,10.3448276 4.13794316,10.3448276 L9.65516029,10.3448276 C10.0360593,10.3448276 10.3448276,10.0360593 10.3448276,9.65516029 L10.3448276,4.13794316 C10.3448276,3.75704412 10.0360593,3.44827586 9.65516029,3.44827586 Z" id="Path"></path>
            </g>
        </g>
    </g>
</svg>