<svg width="20" height="20" viewBox="0 0 20 20" fill="none" xmlns="http://www.w3.org/2000/svg">
<path d="M18.7501 5.625C18.7501 6.96063 18.2301 8.21625 17.2857 9.16062L8.27948 18.2738C7.54698 19.0063 6.5851 19.3725 5.62385 19.3725C4.66385 19.3725 3.70385 19.0069 2.97323 18.2763C1.51135 16.8138 1.51135 14.435 2.97323 12.9731L9.47948 6.50375C10.4564 5.53312 12.0089 5.50125 12.942 6.43313C13.3976 6.88875 13.6376 7.50375 13.6182 8.16562C13.5988 8.81312 13.332 9.42688 12.8664 9.8925L6.69198 16.0669C6.4476 16.3113 6.0526 16.3113 5.80823 16.0669C5.56385 15.8225 5.56385 15.4275 5.80823 15.1831L11.9826 9.00875C12.222 8.76937 12.3595 8.45687 12.3689 8.12875C12.3782 7.815 12.2676 7.52625 12.0582 7.31687C11.6113 6.87187 10.8501 6.90375 10.3614 7.39L3.85573 13.8581C2.8826 14.8319 2.8826 16.4181 3.85698 17.3925C4.83198 18.3669 6.4176 18.3669 7.3926 17.3925L16.3988 8.27938C17.1101 7.56812 17.5001 6.62687 17.5001 5.625C17.5001 4.62313 17.1101 3.68187 16.402 2.97375C15.6932 2.265 14.752 1.875 13.7501 1.875C12.7482 1.875 11.807 2.265 11.0982 2.97375L2.31573 11.6937C2.0701 11.9369 1.6751 11.9356 1.43198 11.69C1.18885 11.445 1.1901 11.05 1.4351 10.8063L10.2164 2.08812C11.1589 1.145 12.4145 0.625 13.7501 0.625C15.0857 0.625 16.3413 1.145 17.2857 2.09C18.2301 3.03375 18.7501 4.28937 18.7501 5.625Z" fill="black"/>
</svg>
