<svg width="25" height="25" viewBox="0 0 25 25" fill="none" xmlns="http://www.w3.org/2000/svg">
<path d="M14.1079 9.64836L12.4999 6.39539L10.8919 9.64836C10.7851 9.86437 10.5786 10.0141 10.3399 10.0488L6.74414 10.5704L9.34605 13.1025C9.51882 13.2706 9.59766 13.5129 9.5569 13.7503L8.94269 17.3256L12.1588 15.6376C12.2656 15.5815 12.3828 15.5535 12.5 15.5535C12.6171 15.5535 12.7343 15.5815 12.8411 15.6376L16.0572 17.3256L15.443 13.7503C15.4023 13.5129 15.4811 13.2706 15.6539 13.1025L18.2558 10.5704L14.66 10.0488C14.4212 10.0141 14.2147 9.86437 14.1079 9.64836Z" fill="#6BC690"/>
<path fill-rule="evenodd" clip-rule="evenodd" d="M0 12.5C0 5.60747 5.60747 0 12.5 0C19.3925 0 25 5.60747 25 12.5C25 19.3925 19.3925 25 12.5 25C5.60747 25 0 19.3925 0 12.5ZM16.9491 13.8561L20.3354 10.5552C20.5351 10.3606 20.6069 10.0695 20.5208 9.80439C20.4346 9.53926 20.2054 9.346 19.9295 9.30591L15.2497 8.62588L13.1568 4.3852C13.0334 4.13525 12.7788 3.97695 12.5 3.97695C12.2212 3.97695 11.9666 4.1352 11.8432 4.3852L9.75034 8.62588L5.07046 9.30591C4.79458 9.346 4.56538 9.53926 4.47925 9.80439C4.39307 10.0695 4.46494 10.3606 4.66455 10.5552L8.05093 13.8561L7.25151 18.517C7.20435 18.7918 7.31733 19.0695 7.54287 19.2333C7.76846 19.3973 8.06743 19.4189 8.31421 19.2891L12.5 17.0885L16.6858 19.2892C16.793 19.3455 16.91 19.3733 17.0266 19.3733C17.1784 19.3733 17.3295 19.3261 17.4571 19.2334C17.6827 19.0695 17.7956 18.7918 17.7485 18.517L16.9491 13.8561Z" fill="#6BC690"/>
</svg>
