<svg width="25" height="26" viewBox="0 0 25 26" fill="none" xmlns="http://www.w3.org/2000/svg">
<path fill-rule="evenodd" clip-rule="evenodd" d="M12.5016 0C5.5995 0 0 5.59741 0 12.5005C0 19.4047 5.59955 25.0021 12.5005 25.0021C19.4058 25.0021 25 19.4047 25 12.5005C25.001 5.59631 19.4058 0 12.5016 0ZM14.6775 21.0356H10.3332V10.6304H14.6775V21.0356ZM10.0779 6.38811C10.0779 7.72819 11.1636 8.81076 12.5016 8.81076C13.8406 8.81076 14.9232 7.72819 14.9242 6.38811C14.9242 5.05018 13.8405 3.96332 12.5016 3.96332C11.1637 3.96332 10.0779 5.05018 10.0779 6.38811Z" fill="#6BC690"/>
</svg>
