<svg width="25" height="25" viewBox="0 0 25 25" fill="none" xmlns="http://www.w3.org/2000/svg">
<path d="M19.1406 22.3633H5.85938C2.62852 22.3633 0 19.7348 0 16.5039V8.49609C0 5.26523 2.62852 2.63672 5.85938 2.63672H19.1406C22.3715 2.63672 25 5.26523 25 8.49609V16.5039C25 19.7348 22.3715 22.3633 19.1406 22.3633ZM5.85938 4.58984C3.70547 4.58984 1.95312 6.34219 1.95312 8.49609V16.5039C1.95312 18.6578 3.70547 20.4102 5.85938 20.4102H19.1406C21.2945 20.4102 23.0469 18.6578 23.0469 16.5039V8.49609C23.0469 6.34219 21.2945 4.58984 19.1406 4.58984H5.85938ZM16.0784 14.2288L20.9053 10.5417C21.3339 10.2143 21.416 9.60146 21.0886 9.17285C20.7611 8.74424 20.1483 8.66221 19.7197 8.9896L14.8934 12.6763C13.4998 13.7392 11.5536 13.74 10.159 12.679L5.48223 9.04346C5.0564 8.7124 4.44282 8.78931 4.11187 9.21514C3.78086 9.64097 3.85771 10.2545 4.28355 10.5855L8.96396 14.2238C8.96631 14.2256 8.9687 14.2274 8.97109 14.2292C10.0172 15.0271 11.2706 15.426 12.5243 15.426C13.778 15.426 15.032 15.0269 16.0784 14.2288Z" fill="black"/>
</svg>
