<svg width="25" height="25" viewBox="0 0 25 25" fill="none" xmlns="http://www.w3.org/2000/svg">
<path d="M15.2403 6.51514H6.2102L7.12598 5.15428C7.24812 4.97425 7.31892 4.76435 7.33075 4.54712C7.34258 4.32989 7.295 4.11354 7.19312 3.92132C7.09125 3.72909 6.93892 3.56826 6.75252 3.45609C6.56611 3.34392 6.35267 3.28466 6.13512 3.28467H6.13262C5.93693 3.28465 5.74375 3.32866 5.56737 3.41343C5.391 3.49819 5.23595 3.62155 5.11371 3.77436L2.29613 7.29686C2.20748 7.40768 2.15918 7.54537 2.15918 7.68729C2.15918 7.8292 2.20748 7.9669 2.29613 8.07771L5.11402 11.6C5.23626 11.7528 5.3913 11.8762 5.56767 11.961C5.74405 12.0457 5.93724 12.0898 6.13293 12.0897H6.13512C6.35266 12.0897 6.56609 12.0305 6.75248 11.9183C6.93887 11.8062 7.09119 11.6453 7.19306 11.4531C7.29493 11.2609 7.34251 11.0446 7.3307 10.8274C7.31888 10.6101 7.2481 10.4002 7.12598 10.2202L6.20996 8.85889H15.2403C16.6343 8.85889 17.9713 9.41267 18.957 10.3984C19.9427 11.3841 20.4965 12.7211 20.4965 14.1151C20.4965 15.5092 19.9427 16.8461 18.957 17.8319C17.9713 18.8176 16.6343 19.3714 15.2403 19.3714H12.6844C12.3736 19.3714 12.0755 19.4949 11.8558 19.7146C11.636 19.9344 11.5125 20.2325 11.5125 20.5433C11.5125 20.8541 11.636 21.1521 11.8558 21.3719C12.0755 21.5917 12.3736 21.7151 12.6844 21.7151H15.2403C17.2559 21.7151 19.189 20.9144 20.6143 19.4891C22.0396 18.0639 22.8403 16.1308 22.8403 14.1151C22.8403 12.0995 22.0396 10.1664 20.6143 8.74113C19.189 7.31585 17.2559 6.51514 15.2403 6.51514Z" fill="black"/>
</svg>
