<svg fill="#91919C" id="Layer_1" enable-background="new 0 0 513 513" height="512" viewBox="0 0 513 513" width="512" xmlns="http://www.w3.org/2000/svg"><path d="m250 512.5h-130c-66.168 0-120-53.832-120-120v-272c0-66.168 53.832-120 120-120h272c66.168 0 120 53.832 120 120v47c-1.056 26.536-38.953 26.516-40 0v-47c0-44.112-35.888-80-80-80h-272c-44.112 0-80 35.888-80 80v272c0 44.112 35.888 80 80 80h130c26.536 1.056 26.516 38.953 0 40zm77-402c0-11.046-8.954-20-20-20h-102c-26.536 1.056-26.516 38.953 0 40h102c11.046 0 20-8.954 20-20zm186 171c-3.208-92.786-196.831-92.73-200 .001 0 39.251 43.925 69.999 100 69.999s100-30.748 100-70zm-54.032-18.396c18.557 11.641 18.555 25.151 0 36.791-23.366 15.313-68.571 15.312-91.937 0-18.557-11.641-18.555-25.151 0-36.791 11.8-7.375 28.555-11.604 45.968-11.604s34.169 4.229 45.969 11.604zm-46.968 249.396c-34.4 0-66.978-9.874-91.731-27.802-8.946-6.479-10.945-18.984-4.466-27.93 6.479-8.945 18.984-10.945 27.929-4.467 37.006 26.803 99.531 26.803 136.537 0 8.945-6.479 21.45-4.479 27.929 4.467 6.479 8.945 4.479 21.45-4.466 27.93-24.754 17.928-57.332 27.802-91.732 27.802zm91.731-108.802c8.946-6.479 10.945-18.984 4.466-27.93s-18.984-10.946-27.929-4.467c-37.006 26.803-99.531 26.803-136.537 0-8.945-6.479-21.451-4.479-27.929 4.467-6.479 8.945-4.479 21.45 4.466 27.93 24.754 17.928 57.332 27.802 91.732 27.802s66.978-9.874 91.731-27.802z"/></svg>