<?xml version="1.0" encoding="UTF-8"?>
<svg width="24px" height="24px" viewBox="0 0 24 24" version="1.1" xmlns="http://www.w3.org/2000/svg" xmlns:xlink="http://www.w3.org/1999/xlink">
    <title>home-line</title>
    <g id="Whitelabel-Admin" stroke="none" stroke-width="1" fill="none" fill-rule="evenodd">
        <g id="Admin-Bereich---Projekt-editieren" transform="translate(-94.000000, -167.000000)">
            <g id="home-line" transform="translate(94.000000, 167.000000)">
                <polygon id="Path" points="0 0 24 0 24 24 0 24"></polygon>
                <path d="M20.9999998,20 C20.9999998,20.5522847 20.5522847,21 19.9999998,21 L3.99999976,21 C3.44771525,21 2.99999976,20.5522847 2.99999976,20 L2.99999976,9.49 C2.99978575,9.1811923 3.1422561,8.8896079 3.386,8.7 L11.386,2.478 C11.7471336,2.1970747 12.2528664,2.1970747 12.614,2.478 L20.614,8.7 C20.8577439,8.8896079 21.0002142,9.1811923 20.9999998,9.49 L20.9999998,20 L20.9999998,20 Z M19,19 L19,9.978 L12,4.534 L5,9.978 L5,19 L19,19 Z" id="Shape" fill="#91919C" fill-rule="nonzero"></path>
            </g>
        </g>
    </g>
</svg>