<svg id="Capa_1" fill="#91919C" enable-background="new 0 0 512.027 512.027" height="512" viewBox="0 0 512.027 512.027" width="512" xmlns="http://www.w3.org/2000/svg"><g><path d="m510.87 491.268-14.588-35.183 14.537-34.205c4.195-9.873-3.054-20.867-13.805-20.867h-66v-41c0-8.284-6.716-15-15-15h-25.86c36.848-50.742 56.86-111.843 56.86-175.16v-73.84c0-8.284-6.716-15-15-15-52.971 0-103.611-19.759-142.592-55.637l-23.25-21.4c-5.741-5.284-14.575-5.284-20.316 0l-23.25 21.399c-38.982 35.878-89.623 55.637-142.592 55.637-8.284 0-15 6.716-15 15v73.84c0 63.336 20.017 124.436 56.875 175.16h-25.875c-8.284 0-15 6.716-15 15v41h-66c-10.727 0-18.01 10.972-13.805 20.867l14.537 34.205-14.588 35.184c-4.093 9.87 3.176 20.745 13.856 20.745h113c8.284 0 15-6.716 15-15v-42h226v42c0 8.284 6.716 15 15 15h113c10.685 0 17.947-10.88 13.856-20.745zm-415.856-321.415v-59.303c55.025-3.408 107.066-25.51 147.908-63.1l13.092-12.05 13.092 12.05c40.84 37.59 92.882 59.692 147.908 63.1v59.304c0 64.483-23.064 126.42-65.077 175.16h-191.82c-42.03-48.716-65.103-110.653-65.103-175.161zm16 205.16h290v50h-290zm2 107h-75.542l8.398-20.255c1.543-3.721 1.524-7.905-.051-11.612l-8.132-19.133h43.327v9c0 8.284 6.716 15 15 15h17zm286 0v-27h17c8.284 0 15-6.716 15-15v-9h43.327l-8.132 19.133c-1.575 3.707-1.594 7.892-.051 11.612l8.398 20.255z"/><path d="m342.035 178.683c-2.213-5.821-7.793-9.669-14.021-9.669h-43.072l-14.948-38.437c-2.242-5.766-7.794-9.563-13.98-9.563s-11.738 3.798-13.98 9.563l-14.948 38.437h-43.072c-6.228 0-11.808 3.848-14.021 9.669s-.599 12.404 4.056 16.542l31.838 28.301-19.853 51.051c-2.303 5.921-.625 12.652 4.188 16.799 4.813 4.148 11.718 4.813 17.234 1.661l48.558-27.747 48.558 27.747c2.32 1.326 4.886 1.977 7.439 1.977 10.472 0 17.828-10.548 13.983-20.437l-19.853-51.051 31.838-28.301c4.655-4.138 6.269-10.721 4.056-16.542zm-67.634 45.996 8.282 21.297-19.228-10.987c-4.61-2.635-10.272-2.636-14.884 0l-19.228 10.987 8.282-21.297c2.272-5.843.671-12.482-4.015-16.647l-10.146-9.019h13.881c6.186 0 11.738-3.798 13.98-9.563l4.687-12.051 4.687 12.051c2.242 5.766 7.794 9.563 13.98 9.563h13.881l-10.146 9.019c-4.684 4.165-6.285 10.805-4.013 16.647z"/></g></svg>