<svg width="200" height="38" viewBox="0 0 200 38" fill="none" xmlns="http://www.w3.org/2000/svg">
<path fill-rule="evenodd" clip-rule="evenodd" d="M56.0434 5.08063C54.9738 6.21058 54.3323 7.79693 54.119 9.84169H65.9362C65.8449 7.76652 65.3188 6.17243 64.3566 5.05796C63.3944 3.94408 62.043 3.3867 60.3032 3.3867C58.5312 3.3867 57.1112 3.95268 56.0434 5.08063ZM69.3263 17.7605C69.6013 18.0962 69.7385 18.5233 69.7385 19.0417C69.7385 19.9272 69.1882 20.6745 68.0891 21.2852C67.0204 21.8959 65.8524 22.3684 64.5859 22.7032C63.318 23.0391 62.1038 23.2075 60.9436 23.2075C57.4014 23.2075 54.6073 22.1774 52.562 20.1174C50.516 18.0572 49.4929 15.243 49.4929 11.6727C49.4929 9.38328 49.943 7.35459 50.8443 5.58464C51.7445 3.8147 53.0121 2.44149 54.6463 1.46472C56.2793 0.488814 58.1342 0 60.2107 0C63.2029 0 65.5699 0.961564 67.3106 2.88383C69.0513 4.80581 69.921 7.40049 69.921 10.6656C69.921 11.8856 69.3719 12.4963 68.2728 12.4963H54.119C54.4244 17.227 56.699 19.5913 60.9436 19.5913C62.0734 19.5913 63.0508 19.4393 63.8758 19.1337C64.6999 18.8285 65.5699 18.4321 66.4865 17.943C66.5778 17.8822 66.8298 17.7528 67.242 17.554C67.6542 17.3563 67.9978 17.2565 68.2728 17.2565C68.6999 17.2565 69.0513 17.4249 69.3263 17.7605V17.7605Z" fill="#3C3F3D"/>
<path fill-rule="evenodd" clip-rule="evenodd" d="M78.8756 21.7884C77.2417 20.8429 75.9738 19.5001 75.0736 17.7605C74.1723 16.021 73.7222 14.0066 73.7222 11.7183C73.7222 9.39963 74.1875 7.35459 75.1192 5.58464C76.051 3.8147 77.3556 2.44149 79.0354 1.46472C80.7144 0.488814 82.6388 0 84.8066 0C85.9668 0 87.1354 0.168388 88.3108 0.503157C89.486 0.839934 90.532 1.29719 91.4486 1.87637C92.4248 2.54792 92.9142 3.32703 92.9142 4.21143C92.9142 4.73065 92.777 5.16525 92.502 5.51522C92.227 5.8672 91.8757 6.04219 91.4486 6.04219C91.1736 6.04219 90.8983 5.97363 90.6245 5.83594C90.3492 5.69882 89.9981 5.49256 89.5707 5.21861C88.8066 4.73065 88.0967 4.35601 87.4408 4.0964C86.7832 3.83765 85.9981 3.70741 85.0815 3.70741C83.005 3.70741 81.3947 4.41023 80.2499 5.81299C79.104 7.21689 78.532 9.17043 78.532 11.6727C78.532 14.175 79.0963 16.1056 80.227 17.4628C81.3557 18.8211 82.9594 19.5001 85.0359 19.5001C85.9525 19.5001 86.7605 19.3621 87.4638 19.0873C88.165 18.8133 88.8838 18.4473 89.6163 17.9889C89.9516 17.7757 90.2875 17.593 90.6245 17.4401C90.9594 17.2878 91.2649 17.2109 91.5399 17.2109C91.9673 17.2109 92.3183 17.3868 92.5933 17.7376C92.8683 18.0887 93.0055 18.5233 93.0055 19.0417C93.0055 19.4697 92.8913 19.8586 92.6619 20.2095C92.4334 20.5606 92.0442 20.918 91.4942 21.2852C90.5777 21.8959 89.509 22.3684 88.2879 22.7032C87.0659 23.0391 85.8296 23.2075 84.5781 23.2075C82.4094 23.2075 80.5089 22.7347 78.8756 21.7884" fill="#3C3F3D"/>
<path fill-rule="evenodd" clip-rule="evenodd" d="M111.532 17.5313C112.616 16.1894 113.159 14.2206 113.159 11.6271C113.159 9.06286 112.609 7.10272 111.509 5.74443C110.41 4.38728 108.853 3.70741 106.838 3.70741C104.822 3.70741 103.265 4.38728 102.166 5.74443C101.066 7.10272 100.516 9.06286 100.516 11.6271C100.516 14.2206 101.059 16.1894 102.143 17.5313C103.227 18.8741 104.791 19.5457 106.838 19.5457C108.883 19.5457 110.448 18.8741 111.532 17.5313ZM101.044 21.7884C99.3789 20.8429 98.0961 19.4923 97.1959 17.7376C96.2946 15.9828 95.8445 13.9458 95.8445 11.6271C95.8445 9.27686 96.2946 7.2255 97.1959 5.46961C98.0961 3.71602 99.3789 2.36547 101.044 1.41911C102.707 0.47361 104.639 0 106.838 0C109.036 0 110.967 0.47361 112.631 1.41911C114.296 2.36547 115.578 3.71602 116.479 5.46961C117.379 7.2255 117.831 9.27686 117.831 11.6271C117.831 13.9458 117.379 15.9828 116.479 17.7376C115.578 19.4923 114.296 20.8429 112.631 21.7884C110.967 22.7347 109.036 23.2075 106.838 23.2075C104.639 23.2075 102.707 22.7347 101.044 21.7884V21.7884Z" fill="#3C3F3D"/>
<path fill-rule="evenodd" clip-rule="evenodd" d="M140.48 19.7966C140.831 20.1173 141.007 20.5519 141.007 21.1016C141.007 21.6512 140.831 22.0861 140.48 22.4065C140.129 22.7269 139.618 22.8867 138.946 22.8867H123.281C122.609 22.8867 122.075 22.6965 121.678 22.3141C121.281 21.9337 121.082 21.4527 121.082 20.8724C121.082 20.2932 121.312 19.7283 121.769 19.1796L134.503 4.12014H123.007C122.365 4.12014 121.868 3.95921 121.517 3.63879C121.166 3.31836 120.991 2.88376 120.991 2.33471C120.991 1.78508 121.166 1.35048 121.517 1.03006C121.868 0.709343 122.365 0.549561 123.007 0.549561H138.213C138.854 0.549561 139.381 0.748356 139.794 1.14423C140.206 1.54153 140.411 2.01428 140.411 2.56305C140.411 3.14337 140.183 3.70735 139.724 4.25697L126.991 19.3164H138.946C139.618 19.3164 140.129 19.4762 140.48 19.7966" fill="#3C3F3D"/>
<path fill-rule="evenodd" clip-rule="evenodd" d="M146.252 22.5664C145.808 22.2001 145.588 21.6513 145.588 20.9181V2.33486C145.588 1.60164 145.808 1.04541 146.252 0.663887C146.695 0.282646 147.251 0.0913086 147.923 0.0913086C148.595 0.0913086 149.144 0.282646 149.572 0.663887C150 1.04541 150.214 1.60164 150.214 2.33486V20.9181C150.214 21.6513 150 22.2001 149.572 22.5664C149.144 22.9325 148.595 23.1161 147.923 23.1161C147.251 23.1161 146.695 22.9325 146.252 22.5664" fill="#3C3F3D"/>
<path fill-rule="evenodd" clip-rule="evenodd" d="M176.733 9.01724V20.918C176.733 21.6208 176.526 22.1622 176.114 22.5434C175.702 22.9249 175.13 23.116 174.396 23.116C173.694 23.116 173.137 22.9172 172.725 22.5207C172.313 22.124 172.107 21.5904 172.107 20.918V9.24645C172.107 7.35459 171.733 5.96617 170.985 5.08063C170.236 4.19623 169.068 3.75303 167.481 3.75303C165.618 3.75303 164.121 4.33306 162.992 5.49256C161.862 6.65292 161.297 8.20886 161.297 10.1613V20.918C161.297 21.5904 161.091 22.124 160.679 22.5207C160.267 22.9172 159.709 23.116 159.007 23.116C158.304 23.116 157.74 22.9172 157.313 22.5207C156.884 22.124 156.671 21.5904 156.671 20.918V2.2883C156.671 1.64831 156.892 1.12135 157.335 0.709412C157.778 0.297764 158.335 0.0912224 159.007 0.0912224C159.679 0.0912224 160.213 0.290018 160.61 0.686749C161.007 1.08319 161.206 1.60155 161.206 2.24269V4.12021C161.939 2.77712 162.961 1.75474 164.274 1.05279C165.587 0.350833 167.068 0 168.718 0C174.061 0 176.733 3.00632 176.733 9.01724" fill="#3C3F3D"/>
<path fill-rule="evenodd" clip-rule="evenodd" d="M183.19 21.2852C182.641 20.9496 182.252 20.5985 182.022 20.2324C181.793 19.8661 181.679 19.4533 181.679 18.9961C181.679 18.5081 181.817 18.0962 182.091 17.7605C182.366 17.4249 182.717 17.2565 183.144 17.2565C183.541 17.2565 184.167 17.5009 185.022 17.9889C185.939 18.4777 186.832 18.8741 187.702 19.1796C188.572 19.4849 189.664 19.6369 190.977 19.6369C192.442 19.6369 193.587 19.3784 194.412 18.8589C195.237 18.3406 195.649 17.6074 195.649 16.6621C195.649 16.0514 195.489 15.5635 195.168 15.1963C194.847 14.8302 194.29 14.5029 193.496 14.2129C192.701 13.9229 191.527 13.6111 189.969 13.2743C187.282 12.6951 185.35 11.9094 184.175 10.9174C183 9.92545 182.412 8.5749 182.412 6.86577C182.412 5.55424 182.793 4.37121 183.557 3.31843C184.32 2.26536 185.373 1.44952 186.717 0.869194C188.061 0.290018 189.587 0 191.298 0C192.519 0 193.709 0.159783 194.87 0.480208C196.03 0.800921 197.054 1.26679 197.939 1.87637C198.946 2.54792 199.451 3.32703 199.451 4.21143C199.451 4.69939 199.305 5.11218 199.016 5.44695C198.725 5.78344 198.381 5.95097 197.985 5.95097C197.71 5.95097 197.435 5.89015 197.16 5.76738C196.886 5.64575 196.52 5.44695 196.061 5.17214C195.237 4.68504 194.465 4.30265 193.748 4.02784C193.031 3.75303 192.137 3.61591 191.068 3.61591C189.786 3.61591 188.756 3.89101 187.977 4.43977C187.199 4.9894 186.809 5.73783 186.809 6.68333C186.809 7.53732 187.167 8.20112 187.885 8.67387C188.602 9.14748 189.954 9.59728 191.939 10.0244C193.984 10.4524 195.587 10.9404 196.748 11.4891C197.908 12.0388 198.741 12.7178 199.244 13.5262C199.749 14.3348 200 15.3647 200 16.6154C200 18.6002 199.168 20.1943 197.504 21.3994C195.839 22.6054 193.618 23.2075 190.84 23.2075C187.725 23.2075 185.175 22.5663 183.19 21.2852" fill="#3C3F3D"/>
<path fill-rule="evenodd" clip-rule="evenodd" d="M36.6266 0.851807H21.593C16.9207 0.851807 12.6354 2.4984 9.27808 5.23794C9.84356 5.1886 10.4131 5.15131 10.9912 5.15131H32.531V26.6772C32.531 27.0802 32.4949 27.4744 32.4705 27.8714C35.066 24.563 36.6266 20.4052 36.6266 15.8754V0.851807" fill="#579C75"/>
<path fill-rule="evenodd" clip-rule="evenodd" d="M12.8845 9.2561C9.82395 9.2561 6.93969 9.98101 4.36199 11.2372C2.77433 12.0111 1.31009 12.9896 0 14.1463C0.490566 14.1092 0.981132 14.0714 1.48175 14.0714H23.0216V35.5973C23.0216 36.1558 22.984 36.7051 22.9378 37.2519C23.9918 36.0752 24.9127 34.78 25.6581 33.3724C27.0957 30.6569 27.9181 27.5657 27.9181 24.28V9.2561H12.8845" fill="#63BA8B"/>
<path fill-rule="evenodd" clip-rule="evenodd" d="M60.6709 28.454C60.8989 28.454 61.08 28.392 61.2141 28.2681C61.3483 28.1441 61.4153 27.9815 61.4153 27.7805C61.4153 27.5794 61.3466 27.4185 61.2091 27.2979C61.0716 27.1773 60.8922 27.1169 60.6709 27.1169C60.4429 27.1169 60.2618 27.1773 60.1277 27.2979C59.9935 27.4185 59.9265 27.5794 59.9265 27.7805C59.9265 27.9815 59.9935 28.1441 60.1277 28.2681C60.2618 28.392 60.4429 28.454 60.6709 28.454ZM52.0848 34.2448C51.9674 34.3654 51.8082 34.4257 51.607 34.4257C51.4125 34.4257 51.2565 34.3654 51.1392 34.2448C51.0218 34.1241 50.9631 33.9666 50.9631 33.7723V27.8709C50.9631 27.6766 51.0218 27.5208 51.1392 27.4035C51.2565 27.2862 51.4125 27.2275 51.607 27.2275C51.8082 27.2275 51.9674 27.2862 52.0848 27.4035C52.2022 27.5208 52.2609 27.6766 52.2609 27.8709V30.4547L55.5001 27.4185C55.6208 27.2979 55.7583 27.2376 55.9126 27.2376C56.0668 27.2376 56.2026 27.2962 56.32 27.4135C56.4374 27.5308 56.4961 27.6665 56.4961 27.8207C56.4961 27.9748 56.429 28.1156 56.2949 28.2429L53.5888 30.716L56.4659 33.3902C56.6 33.5176 56.6671 33.6617 56.6671 33.8225C56.6671 33.9767 56.6084 34.1124 56.491 34.2297C56.3737 34.347 56.2345 34.4056 56.0735 34.4056C55.9059 34.4056 55.7516 34.3352 55.6108 34.1945L52.2609 31.0579V33.7723C52.2609 33.9666 52.2022 34.1241 52.0848 34.2448ZM58.5684 34.2699C58.4477 34.3738 58.2968 34.4257 58.1157 34.4257C57.9346 34.4257 57.7854 34.3738 57.668 34.2699C57.5507 34.166 57.492 34.0169 57.492 33.8225V27.8207C57.492 27.6263 57.5507 27.4789 57.668 27.3783C57.7854 27.2778 57.9346 27.2275 58.1157 27.2275C58.2968 27.2275 58.4477 27.2778 58.5684 27.3783C58.6891 27.4789 58.7495 27.6263 58.7495 27.8207V33.8225C58.7495 34.0169 58.6891 34.166 58.5684 34.2699ZM61.1236 34.2699C61.0029 34.3738 60.852 34.4257 60.6709 34.4257C60.4898 34.4257 60.3406 34.3738 60.2232 34.2699C60.1059 34.166 60.0472 34.0169 60.0472 33.8225V29.9419C60.0472 29.7476 60.1059 29.6001 60.2232 29.4996C60.3406 29.3991 60.4898 29.3488 60.6709 29.3488C60.852 29.3488 61.0029 29.3991 61.1236 29.4996C61.2443 29.6001 61.3047 29.7476 61.3047 29.9419V33.8225C61.3047 34.0169 61.2443 34.166 61.1236 34.2699ZM69.4733 34.4257C69.661 34.4257 69.8136 34.3738 69.931 34.2699C70.0483 34.166 70.107 34.0169 70.107 33.8225V31.3494C70.107 30.639 69.9645 30.1246 69.6795 29.8062C69.3945 29.4879 68.9837 29.3287 68.4472 29.3287C68.085 29.3287 67.7597 29.4125 67.4713 29.58C67.183 29.7476 66.965 29.9721 66.8175 30.2536C66.5693 29.637 66.0764 29.3287 65.3387 29.3287C65.0033 29.3287 64.7066 29.3991 64.4484 29.5398C64.1902 29.6805 63.9839 29.885 63.8297 30.1531V29.9118C63.8297 29.7308 63.7744 29.5917 63.6637 29.4946C63.553 29.3974 63.4105 29.3488 63.2362 29.3488C63.0551 29.3488 62.9042 29.3991 62.7835 29.4996C62.6627 29.6001 62.6024 29.7442 62.6024 29.9319V33.8225C62.6024 34.0169 62.6611 34.166 62.7784 34.2699C62.8958 34.3738 63.045 34.4257 63.2261 34.4257C63.4072 34.4257 63.5581 34.3738 63.6788 34.2699C63.7995 34.166 63.8599 34.0169 63.8599 33.8225V31.5806C63.8599 31.1919 63.9554 30.8853 64.1466 30.6607C64.3377 30.4362 64.5976 30.324 64.9262 30.324C65.1945 30.324 65.394 30.4027 65.5248 30.5602C65.6555 30.7177 65.7209 30.9808 65.7209 31.3494V33.8225C65.7209 34.0169 65.7813 34.166 65.902 34.2699C66.0227 34.3738 66.1736 34.4257 66.3547 34.4257C66.5358 34.4257 66.685 34.3738 66.8024 34.2699C66.9197 34.166 66.9784 34.0169 66.9784 33.8225V31.5806C66.9784 31.1919 67.0757 30.8853 67.2702 30.6607C67.4646 30.4362 67.7262 30.324 68.0548 30.324C68.3231 30.324 68.5226 30.4027 68.6534 30.5602C68.7842 30.7177 68.8495 30.9808 68.8495 31.3494V33.8225C68.8495 34.0169 68.9082 34.166 69.0256 34.2699C69.143 34.3738 69.2922 34.4257 69.4733 34.4257ZM73.804 34.2247C73.5592 34.3721 73.2759 34.4458 72.954 34.4458C72.6253 34.4458 72.3269 34.3788 72.0586 34.2448C71.7904 34.1107 71.5791 33.9264 71.4249 33.6918C71.2706 33.4572 71.1935 33.1959 71.1935 32.9077C71.1935 32.5457 71.2857 32.2609 71.4701 32.0531C71.6546 31.8454 71.9547 31.6946 72.3705 31.6007C72.7863 31.5069 73.3597 31.46 74.0907 31.46H74.3422V31.2288C74.3422 30.9003 74.2718 30.6607 74.131 30.5099C73.9901 30.3591 73.7621 30.2837 73.4469 30.2837C73.2524 30.2837 73.0546 30.3122 72.8534 30.3692C72.6522 30.4262 72.4141 30.5083 72.1391 30.6155C71.9647 30.7026 71.8373 30.7462 71.7568 30.7462C71.6361 30.7462 71.5372 30.7026 71.4601 30.6155C71.383 30.5284 71.3444 30.4144 71.3444 30.2737C71.3444 30.1598 71.3729 30.0609 71.4299 29.9771C71.4869 29.8933 71.5825 29.8146 71.7166 29.7409C71.9513 29.6135 72.2313 29.513 72.5566 29.4393C72.8819 29.3655 73.2021 29.3287 73.5173 29.3287C74.2014 29.3287 74.7094 29.4979 75.0414 29.8364C75.3734 30.1748 75.5393 30.6892 75.5393 31.3796V33.8326C75.5393 34.0135 75.4857 34.156 75.3784 34.2598C75.2711 34.3637 75.1235 34.4157 74.9358 34.4157C74.7614 34.4157 74.6189 34.362 74.5082 34.2548C74.3976 34.1476 74.3422 34.0068 74.3422 33.8326V33.6114C74.2282 33.8728 74.0488 34.0772 73.804 34.2247ZM73.2055 33.541C72.9841 33.541 72.798 33.4723 72.6471 33.3349C72.4962 33.1975 72.4208 33.0216 72.4208 32.8071C72.4208 32.6329 72.4744 32.4955 72.5818 32.3949C72.6891 32.2944 72.8668 32.224 73.1149 32.1838C73.3631 32.1436 73.7118 32.1235 74.1611 32.1235H74.3422V32.3346C74.3422 32.6898 74.2366 32.9797 74.0253 33.2042C73.8141 33.4288 73.5408 33.541 73.2055 33.541ZM78.2404 34.2649C78.1231 34.3654 77.9738 34.4157 77.7928 34.4157C77.6117 34.4157 77.4608 34.3654 77.3401 34.2649C77.2193 34.1643 77.159 34.0169 77.159 33.8225V30.3943H76.656C76.2804 30.3943 76.0926 30.2368 76.0926 29.9218C76.0926 29.6068 76.2804 29.4493 76.656 29.4493H77.159V29.3789C77.159 28.7489 77.325 28.2546 77.6569 27.8961C77.9889 27.5375 78.4567 27.3348 79.0603 27.2879L79.3219 27.2677C79.5901 27.2476 79.7796 27.2761 79.8902 27.3532C80.0009 27.4303 80.0562 27.5492 80.0562 27.7101C80.0562 27.9983 79.8919 28.1591 79.5633 28.1927L79.3017 28.2128C78.9932 28.2329 78.7686 28.3267 78.6277 28.4943C78.4869 28.6618 78.4165 28.9031 78.4165 29.2181V29.4493H79.2716C79.6471 29.4493 79.8349 29.6068 79.8349 29.9218C79.8349 30.2368 79.6471 30.3943 79.2716 30.3943H78.4165V33.8225C78.4165 34.0169 78.3578 34.1643 78.2404 34.2649ZM81.0421 34.4257C81.2232 34.4257 81.3741 34.3738 81.4948 34.2699C81.6155 34.166 81.6759 34.0169 81.6759 33.8225V31.7113C81.6759 31.3695 81.7681 31.0847 81.9525 30.8568C82.1369 30.6289 82.427 30.4949 82.8227 30.4547L83.1245 30.4245C83.3525 30.3977 83.5101 30.3407 83.5973 30.2536C83.6845 30.1665 83.7281 30.0324 83.7281 29.8515C83.7281 29.6772 83.6778 29.5465 83.5772 29.4594C83.4766 29.3722 83.3391 29.3354 83.1647 29.3488L83.0239 29.3588C82.7154 29.3789 82.4354 29.4694 82.1839 29.6303C81.9324 29.7911 81.7429 30.019 81.6155 30.3139V29.9118C81.6155 29.7308 81.5618 29.5917 81.4545 29.4946C81.3472 29.3974 81.2064 29.3488 81.032 29.3488C80.8577 29.3488 80.7118 29.3991 80.5944 29.4996C80.4771 29.6001 80.4184 29.7442 80.4184 29.9319V33.8225C80.4184 34.0169 80.4771 34.166 80.5944 34.2699C80.7118 34.3738 80.861 34.4257 81.0421 34.4257ZM87.1987 34.3302C86.9103 34.4073 86.6354 34.4458 86.3738 34.4458C85.5824 34.4458 84.9554 34.2179 84.4926 33.7622C84.0299 33.3064 83.7985 32.6831 83.7985 31.8923C83.7985 31.3896 83.8991 30.9439 84.1003 30.5552C84.3015 30.1665 84.5848 29.8649 84.9503 29.6504C85.3158 29.4359 85.73 29.3287 86.1927 29.3287C86.6354 29.3287 87.021 29.4259 87.3496 29.6202C87.6782 29.8146 87.9331 30.0894 88.1142 30.4446C88.2952 30.7998 88.3858 31.2187 88.3858 31.7013C88.3858 31.9895 88.2584 32.1336 88.0035 32.1336H85.0358C85.0761 32.596 85.2069 32.9361 85.4282 33.154C85.6495 33.3718 85.9714 33.4807 86.3939 33.4807C86.6085 33.4807 86.798 33.4539 86.9623 33.4003C87.1266 33.3467 87.3127 33.2729 87.5206 33.1791C87.7218 33.0719 87.8694 33.0183 87.9633 33.0183C88.0773 33.0183 88.1695 33.0618 88.2399 33.1489C88.3103 33.2361 88.3455 33.3534 88.3455 33.5008C88.3455 33.7086 88.2215 33.8828 87.9733 34.0236C87.7453 34.1509 87.4871 34.2531 87.1987 34.3302ZM87.3094 31.46H85.0358C85.0761 31.0579 85.1985 30.7495 85.403 30.5351C85.6076 30.3206 85.8809 30.2134 86.2229 30.2134C86.5582 30.2134 86.8198 30.3189 87.0076 30.5301C87.1954 30.7412 87.296 31.0511 87.3094 31.46ZM92.0777 34.2297C91.8162 34.3738 91.5211 34.4458 91.1925 34.4458C89.9853 34.4458 89.3817 33.7689 89.3817 32.4151V29.9419C89.3817 29.761 89.4387 29.6169 89.5527 29.5096C89.6667 29.4024 89.8176 29.3488 90.0054 29.3488C90.1999 29.3488 90.3542 29.4024 90.4682 29.5096C90.5822 29.6169 90.6392 29.761 90.6392 29.9419V32.4251C90.6392 32.7736 90.7096 33.0317 90.8504 33.1992C90.9913 33.3668 91.2126 33.4505 91.5144 33.4505C91.8631 33.4505 92.1431 33.3349 92.3544 33.1037C92.5656 32.8725 92.6713 32.5659 92.6713 32.1838V29.9419C92.6713 29.761 92.7283 29.6169 92.8423 29.5096C92.9563 29.4024 93.1072 29.3488 93.295 29.3488C93.4895 29.3488 93.6437 29.4024 93.7577 29.5096C93.8717 29.6169 93.9288 29.761 93.9288 29.9419V33.8426C93.9288 34.0169 93.8701 34.1576 93.7527 34.2649C93.6353 34.3721 93.4828 34.4257 93.295 34.4257C93.1139 34.4257 92.9697 34.3755 92.8624 34.2749C92.7551 34.1744 92.7015 34.037 92.7015 33.8627V33.6114C92.5472 33.8795 92.3393 34.0856 92.0777 34.2297ZM99.2202 34.4257C99.4147 34.4257 99.5673 34.3721 99.678 34.2649C99.7886 34.1576 99.8439 34.0102 99.8439 33.8225V31.3494C99.8439 30.6725 99.6998 30.1665 99.4114 29.8313C99.123 29.4962 98.6837 29.3287 98.0935 29.3287C97.7381 29.3287 97.4195 29.4024 97.1378 29.5499C96.8562 29.6973 96.6315 29.9084 96.4638 30.1832V29.9118C96.4638 29.7442 96.4085 29.6085 96.2978 29.5046C96.1872 29.4007 96.0447 29.3488 95.8703 29.3488C95.6758 29.3488 95.5216 29.4024 95.4076 29.5096C95.2935 29.6169 95.2365 29.7576 95.2365 29.9319V33.8225C95.2365 34.0102 95.2919 34.1576 95.4025 34.2649C95.5132 34.3721 95.6658 34.4257 95.8602 34.4257C96.0547 34.4257 96.209 34.3721 96.323 34.2649C96.437 34.1576 96.494 34.0102 96.494 33.8225V31.5806C96.494 31.1986 96.603 30.8936 96.821 30.6658C97.0389 30.4379 97.329 30.324 97.6911 30.324C97.9996 30.324 98.226 30.4111 98.3702 30.5853C98.5144 30.7596 98.5865 31.0377 98.5865 31.4198V33.8225C98.5865 34.0102 98.6435 34.1576 98.7575 34.2649C98.8715 34.3721 99.0257 34.4257 99.2202 34.4257ZM103.984 34.2146C103.705 34.3687 103.388 34.4458 103.033 34.4458C102.61 34.4458 102.233 34.3386 101.901 34.1241C101.569 33.9096 101.311 33.6064 101.127 33.2143C100.942 32.8222 100.85 32.3715 100.85 31.8621C100.85 31.3527 100.942 30.9071 101.127 30.525C101.311 30.143 101.568 29.8481 101.896 29.6403C102.225 29.4326 102.604 29.3287 103.033 29.3287C103.388 29.3287 103.704 29.4024 103.979 29.5499C104.254 29.6973 104.465 29.9051 104.612 30.1732V27.7905C104.612 27.623 104.668 27.4872 104.778 27.3834C104.889 27.2795 105.038 27.2275 105.226 27.2275C105.414 27.2275 105.568 27.2811 105.689 27.3884C105.809 27.4956 105.87 27.6364 105.87 27.8106V33.8225C105.87 34.0035 105.813 34.1476 105.699 34.2548C105.585 34.362 105.434 34.4157 105.246 34.4157C105.058 34.4157 104.907 34.362 104.793 34.2548C104.679 34.1476 104.622 34.0035 104.622 33.8225V33.5712C104.475 33.846 104.262 34.0604 103.984 34.2146ZM103.365 33.4707C102.969 33.4707 102.661 33.3299 102.439 33.0484C102.218 32.7669 102.107 32.3715 102.107 31.8621C102.107 31.3595 102.218 30.9741 102.439 30.706C102.661 30.4379 102.973 30.3039 103.375 30.3039C103.771 30.3039 104.077 30.4396 104.295 30.711C104.513 30.9825 104.622 31.3729 104.622 31.8822C104.622 32.3916 104.513 32.7837 104.295 33.0585C104.077 33.3333 103.767 33.4707 103.365 33.4707ZM108.244 34.2699C108.123 34.3738 107.972 34.4257 107.791 34.4257C107.61 34.4257 107.461 34.3738 107.344 34.2699C107.226 34.166 107.168 34.0169 107.168 33.8225V27.8207C107.168 27.6263 107.226 27.4789 107.344 27.3783C107.461 27.2778 107.61 27.2275 107.791 27.2275C107.972 27.2275 108.123 27.2778 108.244 27.3783C108.365 27.4789 108.425 27.6263 108.425 27.8207V33.8225C108.425 34.0169 108.365 34.166 108.244 34.2699ZM110.346 28.454C110.574 28.454 110.756 28.392 110.89 28.2681C111.024 28.1441 111.091 27.9815 111.091 27.7805C111.091 27.5794 111.022 27.4185 110.885 27.2979C110.747 27.1773 110.568 27.1169 110.346 27.1169C110.118 27.1169 109.937 27.1773 109.803 27.2979C109.669 27.4185 109.602 27.5794 109.602 27.7805C109.602 27.9815 109.669 28.1441 109.803 28.2681C109.937 28.392 110.118 28.454 110.346 28.454ZM110.799 34.2699C110.678 34.3738 110.528 34.4257 110.346 34.4257C110.165 34.4257 110.016 34.3738 109.899 34.2699C109.781 34.166 109.723 34.0169 109.723 33.8225V29.9419C109.723 29.7476 109.781 29.6001 109.899 29.4996C110.016 29.3991 110.165 29.3488 110.346 29.3488C110.528 29.3488 110.678 29.3991 110.799 29.4996C110.92 29.6001 110.98 29.7476 110.98 29.9419V33.8225C110.98 34.0169 110.92 34.166 110.799 34.2699ZM114.461 34.4458C114.749 34.4458 115.031 34.4073 115.306 34.3302C115.581 34.2531 115.822 34.1476 116.03 34.0135C116.144 33.9465 116.226 33.8711 116.277 33.7873C116.327 33.7036 116.352 33.6047 116.352 33.4908C116.352 33.35 116.315 33.2327 116.242 33.1389C116.168 33.0451 116.077 32.9981 115.97 32.9981C115.896 32.9981 115.822 33.0132 115.749 33.0434C115.675 33.0735 115.588 33.1188 115.487 33.1791C115.326 33.2662 115.18 33.3349 115.049 33.3852C114.919 33.4355 114.769 33.4606 114.602 33.4606C114.186 33.4606 113.866 33.3249 113.641 33.0534C113.416 32.782 113.304 32.3949 113.304 31.8923C113.304 31.3829 113.416 30.9925 113.641 30.7211C113.866 30.4496 114.186 30.3139 114.602 30.3139C114.776 30.3139 114.93 30.339 115.064 30.3893C115.199 30.4396 115.339 30.5083 115.487 30.5954C115.567 30.6423 115.648 30.6825 115.728 30.716C115.809 30.7495 115.886 30.7663 115.96 30.7663C116.074 30.7663 116.166 30.7211 116.236 30.6306C116.307 30.5401 116.342 30.4211 116.342 30.2737C116.342 30.0592 116.235 29.8816 116.02 29.7409C115.819 29.6135 115.586 29.513 115.321 29.4393C115.056 29.3655 114.793 29.3287 114.531 29.3287C114.035 29.3287 113.596 29.4359 113.213 29.6504C112.831 29.8649 112.534 30.1681 112.323 30.5602C112.112 30.9523 112.006 31.403 112.006 31.9124C112.006 32.4218 112.107 32.8675 112.308 33.2495C112.509 33.6315 112.796 33.9264 113.168 34.1342C113.54 34.3419 113.971 34.4458 114.461 34.4458ZM121.629 34.2649C121.518 34.3721 121.365 34.4257 121.171 34.4257C120.976 34.4257 120.822 34.3721 120.708 34.2649C120.594 34.1576 120.537 34.0102 120.537 33.8225V31.3494C120.537 30.9942 120.465 30.7345 120.321 30.5703C120.177 30.4061 119.95 30.324 119.642 30.324C119.28 30.324 118.99 30.4379 118.772 30.6658C118.554 30.8936 118.445 31.1986 118.445 31.5806V33.8225C118.445 34.0102 118.388 34.1576 118.274 34.2649C118.16 34.3721 118.005 34.4257 117.811 34.4257C117.616 34.4257 117.464 34.3721 117.353 34.2649C117.242 34.1576 117.187 34.0102 117.187 33.8225V27.8106C117.187 27.6364 117.246 27.4956 117.363 27.3884C117.481 27.2811 117.633 27.2275 117.821 27.2275C118.009 27.2275 118.16 27.2778 118.274 27.3783C118.388 27.4789 118.445 27.6163 118.445 27.7905V30.1329C118.612 29.8716 118.835 29.6722 119.114 29.5348C119.392 29.3974 119.709 29.3287 120.064 29.3287C121.218 29.3287 121.795 30.0023 121.795 31.3494V33.8225C121.795 34.0102 121.739 34.1576 121.629 34.2649ZM131.08 34.4358C131.247 34.4358 131.393 34.3855 131.517 34.285C131.641 34.1844 131.703 34.0571 131.703 33.9029C131.703 33.789 131.663 33.6717 131.583 33.5511L130.667 32.1537C130.526 31.9392 130.382 31.7716 130.235 31.651C130.087 31.5304 129.916 31.4466 129.722 31.3997C130.292 31.2991 130.733 31.0729 131.045 30.7211C131.356 30.3692 131.512 29.9185 131.512 29.3689C131.512 28.692 131.303 28.1742 130.884 27.8157C130.464 27.4571 129.852 27.2778 129.048 27.2778H126.533C126.338 27.2778 126.186 27.3314 126.075 27.4387C125.964 27.5459 125.909 27.6967 125.909 27.8911V33.7723C125.909 33.9733 125.968 34.1325 126.085 34.2498C126.202 34.3671 126.358 34.4257 126.553 34.4257C126.747 34.4257 126.902 34.3671 127.016 34.2498C127.13 34.1325 127.187 33.9733 127.187 33.7723V31.5203H128.172C128.414 31.5203 128.61 31.5639 128.761 31.651C128.912 31.7381 129.054 31.8889 129.189 32.1034L130.526 34.1342C130.594 34.2347 130.676 34.3101 130.773 34.3604C130.87 34.4106 130.972 34.4358 131.08 34.4358ZM127.177 30.525H128.867C129.356 30.525 129.715 30.4329 129.943 30.2486C130.171 30.0642 130.285 29.7811 130.285 29.3991C130.285 29.0103 130.171 28.7272 129.943 28.5495C129.715 28.3719 129.356 28.2831 128.867 28.2831H127.177V30.525ZM135.094 34.4458C135.355 34.4458 135.63 34.4073 135.919 34.3302C136.207 34.2531 136.465 34.1509 136.693 34.0236C136.941 33.8828 137.065 33.7086 137.065 33.5008C137.065 33.3534 137.03 33.2361 136.96 33.1489C136.889 33.0618 136.797 33.0183 136.683 33.0183C136.589 33.0183 136.442 33.0719 136.24 33.1791C136.033 33.2729 135.846 33.3467 135.682 33.4003C135.518 33.4539 135.328 33.4807 135.114 33.4807C134.691 33.4807 134.369 33.3718 134.148 33.154C133.927 32.9361 133.796 32.596 133.756 32.1336H136.723C136.978 32.1336 137.106 31.9895 137.106 31.7013C137.106 31.2187 137.015 30.7998 136.834 30.4446C136.653 30.0894 136.398 29.8146 136.069 29.6202C135.741 29.4259 135.355 29.3287 134.913 29.3287C134.45 29.3287 134.036 29.4359 133.67 29.6504C133.305 29.8649 133.021 30.1665 132.82 30.5552C132.619 30.9439 132.518 31.3896 132.518 31.8923C132.518 32.6831 132.75 33.3064 133.212 33.7622C133.675 34.2179 134.302 34.4458 135.094 34.4458ZM133.756 31.46H136.029C136.016 31.0511 135.915 30.7412 135.727 30.5301C135.54 30.3189 135.278 30.2134 134.943 30.2134C134.601 30.2134 134.327 30.3206 134.123 30.5351C133.918 30.7495 133.796 31.0579 133.756 31.46ZM142.115 34.4257C142.31 34.4257 142.462 34.3721 142.573 34.2649C142.684 34.1576 142.739 34.0102 142.739 33.8225V31.3494C142.739 30.6725 142.595 30.1665 142.307 29.8313C142.018 29.4962 141.579 29.3287 140.989 29.3287C140.633 29.3287 140.315 29.4024 140.033 29.5499C139.751 29.6973 139.527 29.9084 139.359 30.1832V29.9118C139.359 29.7442 139.304 29.6085 139.193 29.5046C139.082 29.4007 138.94 29.3488 138.766 29.3488C138.571 29.3488 138.417 29.4024 138.303 29.5096C138.189 29.6169 138.132 29.7576 138.132 29.9319V33.8225C138.132 34.0102 138.187 34.1576 138.298 34.2649C138.408 34.3721 138.561 34.4257 138.755 34.4257C138.95 34.4257 139.104 34.3721 139.218 34.2649C139.332 34.1576 139.389 34.0102 139.389 33.8225V31.5806C139.389 31.1986 139.498 30.8936 139.716 30.6658C139.934 30.4379 140.224 30.324 140.586 30.324C140.895 30.324 141.121 30.4111 141.265 30.5853C141.41 30.7596 141.482 31.0377 141.482 31.4198V33.8225C141.482 34.0102 141.539 34.1576 141.653 34.2649C141.767 34.3721 141.921 34.4257 142.115 34.4257ZM146.879 34.2146C146.6 34.3687 146.284 34.4458 145.928 34.4458C145.506 34.4458 145.128 34.3386 144.796 34.1241C144.464 33.9096 144.206 33.6064 144.022 33.2143C143.837 32.8222 143.745 32.3715 143.745 31.8621C143.745 31.3527 143.837 30.9071 144.022 30.525C144.206 30.143 144.463 29.8481 144.791 29.6403C145.12 29.4326 145.499 29.3287 145.928 29.3287C146.284 29.3287 146.599 29.4024 146.874 29.5499C147.149 29.6973 147.36 29.9051 147.508 30.1732V27.7905C147.508 27.623 147.563 27.4872 147.673 27.3834C147.784 27.2795 147.933 27.2275 148.121 27.2275C148.309 27.2275 148.463 27.2811 148.584 27.3884C148.705 27.4956 148.765 27.6364 148.765 27.8106V33.8225C148.765 34.0035 148.708 34.1476 148.594 34.2548C148.48 34.362 148.329 34.4157 148.141 34.4157C147.953 34.4157 147.803 34.362 147.689 34.2548C147.575 34.1476 147.518 34.0035 147.518 33.8225V33.5712C147.37 33.846 147.157 34.0604 146.879 34.2146ZM146.26 33.4707C145.864 33.4707 145.556 33.3299 145.335 33.0484C145.113 32.7669 145.003 32.3715 145.003 31.8621C145.003 31.3595 145.113 30.9741 145.335 30.706C145.556 30.4379 145.868 30.3039 146.27 30.3039C146.666 30.3039 146.973 30.4396 147.191 30.711C147.409 30.9825 147.518 31.3729 147.518 31.8822C147.518 32.3916 147.409 32.7837 147.191 33.0585C146.973 33.3333 146.662 33.4707 146.26 33.4707ZM151.23 28.2681C151.096 28.392 150.914 28.454 150.686 28.454C150.458 28.454 150.277 28.392 150.143 28.2681C150.009 28.1441 149.942 27.9815 149.942 27.7805C149.942 27.5794 150.009 27.4185 150.143 27.2979C150.277 27.1773 150.458 27.1169 150.686 27.1169C150.908 27.1169 151.087 27.1773 151.225 27.2979C151.362 27.4185 151.431 27.5794 151.431 27.7805C151.431 27.9815 151.364 28.1441 151.23 28.2681ZM150.686 34.4257C150.868 34.4257 151.018 34.3738 151.139 34.2699C151.26 34.166 151.32 34.0169 151.32 33.8225V29.9419C151.32 29.7476 151.26 29.6001 151.139 29.4996C151.018 29.3991 150.868 29.3488 150.686 29.3488C150.505 29.3488 150.356 29.3991 150.239 29.4996C150.121 29.6001 150.063 29.7476 150.063 29.9419V33.8225C150.063 34.0169 150.121 34.166 150.239 34.2699C150.356 34.3738 150.505 34.4257 150.686 34.4257ZM155.48 34.3101C155.349 34.3939 155.163 34.4291 154.922 34.4157L154.65 34.3956C153.523 34.3151 152.96 33.7119 152.96 32.586V30.3943H152.457C152.276 30.3943 152.137 30.3541 152.039 30.2737C151.942 30.1933 151.894 30.076 151.894 29.9218C151.894 29.7677 151.942 29.6504 152.039 29.57C152.137 29.4895 152.276 29.4493 152.457 29.4493H152.96V28.5244C152.96 28.3435 153.017 28.1994 153.131 28.0921C153.245 27.9849 153.399 27.9313 153.594 27.9313C153.782 27.9313 153.932 27.9849 154.046 28.0921C154.16 28.1994 154.217 28.3435 154.217 28.5244V29.4493H155.073C155.254 29.4493 155.393 29.4895 155.49 29.57C155.587 29.6504 155.636 29.7677 155.636 29.9218C155.636 30.076 155.587 30.1933 155.49 30.2737C155.393 30.3541 155.254 30.3943 155.073 30.3943H154.217V32.6764C154.217 33.1724 154.445 33.4371 154.902 33.4707L155.173 33.4908C155.508 33.5109 155.676 33.6617 155.676 33.9432C155.676 34.104 155.611 34.2263 155.48 34.3101ZM158.634 34.4458C158.895 34.4458 159.17 34.4073 159.459 34.3302C159.747 34.2531 160.005 34.1509 160.233 34.0236C160.481 33.8828 160.605 33.7086 160.605 33.5008C160.605 33.3534 160.57 33.2361 160.5 33.1489C160.429 33.0618 160.337 33.0183 160.223 33.0183C160.129 33.0183 159.982 33.0719 159.781 33.1791C159.573 33.2729 159.387 33.3467 159.222 33.4003C159.058 33.4539 158.868 33.4807 158.654 33.4807C158.231 33.4807 157.909 33.3718 157.688 33.154C157.467 32.9361 157.336 32.596 157.296 32.1336H160.263C160.518 32.1336 160.646 31.9895 160.646 31.7013C160.646 31.2187 160.555 30.7998 160.374 30.4446C160.193 30.0894 159.938 29.8146 159.61 29.6202C159.281 29.4259 158.895 29.3287 158.453 29.3287C157.99 29.3287 157.576 29.4359 157.21 29.6504C156.845 29.8649 156.561 30.1665 156.36 30.5552C156.159 30.9439 156.058 31.3896 156.058 31.8923C156.058 32.6831 156.29 33.3064 156.753 33.7622C157.215 34.2179 157.842 34.4458 158.634 34.4458ZM157.296 31.46H159.569C159.556 31.0511 159.455 30.7412 159.267 30.5301C159.08 30.3189 158.818 30.2134 158.483 30.2134C158.141 30.2134 157.867 30.3206 157.663 30.5351C157.458 30.7495 157.336 31.0579 157.296 31.46ZM166.702 34.4458C166.963 34.4458 167.238 34.4073 167.527 34.3302C167.815 34.2531 168.073 34.1509 168.301 34.0236C168.549 33.8828 168.673 33.7086 168.673 33.5008C168.673 33.3534 168.638 33.2361 168.568 33.1489C168.497 33.0618 168.405 33.0183 168.291 33.0183C168.197 33.0183 168.05 33.0719 167.849 33.1791C167.641 33.2729 167.455 33.3467 167.29 33.4003C167.126 33.4539 166.936 33.4807 166.722 33.4807C166.299 33.4807 165.977 33.3718 165.756 33.154C165.535 32.9361 165.404 32.596 165.364 32.1336H168.331C168.586 32.1336 168.714 31.9895 168.714 31.7013C168.714 31.2187 168.623 30.7998 168.442 30.4446C168.261 30.0894 168.006 29.8146 167.678 29.6202C167.349 29.4259 166.963 29.3287 166.521 29.3287C166.058 29.3287 165.644 29.4359 165.278 29.6504C164.913 29.8649 164.629 30.1665 164.428 30.5552C164.227 30.9439 164.126 31.3896 164.126 31.8923C164.126 32.6831 164.358 33.3064 164.821 33.7622C165.283 34.2179 165.91 34.4458 166.702 34.4458ZM165.364 31.46H167.637C167.624 31.0511 167.523 30.7412 167.335 30.5301C167.148 30.3189 166.886 30.2134 166.551 30.2134C166.209 30.2134 165.935 30.3206 165.731 30.5351C165.526 30.7495 165.404 31.0579 165.364 31.46ZM170.363 34.4257C170.545 34.4257 170.695 34.3738 170.816 34.2699C170.937 34.166 170.997 34.0169 170.997 33.8225V31.7113C170.997 31.3695 171.089 31.0847 171.274 30.8568C171.458 30.6289 171.748 30.4949 172.144 30.4547L172.446 30.4245C172.674 30.3977 172.832 30.3407 172.919 30.2536C173.006 30.1665 173.049 30.0324 173.049 29.8515C173.049 29.6772 172.999 29.5465 172.899 29.4594C172.798 29.3722 172.66 29.3354 172.486 29.3488L172.345 29.3588C172.037 29.3789 171.757 29.4694 171.505 29.6303C171.254 29.7911 171.064 30.019 170.937 30.3139V29.9118C170.937 29.7308 170.883 29.5917 170.776 29.4946C170.669 29.3974 170.528 29.3488 170.353 29.3488C170.179 29.3488 170.033 29.3991 169.916 29.4996C169.798 29.6001 169.74 29.7442 169.74 29.9319V33.8225C169.74 34.0169 169.798 34.166 169.916 34.2699C170.033 34.3738 170.182 34.4257 170.363 34.4257ZM177.818 34.2397C177.724 34.3235 177.583 34.3654 177.395 34.3654H174.035C173.868 34.3654 173.73 34.3118 173.623 34.2045C173.516 34.0973 173.462 33.97 173.462 33.8225C173.462 33.6684 173.522 33.5209 173.643 33.3802L176.228 30.3943H173.985C173.797 30.3943 173.656 30.3541 173.563 30.2737C173.469 30.1933 173.422 30.076 173.422 29.9218C173.422 29.7677 173.469 29.6504 173.563 29.57C173.656 29.4895 173.797 29.4493 173.985 29.4493H177.234C177.409 29.4493 177.548 29.5013 177.652 29.6051C177.756 29.709 177.808 29.838 177.808 29.9922C177.808 30.1531 177.751 30.3005 177.637 30.4345L175.041 33.4204H177.395C177.771 33.4204 177.959 33.5779 177.959 33.8929C177.959 34.0403 177.912 34.156 177.818 34.2397ZM179.488 28.454C179.716 28.454 179.897 28.392 180.031 28.2681C180.165 28.1441 180.232 27.9815 180.232 27.7805C180.232 27.5794 180.163 27.4185 180.026 27.2979C179.888 27.1773 179.709 27.1169 179.488 27.1169C179.26 27.1169 179.079 27.1773 178.945 27.2979C178.81 27.4185 178.743 27.5794 178.743 27.7805C178.743 27.9815 178.81 28.1441 178.945 28.2681C179.079 28.392 179.26 28.454 179.488 28.454ZM179.94 34.2699C179.82 34.3738 179.669 34.4257 179.488 34.4257C179.307 34.4257 179.157 34.3738 179.04 34.2699C178.923 34.166 178.864 34.0169 178.864 33.8225V29.9419C178.864 29.7476 178.923 29.6001 179.04 29.4996C179.157 29.3991 179.307 29.3488 179.488 29.3488C179.669 29.3488 179.82 29.3991 179.94 29.4996C180.061 29.6001 180.122 29.7476 180.122 29.9419V33.8225C180.122 34.0169 180.061 34.166 179.94 34.2699ZM183.723 34.4458C183.985 34.4458 184.259 34.4073 184.548 34.3302C184.836 34.2531 185.094 34.1509 185.322 34.0236C185.571 33.8828 185.695 33.7086 185.695 33.5008C185.695 33.3534 185.659 33.2361 185.589 33.1489C185.519 33.0618 185.426 33.0183 185.312 33.0183C185.219 33.0183 185.071 33.0719 184.87 33.1791C184.662 33.2729 184.476 33.3467 184.311 33.4003C184.147 33.4539 183.958 33.4807 183.743 33.4807C183.321 33.4807 182.999 33.3718 182.777 33.154C182.556 32.9361 182.425 32.596 182.385 32.1336H185.353C185.608 32.1336 185.735 31.9895 185.735 31.7013C185.735 31.2187 185.644 30.7998 185.463 30.4446C185.282 30.0894 185.027 29.8146 184.699 29.6202C184.37 29.4259 183.985 29.3287 183.542 29.3287C183.079 29.3287 182.665 29.4359 182.299 29.6504C181.934 29.8649 181.651 30.1665 181.449 30.5552C181.248 30.9439 181.148 31.3896 181.148 31.8923C181.148 32.6831 181.379 33.3064 181.842 33.7622C182.305 34.2179 182.932 34.4458 183.723 34.4458ZM182.385 31.46H184.659C184.645 31.0511 184.545 30.7412 184.357 30.5301C184.169 30.3189 183.907 30.2134 183.572 30.2134C183.23 30.2134 182.957 30.3206 182.752 30.5351C182.548 30.7495 182.425 31.0579 182.385 31.46ZM187.385 34.4257C187.566 34.4257 187.717 34.3738 187.837 34.2699C187.958 34.166 188.019 34.0169 188.019 33.8225V27.8207C188.019 27.6263 187.958 27.4789 187.837 27.3783C187.717 27.2778 187.566 27.2275 187.385 27.2275C187.204 27.2275 187.054 27.2778 186.937 27.3783C186.82 27.4789 186.761 27.6263 186.761 27.8207V33.8225C186.761 34.0169 186.82 34.166 186.937 34.2699C187.054 34.3738 187.204 34.4257 187.385 34.4257ZM192.445 34.3302C192.156 34.4073 191.882 34.4458 191.62 34.4458C190.829 34.4458 190.202 34.2179 189.739 33.7622C189.276 33.3064 189.045 32.6831 189.045 31.8923C189.045 31.3896 189.145 30.9439 189.346 30.5552C189.548 30.1665 189.831 29.8649 190.196 29.6504C190.562 29.4359 190.976 29.3287 191.439 29.3287C191.882 29.3287 192.267 29.4259 192.596 29.6202C192.924 29.8146 193.179 30.0894 193.36 30.4446C193.541 30.7998 193.632 31.2187 193.632 31.7013C193.632 31.9895 193.505 32.1336 193.25 32.1336H190.282C190.322 32.596 190.453 32.9361 190.674 33.154C190.896 33.3718 191.218 33.4807 191.64 33.4807C191.855 33.4807 192.044 33.4539 192.208 33.4003C192.373 33.3467 192.559 33.2729 192.767 33.1791C192.968 33.0719 193.116 33.0183 193.209 33.0183C193.323 33.0183 193.416 33.0618 193.486 33.1489C193.556 33.2361 193.592 33.3534 193.592 33.5008C193.592 33.7086 193.468 33.8828 193.219 34.0236C192.991 34.1509 192.733 34.2531 192.445 34.3302ZM192.556 31.46H190.282C190.322 31.0579 190.445 30.7495 190.649 30.5351C190.854 30.3206 191.127 30.2134 191.469 30.2134C191.804 30.2134 192.066 30.3189 192.254 30.5301C192.442 30.7412 192.542 31.0511 192.556 31.46ZM199.099 34.2649C198.989 34.3721 198.836 34.4257 198.642 34.4257C198.447 34.4257 198.293 34.3721 198.179 34.2649C198.065 34.1576 198.008 34.0102 198.008 33.8225V31.4198C198.008 31.0377 197.936 30.7596 197.792 30.5853C197.647 30.4111 197.421 30.324 197.113 30.324C196.75 30.324 196.46 30.4379 196.242 30.6658C196.024 30.8936 195.915 31.1986 195.915 31.5806V33.8225C195.915 34.0102 195.858 34.1576 195.744 34.2649C195.63 34.3721 195.476 34.4257 195.282 34.4257C195.087 34.4257 194.935 34.3721 194.824 34.2649C194.713 34.1576 194.658 34.0102 194.658 33.8225V29.9319C194.658 29.7576 194.715 29.6169 194.829 29.5096C194.943 29.4024 195.097 29.3488 195.292 29.3488C195.466 29.3488 195.609 29.4007 195.719 29.5046C195.83 29.6085 195.885 29.7442 195.885 29.9118V30.1832C196.053 29.9084 196.278 29.6973 196.559 29.5499C196.841 29.4024 197.16 29.3287 197.515 29.3287C198.105 29.3287 198.544 29.4962 198.833 29.8313C199.121 30.1665 199.265 30.6725 199.265 31.3494V33.8225C199.265 34.0102 199.21 34.1576 199.099 34.2649Z" fill="#3C3F3D"/>
</svg>
