<svg width="19" height="27" viewBox="0 0 19 27" fill="none" xmlns="http://www.w3.org/2000/svg">
<path fill-rule="evenodd" clip-rule="evenodd" d="M16.3573 11.4763C16.8524 11.6345 17.339 11.8234 17.8159 12.0426C18.2995 12.2649 18.5051 12.8242 18.2752 13.2918C18.0454 13.7595 17.4672 13.9582 16.9836 13.7361C15.6267 13.1122 14.176 12.7793 12.6677 12.7451C12.5816 12.7484 12.4951 12.75 12.4082 12.75C12.3954 12.75 12.4437 12.7473 12.5191 12.7432C12.9508 12.7195 14.2699 12.6472 10.0797 12.7452C5.15765 12.8603 2.96694 18.2741 1.96096 22.9473C1.89809 23.2393 1.97293 23.5385 2.16627 23.7685C2.27824 23.9016 2.5279 24.125 2.94174 24.125H9.8801C10.4155 24.125 10.8495 24.5447 10.8495 25.0625C10.8495 25.5803 10.4155 26 9.8801 26H2.94174C2.05339 26 1.22248 25.6178 0.662122 24.9515C0.0990044 24.2818 -0.119447 23.412 0.0628947 22.5651C0.644673 19.8625 2.18586 15.403 4.40246 13.6397C5.61129 12.6781 6.99242 11.9489 8.46434 11.4802C6.85782 10.3164 5.81631 8.46112 5.81631 6.375C5.81631 2.85984 8.77339 0 12.4082 0C16.0429 0 19 2.85984 19 6.375C19 8.45883 17.9608 10.3123 16.3573 11.4763ZM12.4082 10.8672C12.4871 10.8672 12.5659 10.8679 12.6446 10.8692C15.1009 10.7498 17.0612 8.77964 17.0612 6.375C17.0612 3.89367 14.9739 1.875 12.4082 1.875C9.84243 1.875 7.75509 3.89367 7.75509 6.375C7.75509 8.78025 9.71641 10.7508 12.1736 10.8693C12.2517 10.8679 12.3299 10.8672 12.4082 10.8672Z" fill="#2F513C"/>
<path fill-rule="evenodd" clip-rule="evenodd" d="M19 17H14.6024C13.2356 17 11.9821 17.4266 11 18.1363C11.1654 18.1235 11.332 18.1139 11.5011 18.1139H17.802V23.6906C17.802 23.795 17.7914 23.8971 17.7842 24C18.5435 23.1429 19 22.0657 19 20.8922V17Z" fill="#579C75"/>
<path fill-rule="evenodd" clip-rule="evenodd" d="M11.6921 19C10.8151 19 9.98859 19.2071 9.24994 19.5661C8.79499 19.7873 8.37541 20.0669 8 20.3974C8.14057 20.3868 8.28115 20.376 8.4246 20.376H14.5969V26.5272C14.5969 26.6868 14.5861 26.8438 14.5729 27C14.8749 26.6637 15.1388 26.2936 15.3524 25.8914C15.7643 25.1154 16 24.2321 16 23.2932V19H11.6921Z" fill="#63BA8B"/>
</svg>
