<svg width="20" height="20" viewBox="0 0 20 20" fill="#ffffff" xmlns="http://www.w3.org/2000/svg">
<path fill-rule="evenodd" clip-rule="evenodd" d="M20 5.79578V14.2042C20 16.5431 18.6112 17.8741 18.1869 18.2807L18.1868 18.2807C18.1266 18.3384 18.0858 18.3775 18.0712 18.3982C17.0384 19.4312 15.665 20 14.2042 20H5.79578C4.335 20 2.96164 19.4311 1.92879 18.3982C1.91441 18.3778 1.87402 18.3392 1.81428 18.2819L1.81426 18.2819C1.39152 17.8772 0 16.5448 0 14.2042V5.79578C0 3.45688 1.38884 2.12593 1.81315 1.71931L1.81315 1.71931C1.87341 1.66156 1.91422 1.62246 1.92883 1.60176C2.96164 0.568867 4.335 0 5.79578 0H14.2042C15.665 0 17.0384 0.568867 18.0712 1.6018C18.0856 1.62217 18.126 1.66084 18.1857 1.71805L18.1857 1.71807C18.6085 2.12284 20 3.45524 20 5.79578ZM14.3871 10.546L11.3074 13.6257C11.0023 13.9309 10.5076 13.9308 10.2025 13.6257C9.89743 13.3206 9.89743 12.8259 10.2025 12.5209L11.9418 10.7816H6.14563C5.71415 10.7816 5.36438 10.4318 5.36438 10.0004C5.36438 9.56887 5.71415 9.2191 6.14563 9.2191H11.9418L10.2026 7.47988C9.89746 7.17476 9.89746 6.68008 10.2026 6.375C10.5077 6.06992 11.0024 6.06988 11.3075 6.375L14.3864 9.45406C14.6848 9.75961 14.682 10.244 14.3871 10.546ZM17.0822 2.82413C17.4382 3.16277 18.4375 4.11321 18.4375 5.79578V14.2042C18.4375 15.8912 17.4467 16.8303 17.0864 17.1718C17.0264 17.2287 16.9839 17.269 16.9663 17.2934C16.2286 18.0312 15.2476 18.4375 14.2042 18.4375H5.79578C4.75238 18.4375 3.77145 18.0312 3.03367 17.2934C3.01699 17.2702 2.976 17.2312 2.91785 17.1759C2.5618 16.8372 1.5625 15.8868 1.5625 14.2042V5.79578C1.5625 4.10878 2.55332 3.16966 2.91364 2.82815C2.97361 2.77131 3.01611 2.73103 3.03367 2.7066C3.77145 1.96879 4.75238 1.5625 5.79578 1.5625H14.2042C15.2476 1.5625 16.2286 1.96879 16.9663 2.7066V2.70664C16.983 2.72983 17.024 2.76882 17.0822 2.82413Z" fill="#ffffff"/>
</svg>
