<svg width="35" height="35" viewBox="0 0 35 35" fill="none" xmlns="http://www.w3.org/2000/svg">
<path d="M20.8906 0C22.8594 0 24.8281 0.875 26.0312 2.51562L31.3906 9.1875C32.2656 10.3906 32.8125 11.8125 32.8125 13.2344V28.4375C32.8125 32.0469 29.8594 35 26.25 35H8.75C5.14062 35 2.1875 32.0469 2.1875 28.4375V6.5625C2.1875 2.95312 5.14062 0 8.75 0H20.8906ZM20.8906 2.1875H8.75C6.45312 2.1875 4.48438 4.04688 4.375 6.34375V6.5625V28.4375C4.375 30.7344 6.23438 32.7031 8.53125 32.8125H8.75H26.25C28.5469 32.8125 30.5156 30.9531 30.625 28.6562V28.4375V13.2344C30.625 12.3594 30.2969 11.4844 29.8594 10.7188L29.75 10.5L24.3906 3.82812C23.625 2.84375 22.4219 2.29688 21.2188 2.1875H20.8906ZM24.2812 12.3594C26.3594 14.4375 26.4688 17.8281 24.5 19.9062L24.2812 20.125L21.1094 23.2969L21 23.4062L18.4844 25.9219C16.2969 28.1094 12.9062 28.1094 10.7188 25.9219C8.53125 23.7344 8.53125 20.3438 10.7188 18.1562L11.4844 17.3906L12.1406 16.7344L12.25 16.625L13.2344 15.6406C14.5469 14.3281 16.625 14.3281 17.8281 15.6406C19.0312 16.8438 19.1406 18.8125 17.9375 20.125L17.8281 20.2344L15.3125 22.75C14.875 23.1875 14.2188 23.1875 13.7812 22.75C13.3438 22.3125 13.3438 21.7656 13.6719 21.3281L13.7812 21.2188L16.2969 18.7031C16.7344 18.2656 16.7344 17.6094 16.2969 17.1719C15.8594 16.7344 15.3125 16.7344 14.875 17.0625L14.7656 17.1719L12.3594 19.6875L12.25 19.7969C11.1562 21.1094 11.1562 23.0781 12.3594 24.2812C13.5625 25.4844 15.5312 25.5938 16.8438 24.3906L16.9531 24.2812L18.8125 22.4219L22.6406 18.5938C23.9531 17.2812 23.9531 15.2031 22.6406 14C21.4375 12.7969 19.6875 12.6875 18.375 13.6719C17.9375 14 17.1719 13.8906 16.8438 13.4531C16.5156 13.0156 16.625 12.25 17.0625 11.9219C19.25 10.2812 22.3125 10.5 24.2812 12.3594Z" fill="black"/>
</svg>
