<svg width="35" height="35" viewBox="0 0 35 35" fill="none" xmlns="http://www.w3.org/2000/svg">
<path fill-rule="evenodd" clip-rule="evenodd" d="M28.366 4.50322C31.1363 7.27358 32.7141 10.9168 32.8508 14.8128C34.1149 15.3748 35 16.6405 35 18.1105V22.1634C35 23.6284 34.1216 24.8897 32.8647 25.455V27.4212C32.8647 30.2228 30.5855 32.502 27.7833 32.502H25.2619C24.9075 33.501 23.9571 34.198 22.8789 34.198H20.2782C19.6018 34.198 18.9655 33.934 18.4873 33.4547C18.009 32.9786 17.745 32.3424 17.745 31.6649C17.745 30.6787 18.3232 29.7757 19.2184 29.3644C19.5465 29.2115 19.9048 29.1323 20.2782 29.1323H22.8789C23.5564 29.1323 24.1926 29.3962 24.6698 29.8756C24.9421 30.1469 25.1363 30.4739 25.2602 30.8277H27.7833C29.6619 30.8277 31.1905 29.2997 31.1905 27.4212V25.753C29.9973 25.6498 29.0552 24.6575 29.0552 23.4381V16.837C29.0552 15.6287 29.9811 14.6431 31.1592 14.5248C30.9499 11.1612 29.5592 8.06383 27.1828 5.68749C24.595 3.09963 21.1566 1.67427 17.5 1.67427C10.2331 1.67427 4.27385 7.36566 3.83854 14.5243C5.01778 14.6415 5.94532 15.6276 5.94532 16.837V23.4386C5.94532 24.7267 4.89779 25.7742 3.60972 25.7742C1.61902 25.7742 0 24.1547 0 22.1645V18.1117C0 16.6405 0.885129 15.3748 2.14976 14.8128C2.44164 6.59606 9.21293 0 17.5 0C21.6031 0 25.4623 1.59893 28.366 4.50322ZM4.2705 23.4381V16.837C4.2705 16.4726 3.97415 16.1757 3.60916 16.1757C2.5421 16.1757 1.67371 17.0435 1.67371 18.1111V22.164C1.67371 23.231 2.5421 24.0994 3.60916 24.0994C3.97415 24.0994 4.2705 23.8025 4.2705 23.4381ZM23.7188 31.8446C23.6356 32.2386 23.2818 32.5249 22.8783 32.5249H20.2776C20.0488 32.5249 19.8339 32.4356 19.6699 32.2715C19.508 32.1102 19.4187 31.8948 19.4187 31.666C19.4187 31.3317 19.6146 31.0264 19.9215 30.8852C20.0309 30.8339 20.1509 30.8076 20.2776 30.8076H22.8783C23.1071 30.8076 23.322 30.8964 23.4855 31.0604C23.6474 31.2217 23.7366 31.4372 23.7366 31.666C23.7372 31.7274 23.7305 31.7888 23.7188 31.8446ZM31.3903 24.0994C32.4573 24.0994 33.3257 23.231 33.3257 22.164V18.1111C33.3257 17.044 32.4573 16.1757 31.3903 16.1757C31.0253 16.1757 30.7289 16.4726 30.7289 16.837V23.4381C30.7289 23.8031 31.0258 24.0994 31.3903 24.0994Z" fill="#2F513C"/>
<path fill-rule="evenodd" clip-rule="evenodd" d="M26.468 18.9054C26.468 20.8609 24.8769 22.4526 22.9208 22.4526H18.2239L15.1081 25.5517C14.7827 25.8882 14.3385 26.069 13.8825 26.069C13.6637 26.069 13.4427 26.0266 13.2301 25.9412C12.5716 25.6739 12.1457 25.0399 12.1457 24.3256V22.4526H12.0793C10.1232 22.4526 8.5321 20.8615 8.5321 18.9054V11.6776C8.5321 9.72148 10.1232 8.13037 12.0793 8.13037H22.9208C23.8667 8.13037 24.7569 8.49983 25.4277 9.17065C26.0985 9.84147 26.468 10.7322 26.468 11.6776V18.9054ZM13.9171 24.3752L17.2891 21.0217C17.4459 20.866 17.658 20.7783 17.8795 20.7783H22.9213C23.9538 20.7783 24.7943 19.9384 24.7943 18.9054V11.6776C24.7943 11.1792 24.5995 10.7093 24.2445 10.3544C23.8896 9.99997 23.4202 9.80464 22.9213 9.80464H12.0799C11.0469 9.80464 10.2069 10.6446 10.2069 11.6776V18.9054C10.2069 19.9379 11.0469 20.7783 12.0799 20.7783H12.9834C13.4461 20.7783 13.8206 21.1534 13.8206 21.6155V24.3256C13.8206 24.3479 13.8206 24.373 13.8591 24.3886C13.8908 24.4025 13.902 24.3909 13.917 24.3754L13.9171 24.3752Z" fill="#2F513C"/>
<path d="M13.4332 14.1899C12.7523 14.1899 12.1981 14.7447 12.1981 15.425C12.1981 16.1053 12.7529 16.66 13.4332 16.66C14.1146 16.66 14.6693 16.1053 14.6693 15.425C14.6693 14.7447 14.1152 14.1899 13.4332 14.1899Z" fill="#2F513C"/>
<path d="M17.4995 14.1899C16.8186 14.1899 16.2644 14.7447 16.2644 15.425C16.2644 16.1053 16.8191 16.66 17.4995 16.66C18.1814 16.66 18.7356 16.1053 18.7356 15.425C18.7356 14.7447 18.1814 14.1899 17.4995 14.1899Z" fill="#2F513C"/>
<path d="M21.5656 14.1899C20.8847 14.1899 20.3306 14.7447 20.3306 15.425C20.3306 16.1053 20.8853 16.66 21.5656 16.66C22.247 16.66 22.8018 16.1053 22.8018 15.425C22.8018 14.7447 22.247 14.1899 21.5656 14.1899Z" fill="#2F513C"/>
</svg>
