<svg width="35" height="35" viewBox="0 0 35 35" fill="none" xmlns="http://www.w3.org/2000/svg">
<g clip-path="url(#clip0_304_3370)">
<path d="M33.5186 0.0574281L0.777245 10.756C-0.147415 11.0582 -0.281133 12.3159 0.560404 12.8052L12.9337 20C13.324 20.227 13.8119 20.1996 14.1743 19.9304L17.6525 17.3474L15.0695 20.8256C14.8003 21.1881 14.773 21.676 14.9999 22.0663L22.1947 34.4396C22.6846 35.2818 23.942 35.1466 24.244 34.2227L34.9426 1.48139C35.2295 0.602247 34.3934 -0.228635 33.5186 0.0574281ZM22.88 31.1262L17.3259 21.5744L24.0232 12.5561C24.3569 12.1066 24.311 11.4805 23.9151 11.0846C23.5194 10.6888 22.8931 10.6428 22.4437 10.9765L13.4254 17.674L3.87363 12.1197L32.1051 2.89478L22.88 31.1262ZM11.854 24.7425L4.35748 32.2389C3.9166 32.6797 3.20173 32.6799 2.76085 32.2389C2.3199 31.798 2.3199 31.0832 2.76085 30.6423L10.2573 23.1459C10.6984 22.705 11.4132 22.7049 11.854 23.1459C12.2949 23.5867 12.2949 24.3016 11.854 24.7425ZM1.9505 25.0262C1.50955 24.5852 1.50955 23.8704 1.9505 23.4295L4.90851 20.4714C5.34939 20.0305 6.06427 20.0305 6.50515 20.4714C6.9461 20.9124 6.9461 21.6272 6.50515 22.0681L3.54713 25.0262C3.10633 25.467 2.39138 25.467 1.9505 25.0262ZM14.5284 28.4946C14.9693 28.9355 14.9693 29.6504 14.5284 30.0913L11.5703 33.0493C11.3499 33.2698 11.0609 33.38 10.772 33.38C9.77519 33.38 9.2605 32.1658 9.97375 31.4526L12.9318 28.4946C13.3726 28.0537 14.0875 28.0537 14.5284 28.4946Z" fill="black"/>
</g>
<defs>
<clipPath id="clip0_304_3370">
<rect width="35" height="35" fill="white"/>
</clipPath>
</defs>
</svg>
