<svg width="42" height="38" viewBox="0 0 42 38" fill="none" xmlns="http://www.w3.org/2000/svg">
<path d="M21 37.7501C20.5205 37.7501 20.0405 37.5668 19.6744 37.2007L0.92437 18.4507C0.191714 17.7181 0.191714 16.5317 0.92437 15.7995C1.65703 15.0673 2.84343 15.0668 3.57562 15.7995L21 33.2239L38.4244 15.7995C39.157 15.0668 40.3434 15.0668 41.0756 15.7995C41.8078 16.5321 41.8083 17.7186 41.0756 18.4507L22.3256 37.2007C21.9595 37.5668 21.4795 37.7501 21 37.7501ZM22.3256 22.2007L41.0756 3.45074C41.8083 2.71809 41.8083 1.53168 41.0756 0.799492C40.343 0.0673047 39.1566 0.066836 38.4244 0.799492L21 18.2239L3.57562 0.799492C2.84296 0.066836 1.65656 0.066836 0.92437 0.799492C0.192183 1.53215 0.191714 2.71855 0.92437 3.45074L19.6744 22.2007C20.0405 22.5668 20.5205 22.7501 21 22.7501C21.4795 22.7501 21.9595 22.5668 22.3256 22.2007Z" fill="black"/>
</svg>
