<svg width="196" height="188" viewBox="0 0 196 188" fill="none" xmlns="http://www.w3.org/2000/svg">
<g opacity="0.1">
<path fill-rule="evenodd" clip-rule="evenodd" d="M196 0H115.756C90.8169 0 67.9433 8.49154 50.0232 22.6195C53.0415 22.365 56.0814 22.1727 59.1671 22.1727H174.139V133.183C174.139 135.261 173.946 137.294 173.816 139.341C187.669 122.28 196 100.838 196 77.4772V0Z" fill="#579C75"/>
<path fill-rule="evenodd" clip-rule="evenodd" d="M69.4571 43.1294C53.1513 43.1294 37.7846 46.8806 24.0512 53.3809C15.5925 57.3859 7.79139 62.4493 0.811523 68.4346C3.42515 68.2431 6.03878 68.0471 8.70593 68.0471H123.465V179.438C123.465 182.328 123.265 185.171 123.019 188C128.635 181.911 133.541 175.209 137.512 167.924C145.171 153.873 149.553 137.877 149.553 120.874V43.1294H69.4571Z" fill="#63BA8B"/>
</g>
</svg>
