<svg width="26" height="26" viewBox="0 0 26 26" fill="none" xmlns="http://www.w3.org/2000/svg">
<g clip-path="url(#clip0_495_4613)">
<mask id="mask0_495_4613" style="mask-type:luminance" maskUnits="userSpaceOnUse" x="0" y="-1" width="26" height="27">
<path d="M26 -1H0V26H26V-1Z" fill="white"/>
</mask>
<g mask="url(#mask0_495_4613)">
<path fill-rule="evenodd" clip-rule="evenodd" d="M23.4834 23.9056C22.1424 25.2466 20.3235 26 18.4269 26H7.57311C5.67651 26 3.85768 25.2466 2.51664 23.9056L2.09453 23.4834C0.753454 22.1424 0 20.3234 0 18.4269V7.57306C0 5.67656 0.753372 3.85768 2.09445 2.51669L2.51659 2.09449C3.85763 0.753454 5.67651 0 7.57311 0H18.4269C20.3235 0 22.1424 0.753403 23.4834 2.09444L23.9056 2.51662C25.2467 3.85764 26 5.67656 26 7.57306V18.4269C26 20.3234 25.2467 22.1423 23.9056 23.4834L23.4834 23.9056ZM18.4269 23.7997C19.7399 23.7997 20.9992 23.2781 21.9276 22.3497L22.3498 21.9275C23.2781 20.9992 23.7997 19.74 23.7997 18.4269V7.57306C23.7997 6.26004 23.2782 5.00081 22.3498 4.07249L21.9276 3.65028C20.9992 2.72188 19.7399 2.20028 18.4269 2.20028H7.57311C6.26009 2.20028 5.00092 2.72185 4.07252 3.65023L3.65038 4.07243C2.72196 5.00076 2.20028 6.26006 2.20028 7.57306V18.4269C2.20028 19.7399 2.72188 20.9992 3.6503 21.9275L4.07247 22.3497C5.00087 23.2781 6.26009 23.7997 7.57311 23.7997H18.4269ZM18.0668 13C18.0668 13.6076 17.5742 14.1001 16.9666 14.1001H9.03341C8.42583 14.1001 7.93327 13.6076 7.93327 13C7.93327 12.3924 8.42583 11.8999 9.03341 11.8999H16.9666C17.5742 11.8999 18.0668 12.3924 18.0668 13Z" fill="black"/>
<path fill-rule="evenodd" clip-rule="evenodd" d="M23.4834 23.9056C22.1424 25.2466 20.3235 26 18.4269 26H7.57311C5.67651 26 3.85768 25.2466 2.51664 23.9056L2.09453 23.4834C0.753454 22.1424 0 20.3234 0 18.4269V7.57306C0 5.67656 0.753372 3.85768 2.09445 2.51669L2.51659 2.09449C3.85763 0.753454 5.67651 0 7.57311 0H18.4269C20.3235 0 22.1424 0.753403 23.4834 2.09444L23.9056 2.51662C25.2467 3.85764 26 5.67656 26 7.57306V18.4269C26 20.3234 25.2467 22.1423 23.9056 23.4834L23.4834 23.9056ZM18.4269 23.7997C19.7399 23.7997 20.9992 23.2781 21.9276 22.3497L22.3498 21.9275C23.2781 20.9992 23.7997 19.74 23.7997 18.4269V7.57306C23.7997 6.26004 23.2782 5.00081 22.3498 4.07249L21.9276 3.65028C20.9992 2.72188 19.7399 2.20028 18.4269 2.20028H7.57311C6.26009 2.20028 5.00092 2.72185 4.07252 3.65023L3.65038 4.07243C2.72196 5.00076 2.20028 6.26006 2.20028 7.57306V18.4269C2.20028 19.7399 2.72188 20.9992 3.6503 21.9275L4.07247 22.3497C5.00087 23.2781 6.26009 23.7997 7.57311 23.7997H18.4269ZM18.0668 13C18.0668 13.6076 17.5742 14.1001 16.9666 14.1001H9.03341C8.42583 14.1001 7.93327 13.6076 7.93327 13C7.93327 12.3924 8.42583 11.8999 9.03341 11.8999H16.9666C17.5742 11.8999 18.0668 12.3924 18.0668 13Z" fill="black"/>
</g>
</g>
<defs>
<clipPath id="clip0_495_4613">
<rect width="26" height="26" fill="white"/>
</clipPath>
</defs>
</svg>
