<svg width="157" height="161" viewBox="0 0 157 161" fill="none" xmlns="http://www.w3.org/2000/svg">
<path d="M105.64 15.3755L109.376 11.64C110.208 10.8073 110.208 9.45718 109.376 8.62432C108.543 7.79189 107.193 7.79189 106.36 8.62432L102.624 12.3598C101.792 13.1925 101.792 14.5426 102.624 15.3755C103.041 15.7917 103.587 16 104.132 16C104.678 16 105.224 15.7917 105.64 15.3755Z" fill="#6BC690"/>
<path d="M73.36 15.3754C73.7765 15.7917 74.3221 16 74.8678 16C75.4134 16 75.9593 15.7917 76.3755 15.3754C77.2082 14.5428 77.2082 13.1926 76.3755 12.3597L72.6402 8.62434C71.8075 7.79189 70.4574 7.79189 69.6245 8.62434C68.7918 9.45701 68.7918 10.8072 69.6245 11.6401L73.36 15.3754Z" fill="#6BC690"/>
<path fill-rule="evenodd" clip-rule="evenodd" d="M102 29.5001C102 36.944 95.944 43 88.5 43C81.056 43 74.9998 36.944 75 29.5001C75 22.056 81.056 16 88.5 16C95.944 16 102 22.0562 102 29.5001ZM97.4411 29.5003C97.4411 24.5702 93.4302 20.5591 88.5 20.5591C83.5698 20.5591 79.5589 24.5702 79.5589 29.5003C79.5589 34.4305 83.5698 38.4414 88.5 38.4414C93.4302 38.4414 97.4411 34.4305 97.4411 29.5003Z" fill="#6BC690"/>
<path d="M105.64 41.6243C104.808 40.7919 103.457 40.7919 102.624 41.6243C101.792 42.457 101.792 43.8071 102.624 44.64L106.36 48.3755C106.776 48.7917 107.322 49 107.868 49C108.413 49 108.959 48.7917 109.376 48.3755C110.208 47.5428 110.208 46.1927 109.376 45.3598L105.64 41.6243Z" fill="#6BC690"/>
<path d="M69.6245 45.3598C68.7918 46.1925 68.7918 47.5426 69.6245 48.3755C70.0409 48.7917 70.5866 49 71.1322 49C71.6779 49 72.2237 48.7917 72.64 48.3755L76.3755 44.64C77.2082 43.8073 77.2082 42.4572 76.3755 41.6243C75.5429 40.7919 74.1927 40.7919 73.36 41.6243L69.6245 45.3598Z" fill="#6BC690"/>
<path d="M108.457 32H114.543C115.9 32 117 30.8805 117 29.5C117 28.1195 115.9 27 114.543 27H108.457C107.1 27 106 28.1195 106 29.5C106 30.8805 107.1 32 108.457 32Z" fill="#6BC690"/>
<path d="M88.5 12C89.8807 12 91 10.8999 91 9.54327V3.45673C91 2.10012 89.8807 1 88.5 1C87.1193 1 86 2.10012 86 3.45673V9.54303C86 10.8999 87.1193 12 88.5 12Z" fill="#6BC690"/>
<path d="M86 50.4567V56.5433C86 57.8999 87.1193 59 88.5 59C89.8807 59 91 57.8999 91 56.5433V50.4567C91 49.1001 89.8807 48 88.5 48C87.1193 48 86 49.0999 86 50.4567Z" fill="#6BC690"/>
<path d="M61.4567 32H67.5433C68.9001 32 70 30.8805 70 29.5C70 28.1195 68.9001 27 67.5433 27H61.4567C60.0999 27 59 28.1195 59 29.5C59 30.8807 60.0999 32 61.4567 32Z" fill="#6BC690"/>
<path fill-rule="evenodd" clip-rule="evenodd" d="M115.695 113.39H83.9514V106.937H110.69C112.428 106.937 114.029 106.146 115.084 104.766C116.139 103.386 116.484 101.634 116.029 99.9573L107.272 67.6917C106.62 65.288 104.425 63.6092 101.934 63.6092H48.512C46.0213 63.6092 43.8261 65.288 43.1739 67.6917L38.8317 83.6913V48.6892L47.9229 53.9379C50.7759 55.585 54.0312 56.4341 57.2976 56.4338C58.9469 56.4338 60.5991 56.2174 62.2036 55.7779C63.4258 55.4433 64.1453 54.172 63.818 52.9478C62.5283 48.1201 59.4345 44.0851 55.107 41.5864L39.0621 32.3229V13.9078C39.0621 8.91055 37.1147 4.21383 33.5705 0.674992C32.674 -0.22176 31.2216 -0.225217 30.3203 0.666004C26.7953 4.15253 24.7734 8.99559 24.7734 13.9534V32.3602L8.79321 41.5866C4.46549 44.0851 1.3717 48.1199 0.0790063 52.9591C-0.248949 54.1835 0.473797 55.4433 1.69666 55.7779C3.30117 56.2174 4.95293 56.4338 6.60262 56.4338C9.86857 56.4338 13.1244 55.5848 15.9773 53.9379L25.0041 48.7263V90.6895V93.547V113.391H2.30532C1.03245 113.391 0.000647372 114.423 0.000647372 115.695C0.000647372 116.968 1.03245 118 2.30532 118H115.695C116.968 118 118 116.968 118 115.695C118 114.423 116.968 113.39 115.695 113.39ZM29.6134 93.547V90.6895V46.0653L31.9504 44.7161L34.2228 46.0282V113.391H29.6134V93.547ZM35.2391 36.4852C35.2391 38.3165 33.7492 39.8065 31.9176 39.8065C30.0861 39.8065 28.5961 38.3165 28.5961 36.4852C28.5961 34.6536 30.0861 33.1637 31.9176 33.1637C33.7492 33.1637 35.2391 34.6536 35.2391 36.4852ZM37.1787 42.4126L50.2276 49.9461C52.7305 51.3912 55.6436 52.0199 58.5037 51.7747C57.2914 49.1844 55.3253 47.0351 52.8021 45.5783L39.6991 38.0134C39.359 39.7481 38.4518 41.2815 37.1787 42.4126ZM31.9381 5.8709C33.5726 8.21223 34.4528 10.9921 34.4528 13.9078V28.9721C33.656 28.7027 32.8042 28.5543 31.9176 28.5543C31.031 28.5543 30.1792 28.7027 29.3825 28.9721V13.9534C29.3827 11.0629 30.2949 8.22422 31.9381 5.8709ZM5.39497 51.7744C8.25484 52.022 11.1693 51.3914 13.6724 49.9461L26.6823 42.4349C25.4042 41.3089 24.4897 39.7797 24.1421 38.0471L11.0977 45.5783C8.57265 47.036 6.60515 49.1881 5.39497 51.7744ZM57.9812 102.328L59.107 94.0311H72.898V102.328H57.9812ZM39.0232 101.966C39.1264 102.101 39.359 102.328 39.7554 102.328H53.3294L54.4553 94.0311H40.8017L38.8658 101.165C38.7618 101.547 38.9197 101.831 39.0232 101.966ZM44.3043 81.1248H56.2066L55.0808 89.4217H42.0527L44.3043 81.1248ZM72.8977 76.5155V68.2186H62.6094L61.4836 76.5155H72.8977ZM87.7954 68.2186L88.9212 76.5155H77.5071V68.2186H87.7954ZM95.3243 89.4217H108.393L106.142 81.1248H94.1985L95.3243 89.4217ZM90.6725 89.4217H77.5071V81.1248H89.5467L90.6725 89.4217ZM72.8977 89.4217V81.1248H60.8584L59.7325 89.4217H72.8977ZM77.5071 94.0311H91.298L92.4239 102.328H77.5071V94.0311ZM97.0756 102.328H110.691C111.087 102.328 111.32 102.101 111.423 101.966C111.526 101.831 111.684 101.547 111.58 101.165L109.644 94.0311H95.9498L97.0756 102.328ZM102.823 68.8989L104.891 76.5155H93.5727L92.4469 68.2186H101.934C102.349 68.2186 102.715 68.4984 102.823 68.8989ZM57.9579 68.2186H48.512C48.0969 68.2186 47.7312 68.4984 47.6224 68.8989L45.5553 76.5155H56.8321L57.9579 68.2186ZM38.8317 106.861C39.1336 106.911 39.4422 106.937 39.7554 106.937H66.4359V113.39H38.8317V106.861ZM71.0452 106.937V113.39H79.3421V106.937H71.0452Z" fill="#2F513C"/>
<g filter="url(#filter0_d_0_494)">
<rect x="87" y="78" width="50" height="50" rx="8" fill="white"/>
</g>
<path fill-rule="evenodd" clip-rule="evenodd" d="M127 89H113.865C109.783 89 106.039 90.4475 103.106 92.8559C103.6 92.8125 104.098 92.7797 104.603 92.7797H123.422V111.703C123.422 112.058 123.39 112.404 123.369 112.753C125.636 109.845 127 106.19 127 102.207V89Z" fill="#579C75"/>
<path fill-rule="evenodd" clip-rule="evenodd" d="M106.257 96.3887C103.583 96.3887 101.063 97.0259 98.811 98.1303C97.4239 98.8107 96.1446 99.6709 95 100.688C95.4286 100.655 95.8572 100.622 96.2946 100.622H115.114V119.546C115.114 120.037 115.081 120.519 115.04 121C115.961 119.966 116.766 118.827 117.417 117.59C118.673 115.202 119.392 112.485 119.392 109.596V96.3887H106.257Z" fill="#63BA8B"/>
<defs>
<filter id="filter0_d_0_494" x="67" y="71" width="90" height="90" filterUnits="userSpaceOnUse" color-interpolation-filters="sRGB">
<feFlood flood-opacity="0" result="BackgroundImageFix"/>
<feColorMatrix in="SourceAlpha" type="matrix" values="0 0 0 0 0 0 0 0 0 0 0 0 0 0 0 0 0 0 127 0" result="hardAlpha"/>
<feOffset dy="13"/>
<feGaussianBlur stdDeviation="10"/>
<feColorMatrix type="matrix" values="0 0 0 0 0 0 0 0 0 0 0 0 0 0 0 0 0 0 0.0312773 0"/>
<feBlend mode="normal" in2="BackgroundImageFix" result="effect1_dropShadow_0_494"/>
<feBlend mode="normal" in="SourceGraphic" in2="effect1_dropShadow_0_494" result="shape"/>
</filter>
</defs>
</svg>
