<svg width="35" height="35" viewBox="0 0 35 35" fill="none" xmlns="http://www.w3.org/2000/svg">
<g clip-path="url(#clip0_503_6260)">
<path d="M19.8386 24.6591C19.4808 24.6924 19.1216 24.6117 18.8125 24.4283C18.5866 24.1965 18.4783 23.8746 18.5182 23.5533C18.5265 23.2859 18.5585 23.0197 18.6136 22.7579C18.667 22.4575 18.736 22.1602 18.8204 21.867L19.7591 18.6374C19.8559 18.3187 19.9198 17.9908 19.95 17.659C19.95 17.3011 19.9977 17.0544 19.9977 16.9113C20.0177 16.2733 19.7453 15.6611 19.2579 15.2488C18.6585 14.7886 17.912 14.5624 17.1579 14.6124C16.6175 14.6206 16.0813 14.709 15.567 14.8749C15.0049 15.0499 14.4136 15.2594 13.7931 15.5033L13.5227 16.5533C13.7056 16.4897 13.9284 16.4181 14.1829 16.3386C14.4257 16.2666 14.6774 16.2291 14.9306 16.2272C15.2858 16.1887 15.6434 16.2759 15.9409 16.4738C16.1429 16.7149 16.2377 17.0281 16.2033 17.3408C16.2025 17.6083 16.1731 17.875 16.1158 18.1363C16.0601 18.4147 15.9886 18.709 15.9011 19.0192L14.9545 22.2646C14.8782 22.5663 14.8172 22.8716 14.7716 23.1794C14.7344 23.4429 14.7158 23.7087 14.7159 23.9749C14.712 24.6172 15.0057 25.2252 15.5113 25.6214C16.12 26.0888 16.8771 26.3205 17.6431 26.2737C18.1824 26.2848 18.7199 26.2069 19.234 26.043C19.6848 25.8892 20.2867 25.6691 21.0397 25.3828L21.2943 24.3805C21.0903 24.4651 20.8802 24.5342 20.6659 24.5873C20.3947 24.6492 20.1164 24.6733 19.8386 24.6591Z" fill="black"/>
<path d="M20.833 9.34657C20.4 8.94899 19.8297 8.73509 19.242 8.75C18.6548 8.73674 18.0849 8.95043 17.6511 9.34657C16.856 10.0322 16.7672 11.2327 17.4529 12.0279C17.514 12.0988 17.5802 12.165 17.6511 12.2261C18.557 13.0364 19.9271 13.0364 20.8329 12.2261C21.6281 11.5337 21.7114 10.3279 21.019 9.53271C20.9614 9.46647 20.8992 9.40427 20.833 9.34657Z" fill="black"/>
<path d="M17.5 0C7.83501 0 0 7.83501 0 17.5C0 27.165 7.83501 35 17.5 35C27.165 35 35 27.165 35 17.5C35 7.83501 27.165 0 17.5 0ZM17.5 33.4091C8.71363 33.4091 1.59093 26.2864 1.59093 17.5C1.59093 8.71363 8.71363 1.59093 17.5 1.59093C26.2864 1.59093 33.4091 8.71363 33.4091 17.5C33.4091 26.2864 26.2864 33.4091 17.5 33.4091Z" fill="black"/>
</g>
<defs>
<clipPath id="clip0_503_6260">
<rect width="35" height="35" fill="white"/>
</clipPath>
</defs>
</svg>
