<svg width="16" height="16" viewBox="0 0 16 16" fill="none" xmlns="http://www.w3.org/2000/svg">
<path d="M10.3105 12.6865C10.449 12.6896 10.585 12.6494 10.6997 12.5716C10.8143 12.4937 10.9018 12.3821 10.9501 12.2522C10.9984 12.1223 11.005 11.9806 10.969 11.8468C10.933 11.713 10.8562 11.5937 10.7493 11.5056L6.66983 8.01081L10.7493 4.51725C10.8232 4.4629 10.8852 4.39389 10.9312 4.31448C10.9772 4.23508 11.0064 4.147 11.0168 4.05581C11.0272 3.96462 11.0187 3.87227 10.9918 3.78452C10.9649 3.69677 10.9202 3.6155 10.8604 3.54584C10.8006 3.47619 10.7271 3.41968 10.6445 3.37975C10.5618 3.33982 10.4718 3.31739 10.3801 3.31385C10.2884 3.31031 10.1969 3.3257 10.1115 3.35914C10.026 3.39259 9.94833 3.44332 9.88337 3.50816L5.2128 7.5043C5.13945 7.5669 5.08055 7.64459 5.04017 7.73214C4.99978 7.8197 4.97887 7.915 4.97887 8.01142C4.97887 8.10785 4.99978 8.20315 5.04017 8.29071C5.08055 8.37826 5.13945 8.45603 5.2128 8.51862L9.88337 12.5186C10.0014 12.6234 10.1527 12.6828 10.3105 12.6865Z" fill="black"/>
</svg>
