<svg width="18" height="18" viewBox="0 0 18 18" fill="none" xmlns="http://www.w3.org/2000/svg">
<path d="M8.99995 17.75C8.75166 17.7514 8.50858 17.6789 8.30168 17.5416C8.09478 17.4044 7.93344 17.2086 7.83823 16.9793C7.74302 16.75 7.71826 16.4976 7.7671 16.2541C7.81593 16.0107 7.93616 15.7873 8.11245 15.6125L14.7374 8.99997L8.11245 2.38747C7.90766 2.14835 7.80066 1.84075 7.81281 1.52616C7.82496 1.21156 7.95537 0.913137 8.17799 0.690519C8.40061 0.4679 8.69903 0.337486 9.01363 0.325334C9.32822 0.313183 9.63582 0.42019 9.87495 0.624973L17.3749 8.12497C17.6078 8.35918 17.7384 8.67599 17.7384 9.00622C17.7384 9.33646 17.6078 9.65327 17.3749 9.88747L9.87495 17.3875C9.64212 17.6184 9.32787 17.7486 8.99995 17.75Z" fill="#5EA378"/>
<path d="M1.49995 17.75C1.25166 17.7514 1.00858 17.6789 0.801679 17.5417C0.594779 17.4044 0.43344 17.2086 0.338232 16.9793C0.243023 16.75 0.218259 16.4976 0.267096 16.2541C0.315933 16.0107 0.436159 15.7873 0.612445 15.6125L7.23745 8.99999L0.612445 2.38749C0.377066 2.15211 0.244831 1.83286 0.244831 1.49999C0.244831 1.16711 0.377066 0.847867 0.612445 0.612488C0.847825 0.377108 1.16707 0.244873 1.49995 0.244873C1.83282 0.244873 2.15207 0.377108 2.38745 0.612488L9.88745 8.11249C10.1203 8.34669 10.2509 8.66351 10.2509 8.99374C10.2509 9.32397 10.1203 9.64079 9.88745 9.87499L2.38745 17.375C2.27168 17.4931 2.13362 17.5871 1.98128 17.6514C1.82893 17.7158 1.66533 17.7493 1.49995 17.75Z" fill="#5EA378"/>
</svg>
