<svg width="52" height="50" viewBox="0 0 52 50" fill="none" xmlns="http://www.w3.org/2000/svg">
<path fill-rule="evenodd" clip-rule="evenodd" d="M51.9215 0H30.61C23.9866 0 17.9117 2.26178 13.1523 6.02486C13.954 5.95708 14.7613 5.90586 15.5808 5.90586H46.1156V35.4741C46.1156 36.0278 46.0644 36.5692 46.0298 37.1145C49.7091 32.5701 51.9215 26.8589 51.9215 20.6366V0Z" fill="#579C75"/>
<path fill-rule="evenodd" clip-rule="evenodd" d="M18.265 11.5444C13.9264 11.5444 9.83767 12.5402 6.18354 14.2657C3.93287 15.3288 1.85718 16.6729 0 18.2616C0.695424 18.2108 1.39085 18.1588 2.10052 18.1588H32.6353V47.7271C32.6353 48.4943 32.582 49.2488 32.5165 49.9999C34.0107 48.3835 35.3161 46.6044 36.3729 44.6709C38.4107 40.9409 39.5765 36.6948 39.5765 32.1814V11.5444H18.265Z" fill="#63BA8B"/>
</svg>
