<svg width="23" height="24" viewBox="0 0 23 24" fill="none" xmlns="http://www.w3.org/2000/svg">
<path d="M1.0995 6.12665H4.899C5.508 6.12665 6 5.63465 6 5.02715V1.22615C6 0.618648 5.508 0.126648 4.9005 0.126648H1.0995C0.492 0.126648 0 0.618648 0 1.22615V5.02565C0 5.63465 0.492 6.12665 1.0995 6.12665Z" fill="#6BC690"/>
<path d="M1.0995 14.1266H4.899C5.508 14.1266 6 13.6346 6 13.0271V9.22765C6 8.61865 5.508 8.12665 4.9005 8.12665H1.0995C0.492 8.12665 0 8.61865 0 9.22615V13.0256C0 13.6346 0.492 14.1266 1.0995 14.1266Z" fill="#2F513C"/>
<path d="M1.0995 23.1266H4.899C5.508 23.1266 6 22.6346 6 22.0271V18.2276C6 17.6186 5.508 17.1266 4.9005 17.1266H1.0995C0.492 17.1266 0 17.6186 0 18.2261V22.0256C0 22.6346 0.492 23.1266 1.0995 23.1266Z" fill="#6BC690"/>
<path d="M9.0995 6.12665H12.899C13.508 6.12665 14 5.63465 14 5.02715V1.22615C14 0.618648 13.508 0.126648 12.9005 0.126648H9.101C8.492 0.126648 8 0.618648 8 1.22615V5.02565C8 5.63465 8.492 6.12665 9.0995 6.12665Z" fill="#2F513C"/>
<path d="M8 13.0271C8 13.6346 8.492 14.1266 9.0995 14.1266H12.899C13.508 14.1266 14 13.6346 14 13.0271V9.22765C14 8.61865 13.508 8.12665 12.9005 8.12665H9.101C8.492 8.12665 8 8.61865 8 9.22615V13.0271Z" fill="#6BC690"/>
<path d="M8 22.0271C8 22.6346 8.492 23.1266 9.0995 23.1266H12.899C13.508 23.1266 14 22.6346 14 22.0271V18.2276C14 17.6186 13.508 17.1266 12.9005 17.1266H9.101C8.492 17.1266 8 17.6186 8 18.2261V22.0271Z" fill="#2F513C"/>
<path d="M21.9005 0.126648H18.101C17.492 0.126648 17 0.618648 17 1.22615V5.02565C17 5.63465 17.492 6.12665 18.0995 6.12665H21.899C22.508 6.12665 23 5.63465 23 5.02715V1.22615C23 0.618648 22.508 0.126648 21.9005 0.126648Z" fill="#6BC690"/>
<path d="M21.9005 8.12665H18.101C17.492 8.12665 17 8.61865 17 9.22615V13.0256C17 13.6346 17.492 14.1266 18.0995 14.1266H21.899C22.508 14.1266 23 13.6346 23 13.0271V9.22765C23 8.61865 22.508 8.12665 21.9005 8.12665Z" fill="#2F513C"/>
<path d="M21.9005 17.1266H18.101C17.492 17.1266 17 17.6186 17 18.2261V22.0256C17 22.6346 17.492 23.1266 18.0995 23.1266H21.899C22.508 23.1266 23 22.6346 23 22.0271V18.2276C23 17.6186 22.508 17.1266 21.9005 17.1266Z" fill="#6BC690"/>
</svg>
