<svg width="136" height="123" viewBox="0 0 136 123" fill="none" xmlns="http://www.w3.org/2000/svg">
<path fill-rule="evenodd" clip-rule="evenodd" d="M8.06873 0H112.932C117.38 0 121 3.61977 121 8.06804V74.6103C121 75.7234 120.097 76.6268 118.983 76.6268H2.01659C0.903484 76.6268 0 75.7234 0 74.6103V8.06804C0 3.61977 3.61984 0 8.06873 0ZM4.03342 72.5939H116.967V8.06804C116.967 5.84178 115.156 4.03307 112.932 4.03307H8.06873C5.84441 4.03307 4.03342 5.84178 4.03342 8.06804V72.5939Z" fill="#2F513C"/>
<path fill-rule="evenodd" clip-rule="evenodd" d="M2.01659 72.5068H118.983C120.097 72.5068 121 73.3928 121 74.4842V84.3696C121 88.732 117.38 92.2815 112.931 92.2815H8.06872C3.61984 92.2815 0 88.732 0 84.3696V74.4842C0 73.3928 0.903483 72.5068 2.01659 72.5068ZM112.931 88.3267C115.156 88.3267 116.967 86.553 116.967 84.3698H116.967V76.4619H4.03341V84.3698C4.03341 86.553 5.84439 88.3267 8.06871 88.3267H112.931Z" fill="#2F513C"/>
<path d="M66.262 80.7466H53.9149C52.7791 80.7466 51.8572 81.6695 51.8572 82.8064C51.8572 83.9434 52.7791 84.8663 53.9149 84.8663H66.262C67.3978 84.8663 68.3198 83.9434 68.3198 82.8064C68.3198 81.6695 67.3978 80.7466 66.262 80.7466Z" fill="#2F513C"/>
<path fill-rule="evenodd" clip-rule="evenodd" d="M10.2415 8.23926H110.758C111.868 8.23926 112.769 9.14038 112.769 10.2506V74.6153C112.769 75.7255 111.868 76.6266 110.758 76.6266H10.2415C9.13185 76.6266 8.2312 75.7255 8.2312 74.6153V10.2506C8.2312 9.14038 9.13185 8.23926 10.2415 8.23926ZM12.2517 72.6037H108.748V12.2619H12.2517V72.6037Z" fill="#2F513C"/>
<path fill-rule="evenodd" clip-rule="evenodd" d="M34.0055 104.641H86.1711C89.4896 104.641 92.1904 107.413 92.1904 110.82C92.1904 114.227 89.4898 117 86.1713 117H34.0055C30.6869 117 27.9863 114.227 27.9863 110.82C27.9863 107.413 30.6869 104.641 34.0055 104.641ZM34.0055 112.88H86.1711C87.2787 112.88 88.1776 111.955 88.1776 110.82C88.1776 109.685 87.2787 108.76 86.1713 108.76H34.0055C32.898 108.76 31.9992 109.685 31.9992 110.82C31.9992 111.955 32.898 112.88 34.0055 112.88Z" fill="#2F513C"/>
<path fill-rule="evenodd" clip-rule="evenodd" d="M72.6412 90.9633C72.6412 100.149 76.0448 104.806 82.7589 104.806C83.8758 104.806 84.7824 105.692 84.7824 106.783C84.7824 107.875 83.8758 108.76 82.7589 108.76H38.2412C37.1243 108.76 36.2178 107.875 36.2178 106.783C36.2178 105.692 37.1243 104.806 38.2412 104.806C44.9554 104.806 48.359 100.149 48.359 90.9633C48.359 89.8718 49.2655 88.9858 50.3824 88.9858H70.6177C71.7346 88.9858 72.6412 89.8718 72.6412 90.9633ZM52.3511 92.9407C52.0557 98.092 50.5888 102.108 48.0977 104.806H72.9042C70.4112 102.108 68.944 98.092 68.6507 92.9407H52.3511Z" fill="#2F513C"/>
<path fill-rule="evenodd" clip-rule="evenodd" d="M91.6737 54.2918L96.5384 59.1876C97.3262 59.9807 97.3262 61.2625 96.5381 62.0553L90.8391 67.793C90.4622 68.1742 89.9483 68.3872 89.4144 68.3872C88.8804 68.3872 88.3665 68.1742 87.9896 67.793L83.125 62.895L80.2755 65.7649C79.7737 66.2698 79.042 66.4687 78.3569 66.2983C77.6697 66.1238 77.1237 65.5986 76.9201 64.9131L70.8745 44.6318C70.661 43.9178 70.8544 43.1432 71.3803 42.6158C71.9044 42.0884 72.6721 41.8917 73.3834 42.1067L93.5356 48.1912C94.2148 48.3979 94.7367 48.9455 94.91 49.6372C95.0834 50.3288 94.8819 51.063 94.3801 51.568L91.6737 54.2918ZM84.985 59.0314L89.4144 63.4914L92.2639 60.6215L87.5886 55.9163C87.1574 55.4863 86.9196 54.9064 86.9196 54.2918C86.9196 53.6793 87.1553 53.1032 87.5846 52.6692L89.1444 51.0993L75.8097 47.0734L79.81 60.4936L81.265 59.0293C81.7768 58.5162 82.4498 58.2566 83.125 58.2566C83.798 58.2566 84.4711 58.5143 84.985 59.0314Z" fill="#6BC690"/>
<path fill-rule="evenodd" clip-rule="evenodd" d="M28.343 16.479H84.4256C85.5312 16.479 86.4285 17.3755 86.4285 18.4799V28.4851C86.4285 29.5896 85.5312 30.486 84.4256 30.486H28.343C27.2374 30.486 26.3401 29.5896 26.3401 28.4851V18.4799C26.3401 17.3755 27.2374 16.479 28.343 16.479ZM30.3458 26.4842H82.4228V20.4811H30.3458V26.4842Z" fill="#6BC690"/>
<path fill-rule="evenodd" clip-rule="evenodd" d="M36.547 37.9014H52.3512C53.4416 37.9014 54.3266 38.8242 54.3266 39.9612V48.2007C54.3266 49.3377 53.4416 50.2605 52.3512 50.2605H36.547C35.4566 50.2605 34.5715 49.3377 34.5715 48.2007V39.9612C34.5715 38.8242 35.4566 37.9014 36.547 37.9014ZM38.5224 46.1409H50.3755V42.021H38.5224V46.1409Z" fill="#6BC690"/>
<path fill-rule="evenodd" clip-rule="evenodd" d="M28.343 16.479H84.4254C85.531 16.479 86.4283 17.3755 86.4285 18.4799V48.0909C86.4285 48.7234 86.13 49.3197 85.6213 49.6958C85.1148 50.0741 84.4578 50.1901 83.8508 50.0079L75.4084 47.4766L77.9441 55.9228C78.1265 56.5292 78.0103 57.1856 77.6317 57.6937C77.2549 58.2021 76.6602 58.5001 76.0252 58.5001H28.343C27.2374 58.5001 26.3401 57.6037 26.3401 56.4992V18.4799C26.3401 17.3755 27.2374 16.479 28.343 16.479ZM72.9945 42.5763L82.4225 45.4018V20.4811H30.3458V54.4985H73.333L70.5009 45.0697C70.2887 44.3632 70.4809 43.6008 71.0036 43.0786C71.5245 42.5583 72.2876 42.3641 72.9945 42.5763Z" fill="#6BC690"/>
<g clip-path="url(#clip0_0_534)">
<g filter="url(#filter0_d_0_534)">
<rect x="86" y="73" width="50" height="50" rx="8" fill="white"/>
</g>
<path d="M92.2734 103V101.599L93.3057 101.38V94.6738L92.2734 94.4551V93.0469H93.3057H95.7051H96.9629V94.4551L95.7051 94.6738V101.161H98.0703L98.125 99.7734H99.957V103H92.2734ZM105.31 103.144C104.621 103.144 103.988 103.018 103.409 102.768C102.835 102.512 102.336 102.157 101.912 101.701C101.488 101.245 101.16 100.712 100.928 100.102C100.7 99.4863 100.586 98.8187 100.586 98.0986V97.9414C100.586 97.2259 100.7 96.5628 100.928 95.9521C101.16 95.3415 101.486 94.8083 101.905 94.3525C102.329 93.8968 102.828 93.5413 103.402 93.2861C103.977 93.0309 104.608 92.9033 105.296 92.9033C105.97 92.9033 106.597 93.0309 107.176 93.2861C107.755 93.5413 108.26 93.8968 108.693 94.3525C109.131 94.8083 109.47 95.3415 109.712 95.9521C109.953 96.5628 110.074 97.2259 110.074 97.9414V98.0986C110.074 98.8187 109.953 99.4863 109.712 100.102C109.47 100.712 109.133 101.245 108.7 101.701C108.267 102.157 107.761 102.512 107.183 102.768C106.604 103.018 105.979 103.144 105.31 103.144ZM105.31 101.325C105.811 101.325 106.239 101.191 106.595 100.922C106.95 100.653 107.221 100.277 107.408 99.7939C107.595 99.3109 107.688 98.7458 107.688 98.0986V97.9277C107.688 97.2943 107.593 96.7383 107.401 96.2598C107.215 95.7767 106.943 95.4007 106.588 95.1318C106.232 94.863 105.802 94.7285 105.296 94.7285C104.763 94.7285 104.325 94.8607 103.983 95.125C103.646 95.3893 103.396 95.7607 103.231 96.2393C103.067 96.7178 102.985 97.2806 102.985 97.9277V98.0986C102.985 98.7458 103.067 99.3132 103.231 99.8008C103.4 100.284 103.655 100.66 103.997 100.929C104.343 101.193 104.781 101.325 105.31 101.325ZM115.447 103.144C114.417 103.144 113.545 102.943 112.829 102.542C112.118 102.141 111.576 101.585 111.202 100.874C110.828 100.159 110.642 99.3314 110.642 98.3926V97.9414C110.642 96.9525 110.826 96.0798 111.195 95.3232C111.564 94.5667 112.1 93.9743 112.802 93.5459C113.504 93.1175 114.351 92.9033 115.345 92.9033C116.024 92.9033 116.705 93.0081 117.389 93.2178C118.072 93.4229 118.674 93.7487 119.193 94.1953V96.5264H117.484L117.122 95.2617C116.967 95.1022 116.746 94.9701 116.459 94.8652C116.176 94.7604 115.857 94.708 115.502 94.708C114.955 94.708 114.497 94.8447 114.128 95.1182C113.759 95.387 113.481 95.763 113.294 96.2461C113.112 96.7292 113.021 97.2897 113.021 97.9277V98.3926C113.021 98.9941 113.116 99.516 113.308 99.958C113.504 100.4 113.788 100.742 114.162 100.983C114.536 101.225 114.996 101.346 115.543 101.346C115.83 101.346 116.115 101.316 116.397 101.257C116.68 101.198 116.901 101.132 117.061 101.059V99.7734L115.939 99.6367V97.9824H119.467V102.111C118.929 102.458 118.321 102.717 117.642 102.891C116.967 103.059 116.236 103.144 115.447 103.144ZM124.997 103.144C124.309 103.144 123.675 103.018 123.097 102.768C122.522 102.512 122.023 102.157 121.6 101.701C121.176 101.245 120.848 100.712 120.615 100.102C120.387 99.4863 120.273 98.8187 120.273 98.0986V97.9414C120.273 97.2259 120.387 96.5628 120.615 95.9521C120.848 95.3415 121.174 94.8083 121.593 94.3525C122.017 93.8968 122.516 93.5413 123.09 93.2861C123.664 93.0309 124.295 92.9033 124.983 92.9033C125.658 92.9033 126.285 93.0309 126.863 93.2861C127.442 93.5413 127.948 93.8968 128.381 94.3525C128.818 94.8083 129.158 95.3415 129.399 95.9521C129.641 96.5628 129.762 97.2259 129.762 97.9414V98.0986C129.762 98.8187 129.641 99.4863 129.399 100.102C129.158 100.712 128.821 101.245 128.388 101.701C127.955 102.157 127.449 102.512 126.87 102.768C126.291 103.018 125.667 103.144 124.997 103.144ZM124.997 101.325C125.498 101.325 125.927 101.191 126.282 100.922C126.638 100.653 126.909 100.277 127.096 99.7939C127.283 99.3109 127.376 98.7458 127.376 98.0986V97.9277C127.376 97.2943 127.28 96.7383 127.089 96.2598C126.902 95.7767 126.631 95.4007 126.275 95.1318C125.92 94.863 125.489 94.7285 124.983 94.7285C124.45 94.7285 124.013 94.8607 123.671 95.125C123.334 95.3893 123.083 95.7607 122.919 96.2393C122.755 96.7178 122.673 97.2806 122.673 97.9277V98.0986C122.673 98.7458 122.755 99.3132 122.919 99.8008C123.088 100.284 123.343 100.66 123.685 100.929C124.031 101.193 124.468 101.325 124.997 101.325Z" fill="#2F513C"/>
</g>
<defs>
<filter id="filter0_d_0_534" x="66" y="66" width="90" height="90" filterUnits="userSpaceOnUse" color-interpolation-filters="sRGB">
<feFlood flood-opacity="0" result="BackgroundImageFix"/>
<feColorMatrix in="SourceAlpha" type="matrix" values="0 0 0 0 0 0 0 0 0 0 0 0 0 0 0 0 0 0 127 0" result="hardAlpha"/>
<feOffset dy="13"/>
<feGaussianBlur stdDeviation="10"/>
<feColorMatrix type="matrix" values="0 0 0 0 0 0 0 0 0 0 0 0 0 0 0 0 0 0 0.0312773 0"/>
<feBlend mode="normal" in2="BackgroundImageFix" result="effect1_dropShadow_0_534"/>
<feBlend mode="normal" in="SourceGraphic" in2="effect1_dropShadow_0_534" result="shape"/>
</filter>
<clipPath id="clip0_0_534">
<rect width="50" height="50" fill="white" transform="translate(86 73)"/>
</clipPath>
</defs>
</svg>
