<svg width="16" height="16" viewBox="0 0 16 16" fill="none" xmlns="http://www.w3.org/2000/svg">
<path d="M5.68953 3.31345C5.551 3.31041 5.41495 3.35057 5.30032 3.42841C5.18568 3.50626 5.09815 3.61794 5.04988 3.74783C5.00162 3.87773 4.99503 4.01941 5.03103 4.15322C5.06702 4.28703 5.14382 4.40625 5.25073 4.4944L9.33016 7.98919L5.25073 11.4827C5.17677 11.5371 5.11483 11.6061 5.06879 11.6855C5.02275 11.7649 4.99361 11.853 4.98317 11.9442C4.97274 12.0354 4.98125 12.1277 5.00816 12.2155C5.03508 12.3032 5.07982 12.3845 5.13959 12.4542C5.19937 12.5238 5.27287 12.5803 5.35552 12.6202C5.43816 12.6602 5.52816 12.6826 5.61988 12.6861C5.7116 12.6897 5.80306 12.6743 5.88853 12.6409C5.97401 12.6074 6.05166 12.5567 6.11662 12.4918L10.7872 8.4957C10.8605 8.4331 10.9194 8.35541 10.9598 8.26786C11.0002 8.1803 11.0211 8.085 11.0211 7.98857C11.0211 7.89215 11.0002 7.79685 10.9598 7.70929C10.9194 7.62174 10.8605 7.54397 10.7872 7.48138L6.11662 3.48139C5.99863 3.37659 5.8473 3.31717 5.68953 3.31345Z" fill="black"/>
</svg>
