<svg width="18" height="18" viewBox="0 0 18 18" fill="none" xmlns="http://www.w3.org/2000/svg">
<path d="M8.20465 1.44849C4.48561 1.44849 1.45612 4.47798 1.45612 8.19703C1.45612 11.9161 4.48561 14.9515 8.20465 14.9515C9.79317 14.9515 11.2541 14.3948 12.4088 13.4705L15.2198 16.28C15.3616 16.416 15.5511 16.491 15.7476 16.489C15.9441 16.487 16.132 16.4082 16.2711 16.2693C16.4101 16.1304 16.4892 15.9427 16.4915 15.7462C16.4938 15.5497 16.4191 15.3601 16.2833 15.2181L13.4722 12.407C14.3973 11.2506 14.9547 9.78738 14.9547 8.19703C14.9547 4.47798 11.9237 1.44849 8.20465 1.44849ZM8.20465 2.94851C11.113 2.94851 13.4532 5.28866 13.4532 8.19703C13.4532 11.1054 11.113 13.4514 8.20465 13.4514C5.29627 13.4514 2.95612 11.1054 2.95612 8.19703C2.95612 5.28866 5.29627 2.94851 8.20465 2.94851Z" fill="black"/>
</svg>
