<svg width="25" height="25" viewBox="0 0 25 25" fill="none" xmlns="http://www.w3.org/2000/svg">
<path d="M15.0341 12.4976L23.634 3.89724C23.8706 3.6605 24.0011 3.34465 24.0015 3.00785C24.0015 2.67087 23.871 2.35465 23.634 2.11827L22.8804 1.36483C22.6435 1.12753 22.3276 0.997559 21.9905 0.997559C21.6538 0.997559 21.338 1.12753 21.1011 1.36483L12.5011 9.96459L3.90081 1.36483C3.66425 1.12753 3.34821 0.997559 3.01123 0.997559C2.67462 0.997559 2.35858 1.12753 2.12202 1.36483L1.36802 2.11827C0.877325 2.60897 0.877325 3.40711 1.36802 3.89724L9.96815 12.4976L1.36802 21.0975C1.13128 21.3346 1.00094 21.6505 1.00094 21.9873C1.00094 22.3241 1.13128 22.6399 1.36802 22.8768L2.12184 23.6303C2.3584 23.8674 2.67462 23.9976 3.01104 23.9976C3.34802 23.9976 3.66406 23.8674 3.90062 23.6303L12.5009 15.0303L21.1009 23.6303C21.3378 23.8674 21.6537 23.9976 21.9903 23.9976H21.9906C22.3274 23.9976 22.6433 23.8674 22.8802 23.6303L23.6338 22.8768C23.8704 22.6401 24.0009 22.3241 24.0009 21.9873C24.0009 21.6505 23.8704 21.3346 23.6338 21.0977L15.0341 12.4976Z" fill="#2F513C" stroke="#ECF7F0"/>
</svg>
